SplineFontDB: 1.0
FontName: NimbusRomNo9L-Medi
FullName: Nimbus Roman No9 L Bold
FamilyName: Nimbus Roman No9 L
Weight: Bold
Copyright: Copyright (URW)++,Copyright 1999 by (URW)++ Design & Development; Cyrillic glyphs added by Valek Filippov (C) 2001
Version: 1.06
ItalicAngle: 0
UnderlinePosition: -100
UnderlineWidth: 50
Ascent: 800
Descent: 200
NeedsXUIDChange: 1
UniqueID: 4019402
FSType: 0
OS2WinAscent: 0
OS2WinAOffset: 1
OS2WinDescent: 0
OS2WinDOffset: 1
ScriptLang: 2
 1 latn 1 dflt 
 1 DFLT 1 dflt 
Encoding: adobestandard
UnicodeInterp: none
DisplaySize: -36
AntiAlias: 1
FitToEm: 1
WinInfo: 360 30 14
BeginPrivate: 7
BlueValues 23 [-20 0 461 481 676 696]
BlueScale 8 0.039625
StdHW 4 [33]
StdVW 5 [140]
StemSnapH 200 [33 44 48 55 66 73] 
systemdict /internaldict known
{1183615869 systemdict /internaldict get exec
/StemSnapLength 2 copy known { get 6 lt } { pop pop true } ifelse }
{ true } ifelse { pop [33 66] } if
StemSnapV 208 [118 140 148 163 174 178] 
systemdict /internaldict known
{1183615869 systemdict /internaldict get exec
/StemSnapLength 2 copy known { get 6 lt } { pop pop true } ifelse }
{ true } ifelse { pop [140 163] } if
ForceBold 5 false
EndPrivate
BeginChars: 767 660
StartChar: exclam
Encoding: 33 33 2
Width: 333
Flags: W
HStem: -13 169<160 178> 671 20G<139 192.5>
Fore
166 156 m 0
 213 156 251 117 251 70 c 0
 251 24 213 -13 165 -13 c 0
 118 -13 82 24 82 72 c 0
 82 117 120 156 166 156 c 0
180 234 m 1
 151 234 l 1
 138 357 128 407 99 502 c 0
 85 547 81 566 81 591 c 0
 81 654 112 691 166 691 c 0
 219 691 250 654 250 589 c 0
 250 566 246 546 232 502 c 0
 202 406 193 357 180 234 c 1
EndSplineSet
EndChar
StartChar: quotedbl
Encoding: 34 34 3
Width: 555
Flags: W
HStem: 671 20G<128 165.5 388 425.5>
VStem: 83 129<611 629> 343 129<611 629>
Fore
168 404 m 1
 127 404 l 1
 122 426 118 445 116 452 c 0
 95 535 83 599 83 620 c 0
 83 663 109 691 147 691 c 0
 184 691 212 662 212 624 c 0
 212 602 202 551 168 404 c 1
428 404 m 1
 387 404 l 1
 382 425 377 445 376 452 c 0
 355 536 343 599 343 620 c 0
 343 663 369 691 407 691 c 0
 444 691 472 662 472 624 c 0
 472 602 459 537 428 404 c 1
EndSplineSet
EndChar
StartChar: numbersign
Encoding: 35 35 4
Width: 500
Flags: W
HStem: 210 73<4 100 189 291 380 467> 417 73<33 129 217 320 408 496>
DStem: 100 210 178 210 71 0 149 0 129 417 207 417 111 283 189 283 169 700 246 700 139 490 217 490 291 210 369 210 262 0 340 0 320 417 398 417 302 283 380 283 360 700 437 700 330 490 408 490
Fore
467 283 m 1
 467 210 l 1
 369 210 l 1
 340 0 l 1
 262 0 l 1
 291 210 l 1
 178 210 l 1
 149 0 l 1
 71 0 l 1
 100 210 l 1
 4 210 l 1
 4 283 l 1
 111 283 l 1
 129 417 l 1
 33 417 l 1
 33 490 l 1
 139 490 l 1
 169 700 l 1
 246 700 l 1
 217 490 l 1
 330 490 l 1
 360 700 l 1
 437 700 l 1
 408 490 l 1
 496 490 l 1
 496 417 l 1
 398 417 l 1
 380 283 l 1
 467 283 l 1
320 417 m 1
 207 417 l 1
 189 283 l 1
 302 283 l 1
 320 417 l 1
EndSplineSet
EndChar
StartChar: dollar
Encoding: 36 36 5
Width: 500
Flags: W
HStem: 481 21G<407 428>
VStem: 29 95<496 554> 214 55<-99 0 30 250 454 641 672 750> 362 110<134 196>
Fore
428 481 m 1
 407 481 l 1
 378 581 340 625 269 641 c 1
 269 426 l 1
 366 376 396 356 431 316 c 0
 457 287 472 244 472 196 c 0
 472 140 455 95 422 63 c 0
 390 32 351 15 269 0 c 1
 269 -99 l 1
 214 -99 l 1
 214 0 l 1
 152 3 128 9 46 43 c 1
 46 199 l 1
 67 197 l 1
 99 89 139 44 213 30 c 1
 213 281 l 1
 79 348 29 407 29 496 c 0
 29 559 60 612 115 644 c 0
 146 661 168 667 214 672 c 1
 214 750 l 1
 269 750 l 1
 269 674 l 1
 347 661 381 650 428 622 c 1
 428 481 l 1
269 250 m 1
 269 30 l 1
 332 42 362 75 362 134 c 0
 362 188 349 205 269 250 c 1
213 454 m 1
 213 644 l 1
 150 628 124 602 124 554 c 0
 124 508 153 475 213 454 c 1
EndSplineSet
EndChar
StartChar: percent
Encoding: 37 37 6
Width: 1000
Flags: W
HStem: -14 46<668 701> 294 46<253 286> 321 51<761 792> 585 38<507 525> 672 20G<690 728>
VStem: 432 33<561 590> 535 117<88 125> 844 33<241 259>
DStem: 627 612 728 692 279 -8 334 -8
Fore
761 372 m 0xbf
 831 372 877 327 877 257 c 0
 877 179 843 95 789 39 c 0
 758 6 712 -14 668 -14 c 0
 588 -14 535 41 535 125 c 0
 535 248 648 372 761 372 c 0xbf
792 321 m 0
 766 321 744 305 719 269 c 0
 686 220 652 129 652 88 c 0
 652 52 669 32 701 32 c 0
 738 32 773 61 803 116 c 0
 831 166 844 209 844 249 c 0
 844 290 822 321 792 321 c 0
728 692 m 1
 334 -8 l 1
 279 -8 l 1
 627 612 l 1
 585 594 546 585 512 585 c 0
 498 585 486 586 465 590 c 1
 464 501 448 445 406 383 c 0
 366 325 313 294 253 294 c 0xdf
 177 294 124 350 124 430 c 0
 124 558 234 678 350 678 c 0
 375 678 398 670 425 651 c 0
 456 629 477 623 518 623 c 0
 579 623 653 650 675 681 c 0
 680 688 685 692 690 692 c 2
 728 692 l 1
371 631 m 0
 355 633 330 612 309 581 c 0
 274 529 241 442 238 396 c 0
 236 364 256 340 286 340 c 0
 318 340 345 359 374 401 c 0
 410 454 432 519 432 569 c 0
 432 591 424 604 403 613 c 0
 397 615 396 616 387 623 c 0
 378 629 375 630 371 631 c 0
EndSplineSet
EndChar
StartChar: ampersand
Encoding: 38 38 7
Width: 833
Flags: W
HStem: -16 101<624 709> 395 24<577 585.429 772.25 783> 658 33<375 401>
VStem: 62 139<161 264> 206 117<533 602> 467 101<533 569>
Fore
577 419 m 1
 783 419 l 1
 783 395 l 1
 740 391 728 384 710 355 c 2
 683 311 l 2
 656 268 645 252 590 176 c 1
 646 104 671 85 709 85 c 0
 733 85 750 96 767 123 c 1
 787 111 l 1
 771 85 l 2
 746 44 733 28 717 15 c 0
 693 -3 655 -16 624 -16 c 0
 571 -16 535 6 475 72 c 1
 393 11 327 -15 253 -15 c 0
 141 -15 62 58 62 161 c 0
 62 255 116 318 258 388 c 1
 218 457 206 489 206 533 c 0
 206 630 281 691 401 691 c 0
 502 691 568 643 568 569 c 0
 568 506 522 462 416 423 c 1
 567 209 l 1
 625 281 643 314 643 354 c 0
 643 383 636 388 577 395 c 1
 577 419 l 1
323 286 m 2
 275 358 l 1
 220 326 201 301 201 264 c 0
 201 212 230 148 273 103 c 0
 298 77 332 61 362 61 c 0
 388 61 413 72 452 100 c 1
 420 142 398 174 323 286 c 2
397 452 m 1
 447 469 467 492 467 533 c 0
 467 600 424 658 375 658 c 0
 343 658 323 637 323 602 c 0
 323 561 344 518 397 452 c 1
EndSplineSet
EndChar
StartChar: quoteright
Encoding: 39 8217 8
Width: 333
Flags: W
HStem: 671 20G<137 192>
Fore
97 356 m 1
 86 378 l 1
 160 430 195 472 195 510 c 0
 195 522 187 532 176 532 c 0
 174 532 172 532 169 531 c 0
 163 530 158 530 153 530 c 0
 108 530 79 561 79 609 c 0
 79 658 112 691 162 691 c 0
 222 691 263 644 263 575 c 0
 263 489 213 423 97 356 c 1
EndSplineSet
KernsSLIF: 121 -22 1 0 119 -23 1 0 118 -25 1 0 116 -19 1 0 115 -17 1 0 114 -26 1 0 46 -35 1 0 111 -34 1 0 100 -31 1 0 44 -34 1 0 262 -91 1 0 256 -91 1 0 257 -91 1 0 225 -110 1 0 65 -91 1 0
EndChar
StartChar: parenleft
Encoding: 40 40 9
Width: 333
Flags: W
Fore
306 694 m 1
 306 667 l 1
 246 627 222 601 201 557 c 0
 173 497 159 396 159 258 c 0
 159 121 173 29 203 -33 c 0
 224 -78 249 -104 306 -140 c 1
 306 -168 l 1
 208 -109 165 -69 119 3 c 0
 71 79 46 168 46 259 c 0
 46 388 92 507 177 599 c 0
 216 640 244 661 306 694 c 1
EndSplineSet
EndChar
StartChar: parenright
Encoding: 41 41 10
Width: 333
Flags: W
Fore
27 -168 m 1
 27 -141 l 1
 87 -101 112 -75 132 -31 c 0
 160 29 174 130 174 268 c 0
 174 404 160 497 130 559 c 0
 109 604 84 629 27 666 c 1
 27 694 l 1
 125 635 168 595 214 523 c 0
 262 447 287 358 287 266 c 0
 287 138 241 19 155 -73 c 0
 117 -114 89 -135 27 -168 c 1
EndSplineSet
EndChar
StartChar: asterisk
Encoding: 42 42 11
Width: 500
Flags: W
HStem: 339 106<107 142> 503 106<366 395> 671 20G<237 266>
VStem: 243 19<497 518>
Fore
278 476 m 1
 278 468 l 1
 314 451 329 447 374 443 c 0
 428 439 447 425 447 392 c 0
 447 364 426 342 398 342 c 0
 371 342 355 355 323 404 c 1
 303 432 295 439 266 454 c 1
 259 449 l 1
 264 404 268 389 288 349 c 0
 299 328 302 319 302 307 c 0
 302 278 280 255 251 255 c 0
 222 255 203 278 203 312 c 0
 203 328 206 337 218 359 c 0
 238 393 240 403 241 449 c 1
 234 454 l 1
 196 426 188 418 161 379 c 0
 141 348 128 339 107 339 c 0
 79 339 57 361 57 389 c 0
 57 426 86 445 142 445 c 1
 184 447 194 450 226 472 c 1
 226 479 l 1
 186 497 170 501 124 505 c 0
 72 509 56 521 56 557 c 0
 56 586 75 606 104 606 c 0
 131 606 146 595 167 561 c 0
 192 521 198 515 236 494 c 1
 243 497 l 1
 242 539 239 550 218 588 c 0
 204 614 200 624 200 641 c 0
 200 669 222 691 252 691 c 0
 280 691 300 669 300 636 c 0
 300 621 297 611 284 588 c 0
 267 560 262 541 262 516 c 2
 262 497 l 1
 270 494 l 1
 307 523 315 533 341 570 c 0
 361 601 373 609 395 609 c 0
 422 609 447 585 447 559 c 0
 447 541 431 519 411 510 c 0
 399 505 390 503 366 503 c 0
 323 501 311 497 278 476 c 1
EndSplineSet
EndChar
StartChar: plus
Encoding: 43 43 12
Width: 570
Flags: W
HStem: 0 21G<241 329> 209 88<33 241 329 537>
VStem: 241 88<0 209 297 506>
Fore
241 297 m 1
 241 506 l 1
 329 506 l 1
 329 297 l 1
 537 297 l 1
 537 209 l 1
 329 209 l 1
 329 0 l 1
 241 0 l 1
 241 209 l 1
 33 209 l 1
 33 297 l 1
 241 297 l 1
EndSplineSet
EndChar
StartChar: comma
Encoding: 44 44 13
Width: 250
Flags: W
HStem: -24 20G<135 141.5>
Fore
57 -180 m 1
 46 -158 l 1
 121 -106 155 -64 155 -26 c 0
 155 -13 147 -4 136 -4 c 0
 134 -4 132 -4 129 -5 c 0
 123 -6 117 -6 112 -6 c 0
 69 -6 39 26 39 72 c 0
 39 122 72 155 122 155 c 0
 182 155 223 108 223 39 c 0
 223 -47 173 -113 57 -180 c 1
EndSplineSet
KernsSLIF: 39 -23 1 0 186 9 1 0 49 -12 1 0
EndChar
StartChar: hyphen
Encoding: 45 45 14
Width: 333
Flags: W
HStem: 171 116<44 287>
Fore
287 287 m 1
 287 171 l 1
 44 171 l 1
 44 287 l 1
 287 287 l 1
EndSplineSet
KernsSLIF: 89 -83 1 0 87 -54 1 0 86 -72 1 0 84 -74 1 0 262 -18 1 0 256 -18 1 0 257 -18 1 0 225 -24 1 0 65 -18 1 0
EndChar
StartChar: period
Encoding: 46 46 15
Width: 250
Flags: W
HStem: -13 21G<100.5 148>
Fore
125 156 m 0
 172 156 210 117 210 70 c 0
 210 24 172 -13 124 -13 c 0
 77 -13 41 24 41 72 c 0
 41 117 79 156 125 156 c 0
EndSplineSet
KernsSLIF: 39 -27 1 0 186 5 1 0 49 -21 1 0
EndChar
StartChar: slash
Encoding: 47 47 16
Width: 278
Flags: W
HStem: -19 21G<-24 66> 671 20G<212 302>
DStem: 212 691 302 691 -24 -19 66 -19
Fore
302 691 m 1
 66 -19 l 1
 -24 -19 l 1
 212 691 l 1
 302 691 l 1
EndSplineSet
EndChar
StartChar: zero
Encoding: 48 48 17
Width: 500
Flags: W
HStem: -13 28<251 253> 660 28<238.64 254>
VStem: 24 158<306 451> 318 158<222 372>
Fore
250 688 m 0
 379 688 476 537 476 337 c 0
 476 136 380 -13 251 -13 c 0
 118 -13 24 134 24 340 c 0
 24 423 46 517 78 572 c 0
 119 644 185 688 250 688 c 0
318 222 m 2
 318 451 l 2
 318 598 298 660 249 660 c 0
 201 660 182 602 182 451 c 2
 182 222 l 2
 182 74 201 15 251 15 c 0
 274 15 290 29 301 58 c 0
 310 85 318 163 318 222 c 2
EndSplineSet
KernsSLIF: 55 7 1 0 49 -31 1 0 52 11 1 0
EndChar
StartChar: one
Encoding: 49 49 18
Width: 500
Flags: W
HStem: 0 24<67 97.3481 67 166 396.5 442 442 442> 668 20G<317 334>
VStem: 186 148<111 529>
Fore
317 688 m 1
 334 688 l 1
 334 118 l 2
 334 41 351 26 442 24 c 1
 442 0 l 1
 67 0 l 1
 67 24 l 1
 166 25 186 42 186 124 c 2
 186 509 l 2
 186 556 175 578 150 578 c 0
 137 578 112 571 85 561 c 0
 82 559 74 556 65 553 c 1
 65 579 l 1
 317 688 l 1
EndSplineSet
KernsSLIF: 48 -35 1 0 50 -2 1 0 51 -10 1 0 54 -47 1 0 55 -56 1 0 46 -17 1 0 49 -27 1 0 57 -9 1 0 52 -56 1 0 53 -16 1 0 56 -34 1 0 44 -16 1 0
EndChar
StartChar: two
Encoding: 50 50 19
Width: 500
Flags: W
HStem: 0 133<160 433> 574 114<181 251>
VStem: 300 136<447 505>
Fore
478 211 m 1
 433 0 l 1
 17 0 l 1
 17 23 l 1
 163 179 198 221 249 299 c 0
 281 348 300 403 300 447 c 0
 300 470 292 498 280 519 c 0
 258 555 225 574 181 574 c 0
 127 574 90 546 59 484 c 1
 31 484 l 1
 59 559 79 593 118 632 c 0
 153 668 201 688 251 688 c 0
 359 688 436 612 436 505 c 0
 436 429 401 362 322 287 c 2
 160 133 l 1
 311 133 l 2
 413 133 425 139 454 211 c 1
 478 211 l 1
EndSplineSet
KernsSLIF: 55 -7 1 0 49 -29 1 0 52 14 1 0
EndChar
StartChar: three
Encoding: 51 51 20
Width: 500
Flags: W
HStem: -14 50<169 256> 607 81<181 266>
VStem: 283 146<504 551> 354 114<154 246>
Fore
58 523 m 1xe0
 37 535 l 1
 92 638 167 688 266 688 c 0
 368 688 429 637 429 551 c 0xe0
 429 492 410 463 346 424 c 1
 386 406 403 394 424 370 c 0
 453 335 468 292 468 246 c 0
 468 100 336 -14 169 -14 c 0
 77 -14 16 22 16 76 c 0
 16 110 43 134 81 134 c 0
 111 134 141 118 180 79 c 0
 213 47 232 36 256 36 c 0
 316 36 354 82 354 154 c 0xd0
 354 202 336 247 305 276 c 0
 269 310 236 327 153 356 c 1
 153 373 l 1
 248 403 283 438 283 504 c 0
 283 567 244 607 181 607 c 0
 129 607 96 584 58 523 c 1xe0
EndSplineSet
KernsSLIF: 55 -15 1 0 49 -33 1 0 52 9 1 0
EndChar
StartChar: four
Encoding: 52 52 21
Width: 500
Flags: W
HStem: 0 255<60 412> 144 111<60 267 412 475> 668 20G<332 412>
VStem: 267 145<0 144 255 688>
Fore
412 255 m 1xb0
 475 255 l 1
 475 144 l 1
 412 144 l 1x70
 412 0 l 1
 267 0 l 1xb0
 267 144 l 1
 19 144 l 1x70
 19 257 l 1
 79 352 145 444 273 611 c 2
 332 688 l 1
 412 688 l 1
 412 255 l 1xb0
269 255 m 1xb0
 269 552 l 1
 60 255 l 1
 269 255 l 1xb0
EndSplineSet
KernsSLIF: 55 -16 1 0 49 -35 1 0 52 13 1 0
EndChar
StartChar: five
Encoding: 53 53 22
Width: 500
Flags: W
HStem: -8 148<84 169> 549 127<148 427>
VStem: 373 78<153 233>
DStem: 148 676 149 549 51 331 127 468
Fore
149 549 m 1
 127 468 l 1
 209 463 240 459 278 448 c 0
 387 417 451 337 451 233 c 0
 451 92 334 -8 169 -8 c 0
 80 -8 22 27 22 80 c 0
 22 115 48 140 84 140 c 0
 110 140 140 127 183 95 c 0
 223 65 250 53 273 53 c 0
 329 53 373 97 373 153 c 0
 373 219 320 276 231 304 c 0
 187 318 146 324 51 331 c 1
 148 676 l 1
 470 676 l 1
 427 549 l 1
 149 549 l 1
EndSplineSet
KernsSLIF: 55 -9 1 0 49 -28 1 0 52 1 1 0
EndChar
StartChar: six
Encoding: 54 54 23
Width: 500
Flags: W
HStem: -13 27<251 269> 376 45<233 288>
VStem: 28 156<242 275> 323 152<162 222>
Fore
470 688 m 1
 470 662 l 1
 324 632 241 551 204 404 c 1
 234 417 256 421 288 421 c 0
 402 421 475 343 475 222 c 0
 475 86 384 -13 260 -13 c 0
 120 -13 28 100 28 273 c 0
 28 406 87 518 199 595 c 0
 275 647 337 669 470 688 c 1
233 376 m 0
 219 376 205 372 197 366 c 0
 190 361 184 304 184 242 c 0
 184 149 194 76 211 43 c 0
 221 24 239 14 262 14 c 0
 311 14 323 44 323 162 c 0
 323 321 300 376 233 376 c 0
EndSplineSet
KernsSLIF: 55 -7 1 0 49 -43 1 0 52 13 1 0
EndChar
StartChar: seven
Encoding: 55 55 24
Width: 500
Flags: W
HStem: 0 21G<147 242> 539 137<61 347>
Fore
477 676 m 1
 242 0 l 1
 147 0 l 1
 347 539 l 1
 140 539 l 2
 85 539 61 518 42 454 c 1
 17 454 l 1
 61 676 l 1
 477 676 l 1
EndSplineSet
KernsSLIF: 50 -21 1 0 51 -20 1 0 54 -37 1 0 55 -6 1 0 46 -58 1 0 49 -25 1 0 52 -54 1 0 53 -34 1 0 56 -18 1 0 44 -57 1 0 58 -64 1 0
EndChar
StartChar: eight
Encoding: 56 56 25
Width: 500
Flags: W
HStem: -13 32<235 253> 659 29<238 265>
VStem: 28 121<146 163> 39 129<513 576> 333 139<127 187> 339 119<530 548>
Fore
178 324 m 1xe8
 79 383 39 438 39 513 c 0
 39 618 128 688 263 688 c 0
 382 688 458 632 458 543 c 0xd4
 458 479 418 438 322 404 c 1
 429 336 472 274 472 187 c 0
 472 67 379 -13 240 -13 c 0
 113 -13 28 55 28 157 c 0
 28 201 43 239 72 267 c 0
 98 292 121 305 178 324 c 1xe8
298 422 m 1
 331 466 339 489 339 536 c 0
 339 614 307 659 251 659 c 0
 204 659 168 623 168 576 c 0
 168 520 214 465 298 422 c 1
200 306 m 1
 160 247 149 216 149 161 c 0
 149 72 185 19 246 19 c 0
 300 19 333 60 333 127 c 0xe8
 333 201 309 233 200 306 c 1
EndSplineSet
KernsSLIF: 49 -19 1 0 52 11 1 0
EndChar
StartChar: nine
Encoding: 57 57 26
Width: 500
Flags: W
HStem: 254 45<208 263> 661 27<233 251>
VStem: 26 152<452 515> 317 156<402 458>
Fore
31 -13 m 1
 31 13 l 1
 175 42 256 121 299 273 c 1
 272 259 246 254 208 254 c 0
 99 254 26 334 26 452 c 0
 26 589 116 688 241 688 c 0
 381 688 473 575 473 402 c 0
 473 275 419 168 317 91 c 0
 239 32 171 7 31 -13 c 1
309 328 m 1
 312 354 l 1
 315 399 317 431 317 458 c 0
 317 529 307 599 292 627 c 0
 281 650 264 661 239 661 c 0
 190 661 178 631 178 515 c 0
 178 358 201 299 263 299 c 0
 278 299 297 303 304 308 c 0
 307 310 308 315 309 328 c 1
EndSplineSet
KernsSLIF: 55 10 1 0 49 -26 1 0 52 2 1 0
EndChar
StartChar: colon
Encoding: 58 58 27
Width: 333
Flags: W
HStem: -13 169<161 179> 303 169<166 179>
Fore
166 156 m 0
 213 156 251 117 251 70 c 0
 251 24 213 -13 165 -13 c 0
 118 -13 82 24 82 72 c 0
 82 117 120 156 166 156 c 0
166 472 m 0
 213 472 251 434 251 387 c 0
 251 341 213 303 166 303 c 0
 118 303 82 340 82 389 c 0
 82 434 120 472 166 472 c 0
EndSplineSet
EndChar
StartChar: semicolon
Encoding: 59 59 28
Width: 333
Flags: W
HStem: -6 161<151 165 165 180> 303 169<166 179>
Fore
100 -180 m 1
 89 -158 l 1
 164 -106 198 -64 198 -25 c 0
 198 -14 190 -4 180 -4 c 2
 173 -4 l 1
 161 -6 l 1
 153 -6 l 2
 141 -6 118 2 108 11 c 0
 91 25 82 46 82 72 c 0
 82 122 115 155 165 155 c 0
 225 155 266 108 266 39 c 0
 266 -47 216 -113 100 -180 c 1
166 472 m 0
 213 472 251 434 251 387 c 0
 251 341 213 303 166 303 c 0
 118 303 82 340 82 389 c 0
 82 434 120 472 166 472 c 0
EndSplineSet
EndChar
StartChar: less
Encoding: 60 60 29
Width: 570
Flags: W
DStem: 31 211 154 253 539 -12 539 84 539 518 539 422 31 295 154 253
Fore
539 -12 m 1
 31 211 l 1
 31 295 l 1
 539 518 l 1
 539 422 l 1
 154 253 l 1
 539 84 l 1
 539 -12 l 1
EndSplineSet
EndChar
StartChar: equal
Encoding: 61 61 30
Width: 570
Flags: W
HStem: 107 88<33 537> 311 88<33 537>
Fore
537 399 m 1
 537 311 l 1
 33 311 l 1
 33 399 l 1
 537 399 l 1
537 195 m 1
 537 107 l 1
 33 107 l 1
 33 195 l 1
 537 195 l 1
EndSplineSet
EndChar
StartChar: greater
Encoding: 62 62 31
Width: 570
Flags: W
DStem: 31 422 31 518 416 253 539 295 416 253 539 211 31 84 31 -12
Fore
31 -12 m 1
 31 84 l 1
 416 253 l 1
 31 422 l 1
 31 518 l 1
 539 295 l 1
 539 211 l 1
 31 -12 l 1
EndSplineSet
EndChar
StartChar: question
Encoding: 63 63 32
Width: 500
Flags: W
HStem: -13 169<239 250> 469 21G<105.5 144> 653 36<212 245>
VStem: 57 131<531 547> 221 32<231 277> 296 149<523 536>
Fore
253 231 m 1
 223 231 l 1
 221 261 221 266 221 277 c 0
 221 305 229 328 253 374 c 0
 286 436 296 471 296 523 c 0
 296 605 265 653 212 653 c 0
 176 653 151 637 151 613 c 0
 151 603 154 597 166 584 c 0
 183 565 188 553 188 533 c 0
 188 495 163 469 125 469 c 0
 86 469 57 501 57 545 c 0
 57 629 135 689 245 689 c 0
 365 689 445 623 445 523 c 0
 445 454 415 413 324 357 c 0
 261 318 253 304 253 231 c 1
239 156 m 0
 285 156 323 117 323 71 c 0
 323 24 286 -13 239 -13 c 0
 191 -13 154 24 154 72 c 0
 154 117 193 156 239 156 c 0
EndSplineSet
EndChar
StartChar: at
Encoding: 64 64 33
Width: 930
Flags: W
HStem: -19 46<475 509> 144 47<413 455> 652 39<475 509>
VStem: 108 92<316 350> 319 77<258 279> 775 47<380 406>
Fore
595 466 m 1
 606 506 l 1
 677 506 l 1
 611 246 l 1
 610 241 609 234 609 228 c 0
 609 197 622 180 647 180 c 0
 713 180 775 279 775 385 c 0
 775 529 642 652 486 652 c 0
 320 652 200 515 200 325 c 0
 200 151 324 27 499 27 c 0
 566 27 616 39 698 76 c 1
 711 41 l 1
 614 -5 561 -19 487 -19 c 0
 274 -19 108 134 108 330 c 0
 108 531 275 691 485 691 c 0
 675 691 822 560 822 390 c 0
 822 257 735 143 633 143 c 0
 583 143 546 173 539 218 c 1
 504 172 456 144 413 144 c 0
 360 144 319 194 319 259 c 0
 319 333 351 412 403 467 c 0
 435 500 478 519 522 519 c 0
 558 519 573 509 595 466 c 1
535 471 m 0
 510 473 476 453 448 420 c 0
 414 382 396 331 396 277 c 0
 396 224 419 191 455 191 c 0
 485 191 515 216 537 259 c 0
 558 300 575 361 577 406 c 0
 579 445 564 469 535 471 c 0
EndSplineSet
EndChar
StartChar: A
Encoding: 65 65 34
Width: 722
Flags: W
HStem: 0 25<197.25 212 680 689> 197 39<189 399> 670 20G<329 357>
DStem: 283 479 357 690 384 236 580 164 329 690 283 479 107 142 189 236 329 690 174 197 107 142 159 158
Fore
689 25 m 1
 689 0 l 1
 365 0 l 1
 365 25 l 1
 379 27 392 28 397 28 c 0
 432 30 445 40 445 61 c 0
 445 83 433 119 399 197 c 1
 174 197 l 1
 159 158 l 2
 138 104 130 79 130 66 c 0
 130 40 153 29 212 25 c 1
 212 0 l 1
 9 0 l 1
 9 25 l 1
 57 34 69 49 107 142 c 2
 329 690 l 1
 357 690 l 1
 580 164 l 2
 630 46 646 25 685 25 c 2
 689 25 l 1
189 236 m 1
 384 236 l 1
 283 479 l 1
 189 236 l 1
EndSplineSet
KernsSLIF: 121 -83 0 0 119 -79 0 0 118 -84 0 0 117 -30 0 0 116 -27 0 0 39 -108 0 0 186 -76 0 0 113 -38 0 0 111 -37 0 0 45 -30 0 0 172 -67 0 0 171 -53 0 0 103 -7 0 0 101 -32 0 0 100 -28 0 0 44 1 0 0 332 -43 0 0 99 -35 0 0 98 -22 0 0 97 -5 0 0 89 -74 0 0 87 -116 0 0 86 -130 0 0 300 -66 0 0 298 -66 0 0 301 -66 0 0 299 -66 0 0 85 -66 0 0 84 -59 0 0 81 -68 0 0 286 -68 0 0 79 -68 0 0 71 -68 0 0 264 -77 0 0 67 -73 0 0
EndChar
StartChar: B
Encoding: 66 66 35
Width: 667
Flags: W
HStem: 0 25<16 25.125> 0 32<316 340> 343 30<264 294> 646 30<16 327>
VStem: 104 160<79 343 96 597> 420 165<507 529> 447 172<175 193>
Fore
16 676 m 1xba
 325 676 l 2
 492 676 585 619 585 516 c 0xbc
 585 440 542 399 426 365 c 1
 496 350 530 335 565 305 c 0
 600 274 619 233 619 188 c 0
 619 75 507 0 338 0 c 2x7a
 16 0 l 1
 16 25 l 1
 89 33 104 45 104 96 c 2
 104 580 l 2
 104 631 85 647 16 651 c 1
 16 676 l 1xba
264 343 m 1
 264 93 l 2
 264 49 281 32 325 32 c 0
 406 32 447 82 447 179 c 0x7a
 447 289 397 343 294 343 c 2
 264 343 l 1
264 597 m 2
 264 373 l 1
 387 376 420 404 420 509 c 0x3c
 420 603 388 646 318 646 c 0
 279 646 264 633 264 597 c 2
EndSplineSet
KernsSLIF: 89 -44 0 0 87 -46 0 0 86 -45 0 0 233 -11 0 0 288 -12 0 0 286 -12 0 0 289 -12 0 0 287 -12 0 0 234 -4 0 0 79 -12 0 0 261 -34 0 0 262 -34 0 0 256 -34 0 0 259 -34 0 0 257 -34 0 0 225 -32 0 0 65 -34 0 0
EndChar
StartChar: C
Encoding: 67 67 36
Width: 722
Flags: W
HStem: -19 48<403 429> 658 33<395 418>
VStem: 49 177<316 350>
Fore
657 152 m 1
 687 127 l 1
 642 77 620 57 588 35 c 0
 533 -2 474 -19 403 -19 c 0
 196 -19 49 127 49 333 c 0
 49 537 198 691 397 691 c 0
 445 691 493 680 552 656 c 0
 574 646 589 642 598 642 c 0
 617 642 628 653 642 688 c 1
 669 688 l 1
 669 454 l 1
 644 454 l 1
 609 530 586 563 543 602 c 0
 500 640 457 658 410 658 c 0
 290 658 226 548 226 341 c 0
 226 241 240 169 269 116 c 0
 298 64 361 29 427 29 c 0
 455 29 488 35 517 47 c 0
 566 66 598 90 657 152 c 1
EndSplineSet
KernsSLIF: 286 -14 0 0 287 -14 0 0 79 -14 0 0 75 -6 0 0 72 -2 0 0 262 -25 0 0 256 -25 0 0 257 -25 0 0 225 -22 0 0 65 -25 0 0
EndChar
StartChar: D
Encoding: 68 68 37
Width: 724
Flags: W
HStem: 0 25<16 45> 0 35<303 337> 642 34<16 337> 651 25<16 26.6667>
VStem: 99 162<79 593> 518 174<319 369>
Fore
99 91 m 2x8c
 99 584 l 2
 99 630 80 645 16 651 c 1x9c
 16 676 l 1
 321 676 l 2
 552 676 692 551 692 345 c 0
 692 138 548 0 332 0 c 2x6c
 16 0 l 1
 16 25 l 1
 74 27 99 47 99 91 c 2x8c
261 607 m 2
 261 93 l 2
 261 48 274 35 319 35 c 0
 384 35 432 58 466 104 c 0
 498 149 518 235 518 330 c 0
 518 414 504 487 477 540 c 0
 443 609 392 642 320 642 c 0x6c
 281 642 261 630 261 607 c 2
EndSplineSet
KernsSLIF: 89 -59 0 0 88 -51 0 0 87 -50 0 0 86 -60 0 0 84 -7 0 0 74 -40 0 0 261 -55 0 0 262 -55 0 0 258 -55 0 0 256 -55 0 0 259 -55 0 0 257 -55 0 0 65 -55 0 0
EndChar
StartChar: E
Encoding: 69 69 38
Width: 667
Flags: W
HStem: 0 25<16 25.25> 329 34<266 294.006> 475 201<16 593> 642 34<16 369> 651 25<16 33.25>
VStem: 104 162<79 329 96 597>
Fore
593 676 m 1xe4
 593 475 l 1
 568 475 l 1xe4
 543 608 494 642 331 642 c 0xd4
 279 642 266 633 266 595 c 2
 266 363 l 1
 374 362 413 398 428 512 c 1
 454 512 l 1
 454 174 l 1
 428 174 l 1
 416 290 375 329 266 329 c 1
 266 87 l 2
 266 44 285 31 349 31 c 0
 425 31 480 47 526 84 c 0
 562 113 582 141 613 208 c 1
 641 208 l 1
 601 0 l 1
 16 0 l 1
 16 25 l 1
 90 33 104 44 104 96 c 2
 104 580 l 2
 104 631 85 647 16 651 c 1xcc
 16 676 l 1
 593 676 l 1xe4
EndSplineSet
EndChar
StartChar: F
Encoding: 70 70 39
Width: 611
Flags: W
HStem: 0 25<16 25.25 353 376> 329 34<266 287.279> 475 201<16 583> 642 34<16 353> 651 25<16 33.25>
VStem: 104 162<96 329 96 597>
Fore
583 676 m 1xe4
 583 475 l 1
 559 475 l 1xe4
 545 538 534 565 512 590 c 0
 481 625 422 642 330 642 c 0xd4
 279 642 266 632 266 595 c 2
 266 363 l 1
 366 363 401 398 419 512 c 1
 444 512 l 1
 444 174 l 1
 419 174 l 1
 405 290 368 327 266 329 c 1
 266 96 l 2
 266 41 284 29 376 25 c 1
 376 0 l 1
 16 0 l 1
 16 25 l 1
 90 33 104 44 104 96 c 2
 104 580 l 2
 104 632 85 647 16 651 c 1xcc
 16 676 l 1
 583 676 l 1xe4
EndSplineSet
KernsSLIF: 117 -10 0 0 114 -7 0 0 46 -60 0 0 249 -53 0 0 250 -51 0 0 351 -24 0 0 352 -54 0 0 111 -54 0 0 106 -26 0 0 105 -1 0 0 45 -34 0 0 335 -51 0 0 101 -51 0 0 44 -59 0 0 328 -50 0 0 241 -53 0 0 322 -22 0 0 323 -50 0 0 97 -50 0 0 286 -7 0 0 79 -7 0 0 74 -42 0 0 261 -79 0 0 262 -79 0 0 258 -79 0 0 256 -79 0 0 259 -79 0 0 257 -79 0 0 65 -79 0 0
EndChar
StartChar: G
Encoding: 71 71 40
Width: 778
Flags: W
HStem: -19 33<393 422> 262 25<412 429.2 745.625 755> 658 33<383 406>
VStem: 37 177<316 350> 513 156<74 194>
Fore
755 287 m 1
 755 262 l 1
 680 254 669 242 669 170 c 2
 669 43 l 1
 605 5 496 -19 393 -19 c 0
 183 -19 37 125 37 331 c 0
 37 537 186 691 385 691 c 0
 433 691 481 680 540 656 c 0
 562 646 577 642 586 642 c 0
 605 642 616 653 630 688 c 1
 657 688 l 1
 657 454 l 1
 632 454 l 1
 597 530 574 564 531 602 c 0
 487 640 444 658 398 658 c 0
 277 658 214 547 214 338 c 0
 214 218 235 132 279 76 c 0
 312 33 354 14 417 14 c 0
 484 14 513 36 513 87 c 2
 513 192 l 2
 513 246 498 257 412 262 c 1
 412 287 l 1
 755 287 l 1
EndSplineSet
KernsSLIF: 89 -33 0 0 87 -35 0 0 86 -33 0 0 84 -41 0 0 261 -27 0 0 262 -27 0 0 258 -27 0 0 256 -27 0 0 259 -27 0 0 257 -27 0 0 225 -24 0 0 65 -27 0 0
EndChar
StartChar: H
Encoding: 72 72 41
Width: 774
Flags: W
HStem: 0 25<16 23.7778 343.875 353 414 423.125 746 754> 326 47<263 504> 651 25<16 27.1667 339 353 414 428 740.4 754>
VStem: 101 162<96 326 96 593> 504 162<96 326 373 593>
Fore
504 326 m 1
 263 326 l 1
 263 96 l 2
 263 47 280 33 353 25 c 1
 353 0 l 1
 16 0 l 1
 16 25 l 1
 86 34 101 47 101 96 c 2
 101 580 l 2
 101 630 83 645 16 651 c 1
 16 676 l 1
 353 676 l 1
 353 651 l 1
 283 646 263 630 263 580 c 2
 263 373 l 1
 504 373 l 1
 504 580 l 2
 504 630 484 646 414 651 c 1
 414 676 l 1
 754 676 l 1
 754 651 l 1
 686 646 666 630 666 580 c 2
 666 96 l 2
 666 47 682 34 754 25 c 1
 754 0 l 1
 414 0 l 1
 414 25 l 1
 487 33 504 47 504 96 c 2
 504 326 l 1
EndSplineSet
EndChar
StartChar: I
Encoding: 73 73 42
Width: 386
Flags: W
HStem: 0 25<16 26.7143 350.8 366> 651 25<16 30.4 341.333 366>
VStem: 109 162<96 593>
Fore
109 96 m 2
 109 580 l 2
 109 631 88 646 16 651 c 1
 16 676 l 1
 366 676 l 1
 366 651 l 1
 292 648 271 632 271 580 c 2
 271 96 l 2
 271 44 290 30 366 25 c 1
 366 0 l 1
 16 0 l 1
 16 25 l 1
 91 32 109 46 109 96 c 2
EndSplineSet
EndChar
StartChar: J
Encoding: 74 74 43
Width: 500
Flags: W
HStem: -96 33<162 178> 651 25<127 154 464 479>
VStem: 3 116<-31 36> 3 143<22 38> 228 162<24 582>
Fore
390 559 m 2xe8
 390 123 l 2
 390 -20 316 -96 176 -96 c 0
 136 -96 96 -87 70 -73 c 0
 31 -50 3 -5 3 36 c 0xe8
 3 74 36 108 73 108 c 0
 112 108 146 73 146 33 c 0xd8
 146 18 143 10 131 -5 c 0
 122 -17 119 -23 119 -31 c 0
 119 -50 137 -63 164 -63 c 0
 209 -63 228 -38 228 24 c 2
 228 580 l 2
 228 634 208 648 127 651 c 1
 127 676 l 1
 479 676 l 1
 479 651 l 1
 404 646 390 631 390 559 c 2xe8
EndSplineSet
KernsSLIF: 262 -30 0 0 256 -30 0 0 225 -27 0 0 65 -30 0 0
EndChar
StartChar: K
Encoding: 75 75 44
Width: 764
Flags: W
HStem: 0 25<16 25 345 353 419 433 730 755> 651 25<16 33.25 339.2 354 433 450 709.875 722>
VStem: 103 162<96 292 96 582>
DStem: 292 317 401 424 474 90 706 46
Fore
755 25 m 1
 755 0 l 1
 419 0 l 1
 419 25 l 1
 433 26 446 26 451 26 c 0
 484 28 498 33 498 46 c 0
 498 57 493 66 474 90 c 2
 292 317 l 1
 265 292 l 1
 265 96 l 2
 265 47 281 34 353 25 c 1
 353 0 l 1
 16 0 l 1
 16 25 l 1
 88 33 103 45 103 96 c 2
 103 580 l 2
 103 632 85 647 16 651 c 1
 16 676 l 1
 354 676 l 1
 354 651 l 1
 280 646 265 630 265 559 c 2
 265 345 l 1
 482 563 l 2
 513 594 518 602 518 618 c 0
 518 638 505 646 469 648 c 0
 464 649 450 650 433 651 c 1
 433 676 l 1
 722 676 l 1
 722 651 l 1
 625 643 589 618 401 424 c 1
 706 46 l 1
 719 31 730 26 755 25 c 1
EndSplineSet
KernsSLIF: 121 -83 0 0 362 -18 0 0 117 -18 0 0 351 -25 0 0 352 -25 0 0 111 -25 0 0 45 -47 0 0 101 -20 0 0 328 6 0 0 241 3 0 0 322 6 0 0 97 6 0 0 84 -2 0 0 83 13 0 0 286 -56 0 0 287 -56 0 0 234 -46 0 0 79 -56 0 0 71 -56 0 0 67 -61 0 0
EndChar
StartChar: L
Encoding: 76 76 45
Width: 664
Flags: W
HStem: 0 25<16 24.1111> 651 25<16 33 343.25 365>
VStem: 102 162<79 582>
Fore
635 227 m 1
 594 0 l 1
 16 0 l 1
 16 25 l 1
 89 34 102 45 102 96 c 2
 102 580 l 2
 102 631 84 647 16 651 c 1
 16 676 l 1
 365 676 l 1
 365 651 l 1
 278 647 264 634 264 559 c 2
 264 87 l 2
 264 44 283 31 344 31 c 0
 421 31 477 49 518 86 c 0
 553 118 573 149 606 227 c 1
 635 227 l 1
EndSplineSet
KernsSLIF: 121 -49 0 0 362 -12 0 0 117 -11 0 0 39 -69 0 0 186 -37 0 0 45 24 0 0 89 -89 0 0 87 -87 0 0 86 -106 0 0 298 -29 0 0 85 -29 0 0 84 -74 0 0 83 2 0 0 290 -5 0 0 288 -5 0 0 286 -5 0 0 289 -5 0 0 287 -5 0 0 79 -5 0 0 71 -5 0 0 264 -14 0 0 67 -11 0 0 262 -1 0 0 256 -1 0 0 257 -1 0 0 225 1 0 0 65 -1 0 0
EndChar
StartChar: M
Encoding: 77 77 46
Width: 943
Flags: W
HStem: 0 25<16 25.75 236.333 250 591 601.714 915.2 923> 651 25<18 30.1667 908.4 923>
VStem: 107 42<98 593> 680 155<95 582>
DStem: 149 594 271 676 401 0 471 204 671 676 680 609 471 204 428 0
Fore
680 609 m 1
 428 0 l 1
 401 0 l 1
 149 594 l 1
 149 124 l 2
 149 50 168 31 250 25 c 1
 250 0 l 1
 16 0 l 1
 16 25 l 1
 94 33 107 45 107 105 c 2
 107 580 l 2
 107 632 91 645 18 651 c 1
 18 676 l 1
 271 676 l 1
 471 204 l 1
 671 676 l 1
 923 676 l 1
 923 651 l 1
 850 646 835 631 835 559 c 2
 835 117 l 2
 835 46 845 35 923 25 c 1
 923 0 l 1
 591 0 l 1
 591 25 l 1
 666 32 680 44 680 100 c 2
 680 609 l 1
EndSplineSet
EndChar
StartChar: N
Encoding: 78 78 47
Width: 722
Flags: W
HStem: 0 25<16 24.1111 234.444 243> 651 25<19 19 486 496.571>
VStem: 104 44<103 526> 579 44<247 575>
DStem: 148 526 230 676 595 -18 579 247
Fore
230 676 m 1
 579 247 l 1
 579 552 l 2
 579 623 560 644 486 651 c 1
 486 676 l 1
 701 676 l 1
 701 651 l 1
 636 641 623 628 623 571 c 2
 623 -18 l 1
 595 -18 l 1
 148 526 l 1
 148 124 l 2
 148 53 166 34 243 25 c 1
 243 0 l 1
 16 0 l 1
 16 25 l 1
 89 34 104 48 104 105 c 2
 104 579 l 1
 56 636 39 651 19 651 c 1
 19 676 l 1
 230 676 l 1
EndSplineSet
KernsSLIF: 362 -17 0 0 117 -17 0 0 249 -15 0 0 351 -16 0 0 352 -16 0 0 111 -16 0 0 335 -13 0 0 101 -13 0 0 44 1 0 0 328 -16 0 0 241 -18 0 0 322 -16 0 0 323 -16 0 0 97 -16 0 0 286 -15 0 0 287 -15 0 0 79 -15 0 0 71 -16 0 0 264 -22 0 0 67 -22 0 0 262 -19 0 0 256 -19 0 0 257 -19 0 0 225 -16 0 0 65 -19 0 0
EndChar
StartChar: O
Encoding: 79 79 48
Width: 778
Flags: W
HStem: -19 33<389 404> 658 33<386 404>
VStem: 35 177<316 350> 566 177<316 350>
Fore
393 691 m 0
 594 691 743 540 743 336 c 0
 743 129 596 -19 389 -19 c 0
 182 -19 35 128 35 335 c 0
 35 543 184 691 393 691 c 0
392 658 m 0
 275 658 212 542 212 326 c 0
 212 124 274 14 389 14 c 0
 504 14 566 124 566 329 c 0
 566 537 502 658 392 658 c 0
EndSplineSet
KernsSLIF: 89 -59 0 0 88 -51 0 0 87 -54 0 0 86 -60 0 0 84 -9 0 0 262 -55 0 0 256 -55 0 0 257 -55 0 0 225 -54 0 0 65 -55 0 0
EndChar
StartChar: P
Encoding: 80 80 49
Width: 611
Flags: W
HStem: 0 25<342.1 350> 303 35<262 302.264> 641 35<16 321> 651 25<16 27.6667>
VStem: 100 162<117 303 117 606> 428 172<479 513>
Fore
262 303 m 1xdc
 262 117 l 2
 262 44 271 35 350 25 c 1
 350 0 l 1
 16 0 l 1
 16 25 l 1
 27 27 37 29 40 29 c 0
 87 35 100 55 100 117 c 2
 100 559 l 2
 100 629 86 645 16 651 c 1xdc
 16 676 l 1xec
 338 676 l 2
 505 676 600 610 600 494 c 0
 600 417 556 356 475 325 c 0
 431 307 397 304 262 303 c 1xdc
262 606 m 2
 262 338 l 1
 333 338 366 345 390 365 c 0
 416 388 428 426 428 489 c 0
 428 597 395 641 312 641 c 0xec
 279 641 262 629 262 606 c 2
EndSplineSet
KernsSLIF: 46 -86 0 0 249 -33 0 0 250 -30 0 0 351 -22 0 0 352 -33 0 0 111 -33 0 0 45 -39 0 0 335 -29 0 0 101 -29 0 0 44 -85 0 0 328 -19 0 0 241 -22 0 0 322 -19 0 0 323 -19 0 0 97 -19 0 0 74 -68 0 0 262 -81 0 0 256 -81 0 0 257 -81 0 0 225 -94 0 0 65 -81 0 0
EndChar
StartChar: Q
Encoding: 81 81 50
Width: 778
Flags: W
HStem: -176 47<557 663> 658 33<372.032 404>
VStem: 35 177<331 353> 566 177<319 353>
Fore
730 -117 m 1
 736 -141 l 1
 661 -168 618 -176 557 -176 c 0
 469 -176 385 -144 329 -88 c 0
 306 -65 294 -46 273 -2 c 1
 197 26 165 46 124 92 c 0
 66 156 35 240 35 331 c 0
 35 539 185 691 389 691 c 0
 595 691 743 542 743 334 c 0
 743 237 710 151 649 86 c 0
 606 40 571 20 490 -6 c 1
 508 -43 518 -58 537 -77 c 0
 571 -111 616 -129 663 -129 c 0
 682 -129 698 -126 730 -117 c 1
390 658 m 0
 276 658 212 541 212 331 c 0
 212 123 273 14 389 14 c 0
 504 14 566 124 566 330 c 0
 566 538 502 658 390 658 c 0
EndSplineSet
EndChar
StartChar: R
Encoding: 82 82 51
Width: 712
Flags: W
HStem: 0 25<16 24.6667 346.2 354 693.125 704.984> 313 32<266 293> 642 34<16 341> 651 25<16 30.8>
VStem: 104 162<117 313 117 600> 449 171<479 513>
Fore
705 25 m 1xec
 705 0 l 1
 500 0 l 1
 293 313 l 1
 266 313 l 1
 266 117 l 2
 266 46 276 35 354 25 c 1
 354 0 l 1
 16 0 l 1
 16 25 l 1
 94 34 104 44 104 117 c 2
 104 559 l 2
 104 631 90 646 16 651 c 1xdc
 16 676 l 1
 338 676 l 2
 521 676 620 613 620 498 c 0
 620 453 604 413 575 386 c 0
 547 361 522 348 463 329 c 1
 664 44 l 1
 674 31 687 25 705 25 c 1xec
266 600 m 2
 266 345 l 1
 342 346 376 353 402 370 c 0
 434 391 449 430 449 494 c 0
 449 599 412 642 320 642 c 0xec
 295 642 279 637 273 627 c 0
 270 621 266 606 266 600 c 2
EndSplineSet
KernsSLIF: 121 -27 0 0 362 -17 0 0 363 -17 0 0 117 -17 0 0 250 -21 0 0 351 -24 0 0 352 -24 0 0 111 -24 0 0 45 -30 0 0 335 -19 0 0 101 -19 0 0 328 7 0 0 241 4 0 0 322 7 0 0 323 7 0 0 97 7 0 0 89 -53 0 0 87 -55 0 0 86 -53 0 0 298 -37 0 0 85 -37 0 0 84 -26 0 0 286 -29 0 0 287 -29 0 0 234 -22 0 0 79 -29 0 0 71 -30 0 0 264 -37 0 0 67 -36 0 0
EndChar
StartChar: S
Encoding: 83 83 52
Width: 556
Flags: W
HStem: -19 33<254 284> 475 21G<456 484> 660 31<263 276>
VStem: 44 109<488 560> 394 119<128 192>
Fore
484 475 m 1
 456 475 l 1
 436 540 420 569 386 604 c 0
 350 641 308 660 263 660 c 0
 195 660 153 622 153 560 c 0
 153 512 175 487 256 447 c 2
 403 374 l 2
 467 342 513 267 513 192 c 0
 513 66 413 -19 265 -19 c 0
 222 -19 185 -12 135 5 c 0
 113 12 102 15 94 15 c 0
 78 15 70 6 64 -19 c 1
 35 -19 l 1
 35 228 l 1
 64 228 l 1
 81 158 95 125 122 88 c 0
 160 39 210 14 268 14 c 0
 345 14 394 59 394 128 c 0
 394 180 370 206 282 248 c 2
 215 280 l 2
 96 337 44 400 44 488 c 0
 44 614 127 691 263 691 c 0
 301 691 333 685 380 669 c 0
 402 661 413 658 422 658 c 0
 439 658 447 666 454 692 c 1
 484 692 l 1
 484 475 l 1
EndSplineSet
KernsSLIF: 116 -10 0 0 89 -8 0 0 87 -10 0 0 86 -9 0 0 84 -16 0 0 262 -24 0 0 256 -24 0 0 257 -24 0 0 225 -21 0 0 65 -24 0 0
EndChar
StartChar: T
Encoding: 84 84 53
Width: 667
Flags: W
HStem: 0 25<156 168.286 498.5 513> 475 201<33 60 34 636>
VStem: 253 162<117 644>
Fore
253 117 m 2
 253 644 l 1
 129 640 77 594 60 475 c 1
 31 475 l 1
 34 676 l 1
 634 676 l 1
 636 475 l 1
 607 475 l 1
 590 594 538 640 415 644 c 1
 415 117 l 2
 415 41 426 31 513 25 c 1
 513 0 l 1
 156 0 l 1
 156 25 l 1
 242 32 253 43 253 117 c 2
EndSplineSet
KernsSLIF: 121 -104 0 0 119 -107 0 0 118 -106 0 0 117 -89 0 0 59 -85 0 0 115 -59 0 0 114 -61 0 0 46 -64 0 0 249 -87 0 0 111 -88 0 0 106 -40 0 0 105 -16 0 0 45 -73 0 0 172 -113 0 0 171 -99 0 0 103 -68 0 0 101 -85 0 0 44 -63 0 0 58 -85 0 0 99 -88 0 0 241 -69 0 0 97 -65 0 0 89 11 0 0 87 9 0 0 86 11 0 0 83 -2 0 0 290 -9 0 0 233 -11 0 0 288 -9 0 0 286 -9 0 0 289 -9 0 0 287 -9 0 0 234 -3 0 0 79 -9 0 0 74 -43 0 0 71 -11 0 0 67 -17 0 0 261 -46 0 0 262 -46 0 0 258 -46 0 0 256 -46 0 0 259 -46 0 0 257 -46 0 0 225 -44 0 0 65 -46 0 0
EndChar
StartChar: U
Encoding: 85 85 54
Width: 722
Flags: W
HStem: -19 49<365 404> 651 25<16 26 330 354 481 494>
VStem: 98 159<225 574> 579 44<247 574>
Fore
623 566 m 2
 623 247 l 2
 623 154 597 78 552 40 c 0
 509 3 439 -19 365 -19 c 0
 292 -19 228 -1 180 34 c 0
 119 78 98 127 98 225 c 2
 98 559 l 2
 98 631 86 644 16 651 c 1
 16 676 l 1
 354 676 l 1
 354 651 l 1
 306 649 290 645 278 635 c 0
 263 621 257 599 257 559 c 2
 257 225 l 2
 257 89 302 30 404 30 c 0
 523 30 579 99 579 247 c 2
 579 552 l 2
 579 625 559 645 481 651 c 1
 481 676 l 1
 701 676 l 1
 701 651 l 1
 637 641 623 625 623 566 c 2
EndSplineSet
KernsSLIF: 114 -29 0 0 46 -18 0 0 112 -28 0 0 110 -25 0 0 109 -23 0 0 44 -17 0 0 261 -54 0 0 262 -54 0 0 256 -54 0 0 259 -54 0 0 257 -54 0 0 225 -52 0 0 65 -54 0 0
EndChar
StartChar: V
Encoding: 86 86 55
Width: 722
Flags: W
HStem: -18 21G<356 383> 649 27<16 337.494>
DStem: 100 581 289 541 356 -18 427 207 554 536 611 569 427 207 383 -18
Fore
701 676 m 1
 701 651 l 1
 649 644 635 631 611 569 c 2
 383 -18 l 1
 356 -18 l 1
 100 581 l 1
 75 636 66 644 16 651 c 1
 16 676 l 1
 352 676 l 1
 352 651 l 1
 337 650 324 649 319 649 c 0
 281 647 266 636 266 613 c 0
 266 598 270 586 289 541 c 2
 427 207 l 1
 554 536 l 2
 571 579 574 591 574 607 c 0
 574 639 559 646 488 651 c 1
 488 676 l 1
 701 676 l 1
EndSplineSet
KernsSLIF: 121 -56 0 0 117 -58 0 0 59 -94 0 0 114 -60 0 0 46 -95 0 0 249 -87 0 0 111 -89 0 0 105 -13 0 0 45 -68 0 0 172 -112 0 0 171 -98 0 0 103 -86 0 0 101 -86 0 0 44 -94 0 0 58 -94 0 0 241 -90 0 0 97 -87 0 0 84 8 0 0 83 -25 0 0 290 -63 0 0 233 -65 0 0 288 -63 0 0 286 -63 0 0 289 -63 0 0 287 -63 0 0 79 -63 0 0 71 -64 0 0 67 -70 0 0 261 -113 0 0 262 -113 0 0 258 -113 0 0 256 -113 0 0 259 -113 0 0 257 -113 0 0 225 -113 0 0 65 -113 0 0
EndChar
StartChar: W
Encoding: 87 87 56
Width: 1000
Flags: W
HStem: -15 21G<300 328 685 712> 650 26<387 698.992>
DStem: 88 587 256 576 300 -15 376 212 494 520 514 462 376 212 328 -15 861 565 912 587 749 222 712 -15
Fore
981 676 m 1
 981 651 l 1
 948 648 925 627 912 587 c 2
 712 -15 l 1
 685 -15 l 1
 514 462 l 1
 328 -15 l 1
 300 -15 l 1
 88 587 l 2
 71 636 61 645 19 651 c 1
 19 676 l 1
 313 676 l 1
 313 651 l 1
 261 647 249 638 249 609 c 0
 249 600 251 592 256 576 c 2
 376 212 l 1
 494 520 l 1
 459 616 l 1
 448 640 428 649 387 651 c 1
 387 676 l 1
 699 676 l 1
 699 651 l 1
 693 650 688 650 686 650 c 0
 642 647 627 638 627 614 c 0
 627 605 631 590 641 558 c 2
 749 222 l 1
 861 565 l 1
 866 579 868 594 868 607 c 0
 868 638 853 648 799 651 c 1
 799 676 l 1
 981 676 l 1
EndSplineSet
KernsSLIF: 121 -44 0 0 117 -45 0 0 59 -80 0 0 114 -49 0 0 46 -73 0 0 249 -69 0 0 111 -70 0 0 105 -12 0 0 45 -49 0 0 172 -93 0 0 171 -79 0 0 103 -70 0 0 101 -67 0 0 44 -72 0 0 58 -81 0 0 241 -73 0 0 97 -70 0 0 84 9 0 0 83 -24 0 0 290 -51 0 0 233 -50 0 0 288 -51 0 0 286 -51 0 0 289 -51 0 0 287 -51 0 0 79 -51 0 0 71 -52 0 0 67 -58 0 0 261 -98 0 0 262 -98 0 0 258 -98 0 0 256 -98 0 0 259 -98 0 0 257 -98 0 0 225 -102 0 0 65 -98 0 0
EndChar
StartChar: X
Encoding: 88 88 57
Width: 722
Flags: W
HStem: 0 25<16 24.3333 255.833 266 359 372 665 699> 649 27<17 349.492>
DStem: 97 593 299 581 295 302 396 431 295 302 317 271 120 81 279 220 317 271 420 394 418 109 602 111
Fore
688 676 m 1
 688 651 l 1
 614 644 588 625 500 505 c 1
 420 394 l 1
 602 111 l 1
 650 39 665 26 699 25 c 1
 699 0 l 1
 359 0 l 1
 359 25 l 1
 372 26 383 27 387 27 c 0
 422 29 439 38 439 55 c 0
 439 66 430 90 418 109 c 2
 317 271 l 1
 279 220 l 2
 205 120 185 88 185 66 c 0
 185 41 205 31 266 25 c 1
 266 0 l 1
 16 0 l 1
 16 25 l 1
 66 31 90 44 120 81 c 2
 295 302 l 1
 97 593 l 2
 66 638 53 648 17 651 c 1
 17 676 l 1
 363 676 l 1
 363 651 l 1
 349 650 337 649 332 649 c 0
 296 647 284 639 284 618 c 0
 284 606 286 601 299 581 c 2
 396 431 l 1
 421 466 444 498 452 508 c 0
 499 572 510 593 510 614 c 0
 510 638 498 647 458 649 c 0
 455 650 447 650 438 651 c 1
 438 676 l 1
 688 676 l 1
EndSplineSet
KernsSLIF: 121 -90 0 0 117 -25 0 0 111 -32 0 0 45 -43 0 0 101 -27 0 0 81 -57 0 0 286 -56 0 0 79 -56 0 0 67 -63 0 0
EndChar
StartChar: Y
Encoding: 89 89 58
Width: 722
Flags: W
HStem: 0 25<185 195.25 521.75 532> 650 26<15 326>
VStem: 278 162<117 264>
DStem: 95 596 293 561 278 264 413 329 524 514 631 612 413 329 440 301
Fore
699 676 m 1
 699 651 l 1
 665 646 646 635 631 612 c 1
 440 301 l 1
 440 117 l 2
 440 43 450 33 532 25 c 1
 532 0 l 1
 185 0 l 1
 185 25 l 1
 267 33 278 44 278 117 c 2
 278 264 l 1
 95 596 l 1
 75 630 49 649 15 651 c 1
 15 676 l 1
 350 676 l 1
 350 651 l 1
 325 650 l 2
 284 650 269 642 269 620 c 0
 269 609 273 598 287 573 c 2
 287 573 292 564 293 561 c 1
 413 329 l 1
 524 514 l 2
 549 555 563 590 563 609 c 0
 563 638 546 646 479 651 c 1
 479 676 l 1
 699 676 l 1
EndSplineSet
KernsSLIF: 118 -78 0 0 117 -76 0 0 59 -103 0 0 46 -81 0 0 112 -72 0 0 249 -95 0 0 111 -96 0 0 105 -14 0 0 45 -87 0 0 172 -125 0 0 171 -111 0 0 103 -86 0 0 101 -93 0 0 44 -80 0 0 58 -103 0 0 241 -87 0 0 97 -83 0 0 84 7 0 0 83 -26 0 0 290 -64 0 0 233 -68 0 0 288 -64 0 0 286 -64 0 0 289 -64 0 0 287 -64 0 0 79 -64 0 0 71 -65 0 0 67 -71 0 0 261 -64 0 0 262 -64 0 0 258 -64 0 0 256 -64 0 0 259 -64 0 0 257 -64 0 0 225 -62 0 0 65 -64 0 0
EndChar
StartChar: Z
Encoding: 90 90 59
Width: 667
Flags: W
HStem: 0 35<225 608> 470 21G<59 87> 638 38<80 327>
DStem: 410 641 604 660 28 16 225 35
Fore
634 241 m 1
 608 0 l 1
 28 0 l 1
 28 16 l 1
 410 641 l 1
 373 640 339 639 327 638 c 1
 179 640 135 609 87 470 c 1
 59 470 l 1
 80 676 l 1
 604 676 l 1
 604 660 l 1
 225 35 l 1
 299 35 l 2
 395 35 477 50 511 74 c 0
 558 107 581 147 608 241 c 1
 634 241 l 1
EndSplineSet
KernsSLIF: 121 -44 0 0 118 -45 0 0
EndChar
StartChar: bracketleft
Encoding: 91 91 60
Width: 333
Flags: W
HStem: -149 33<210 301> 645 33<67 301>
VStem: 67 104<-149 588>
Fore
301 -116 m 1
 301 -149 l 1
 67 -149 l 1
 67 678 l 1
 301 678 l 1
 301 645 l 1
 238 645 l 2
 182 645 171 633 171 575 c 2
 171 -63 l 2
 171 -106 180 -116 221 -116 c 2
 301 -116 l 1
EndSplineSet
EndChar
StartChar: backslash
Encoding: 92 92 61
Width: 278
Flags: W
HStem: -19 21G<211 303> 671 20G<-25 68>
DStem: -25 691 68 691 211 -19 303 -19
Fore
211 -19 m 1
 -25 691 l 1
 68 691 l 1
 303 -19 l 1
 211 -19 l 1
EndSplineSet
EndChar
StartChar: bracketright
Encoding: 93 93 62
Width: 333
Flags: W
HStem: -149 33<32 266> 645 33<32 114>
VStem: 162 104<-84.5154 588>
Fore
32 -149 m 1
 32 -116 l 1
 112 -116 l 2
 154 -116 162 -107 162 -63 c 2
 162 575 l 2
 162 633 151 645 95 645 c 2
 32 645 l 1
 32 678 l 1
 266 678 l 1
 266 -149 l 1
 32 -149 l 1
EndSplineSet
EndChar
StartChar: asciicircum
Encoding: 94 94 63
Width: 581
Flags: W
HStem: 656 20G<251 331>
DStem: 251 676 291 583 73 311 162 311 291 583 331 676 420 311 509 311
Fore
162 311 m 1
 73 311 l 1
 251 676 l 1
 331 676 l 1
 509 311 l 1
 420 311 l 1
 291 583 l 1
 162 311 l 1
EndSplineSet
EndChar
StartChar: underscore
Encoding: 95 95 64
Width: 500
Flags: W
HStem: -125 50<0 500>
Fore
500 -125 m 1
 0 -125 l 1
 0 -75 l 1
 500 -75 l 1
 500 -125 l 1
EndSplineSet
EndChar
StartChar: quoteleft
Encoding: 96 8216 65
Width: 333
Flags: W
Fore
236 691 m 1
 247 669 l 1
 172 617 138 575 138 536 c 0
 138 524 146 515 157 515 c 0
 159 515 161 515 164 516 c 0
 170 517 176 517 181 517 c 0
 224 517 254 485 254 439 c 0
 254 389 221 356 171 356 c 0
 111 356 70 403 70 472 c 0
 70 558 120 624 236 691 c 1
EndSplineSet
KernsSLIF: 89 -17 1 0 87 -19 1 0 86 -17 1 0 84 -22 1 0 262 -92 1 0 256 -92 1 0 257 -92 1 0 225 -111 1 0 65 -92 1 0
EndChar
StartChar: a
Encoding: 97 97 66
Width: 500
Flags: W
HStem: -14 64<376 452> 441 32<208 233>
VStem: 25 146<92 124> 44 133<334 349> 293 138<99 353>
Fore
473 64 m 1xd8
 488 43 l 1
 450 2 419 -14 376 -14 c 0
 327 -14 305 5 294 56 c 1
 239 6 193 -14 136 -14 c 0
 72 -14 25 31 25 92 c 0xe8
 25 135 46 169 89 199 c 0
 126 224 175 244 294 280 c 1
 294 353 l 2
 294 414 268 441 210 441 c 0
 175 441 147 425 147 404 c 0
 147 398 150 392 159 382 c 0
 171 366 177 353 177 339 c 0
 177 305 149 281 109 281 c 0
 68 281 44 306 44 347 c 0
 44 422 120 473 233 473 c 0
 355 473 431 420 431 336 c 2
 431 75 l 2
 431 59 438 50 452 50 c 0
 457 50 460 51 463 54 c 2
 473 64 l 1xd8
293 100 m 1
 293 245 l 1
 213 224 171 182 171 124 c 0
 171 84 192 57 222 57 c 0
 246 57 266 69 293 100 c 1
EndSplineSet
KernsSLIF: 121 -44 0 0 119 -40 0 0 118 -39 0 0 39 -34 0 0 106 -39 0 0
EndChar
StartChar: b
Encoding: 98 98 67
Width: 556
Flags: W
HStem: -14 32<278 295> 419 54<281 333> 656 20G<17 211>
VStem: 72 139<-13 360 -13 676> 374 147<219 259>
Fore
211 676 m 1
 211 417 l 1
 248 456 285 473 333 473 c 0
 444 473 521 377 521 239 c 0
 521 90 428 -14 295 -14 c 0
 245 -14 209 2 163 43 c 1
 84 -13 l 1
 72 -13 l 1
 72 594 l 2
 72 634 63 643 17 652 c 1
 17 676 l 1
 211 676 l 1
211 360 m 1
 211 97 l 2
 211 49 238 18 280 18 c 0
 344 18 374 83 374 221 c 0
 374 352 343 419 281 419 c 0
 248 419 228 403 211 360 c 1
EndSplineSet
KernsSLIF: 121 -42 0 0 119 -40 0 0 118 -39 0 0
EndChar
StartChar: c
Encoding: 99 99 68
Width: 444
Flags: W
HStem: -14 67<239 308> 442 31<238 261>
VStem: 25 141<223 276> 292 124<361 374>
Fore
412 109 m 1
 430 91 l 1
 372 17 316 -14 239 -14 c 0
 115 -14 25 85 25 223 c 0
 25 367 125 473 261 473 c 0
 349 473 416 425 416 363 c 0
 416 324 390 300 348 300 c 0
 311 300 293 323 292 372 c 0
 292 414 292 414 287 423 c 0
 281 434 266 442 250 442 c 0
 198 442 166 379 166 276 c 0
 166 140 221 53 308 53 c 0
 349 53 375 67 412 109 c 1
EndSplineSet
KernsSLIF: 107 -18 0 0 104 -17 0 0
EndChar
StartChar: d
Encoding: 100 100 69
Width: 556
Flags: W
HStem: -14 56<206 251> 417 56<217 258> 652 24<260 273.4>
VStem: 25 148<209 243> 336 139<110 676>
Fore
339 -13 m 1
 339 52 l 1
 292 2 259 -14 206 -14 c 0
 101 -14 25 85 25 221 c 0
 25 366 107 473 217 473 c 0
 263 473 293 457 336 411 c 1
 336 594 l 2
 336 640 327 647 260 652 c 1
 260 676 l 1
 475 676 l 1
 475 101 l 2
 475 59 488 46 534 43 c 1
 534 20 l 1
 472 12 l 2
 410 5 385 0 339 -13 c 1
336 112 m 2
 336 355 l 1
 322 393 291 417 258 417 c 0
 200 417 173 358 173 229 c 0
 173 102 198 42 251 42 c 0
 273 42 294 53 314 76 c 0
 326 89 336 106 336 112 c 2
EndSplineSet
EndChar
StartChar: e
Encoding: 101 101 70
Width: 444
Flags: W
HStem: -14 72<231 288> 245 37<164 421> 442 31<234 236>
Fore
402 125 m 1
 426 111 l 1
 361 18 312 -14 231 -14 c 0
 107 -14 25 82 25 228 c 0
 25 374 109 473 234 473 c 0
 289 473 335 453 368 414 c 0
 400 376 415 329 421 245 c 1
 169 245 l 1
 173 176 181 143 199 111 c 0
 220 76 249 58 288 58 c 0
 331 58 362 76 402 125 c 1
164 282 m 1
 298 282 l 1
 298 297 l 1
 296 348 294 376 289 395 c 0
 281 426 262 442 234 442 c 0
 185 442 167 402 164 282 c 1
EndSplineSet
KernsSLIF: 121 -31 0 0 120 -19 0 0 119 -30 0 0 118 -29 0 0 116 -10 0 0 39 -19 0 0
EndChar
StartChar: f
Encoding: 102 102 71
Width: 333
Flags: W
HStem: 0 24<14 23.2 257 292> 417 44<14 71 210 297> 660 31<246 269>
VStem: 71 139<79 417 461 509.51> 267 122<581 593>
Fore
71 417 m 1
 14 417 l 1
 14 461 l 1
 71 461 l 1
 71 547 78 588 100 623 c 0
 127 667 179 691 246 691 c 0
 330 691 389 650 389 591 c 0
 389 554 364 529 327 529 c 0
 293 529 267 553 267 584 c 0
 267 594 271 605 280 620 c 0
 286 630 289 637 289 641 c 0
 289 653 278 660 260 660 c 0
 225 660 210 638 210 583 c 2
 210 461 l 1
 297 461 l 1
 297 417 l 1
 210 417 l 1
 210 103 l 2
 210 38 222 26 292 24 c 1
 292 0 l 1
 14 0 l 1
 14 24 l 1
 60 29 71 41 71 84 c 2
 71 417 l 1
EndSplineSet
KernsSLIF: 116 -3 0 0 115 -8 0 0 39 18 0 0 249 -31 0 0 250 -29 0 0 351 11 0 0 352 -32 0 0 111 -32 0 0 108 33 0 0 106 -1 0 0 105 22 0 0 102 12 0 0 335 -29 0 0 101 -29 0 0 328 -15 0 0 241 -21 0 0 322 14 0 0 323 -17 0 0 97 -17 0 0
EndChar
StartChar: g
Encoding: 103 103 72
Width: 500
Flags: W
HStem: -206 32<220 267> -52 120<219 333> 154 28<227 267> 398 53<352 482> 442 31<240 252>
VStem: 28 88<-116 -102> 37 137<298 323> 306 135<289 315> 404 79<-102 -55>
Fore
482 398 m 1xf2
 401 398 l 1
 429 370 441 340 441 300 c 0xf3
 441 247 418 206 373 180 c 0
 339 160 314 154 267 154 c 2
 222 155 l 2
 182 155 154 133 154 103 c 0
 154 75 174 68 254 68 c 2
 319 68 l 2
 421 68 483 22 483 -55 c 0
 483 -154 395 -206 229 -206 c 0
 103 -206 28 -172 28 -114 c 0xf480
 28 -73 61 -48 124 -39 c 1
 60 -16 42 2 42 43 c 0
 42 95 82 133 161 160 c 1
 114 180 95 193 73 217 c 1
 50 245 37 278 37 312 c 0
 37 407 121 473 240 473 c 0xea
 280 473 308 467 352 451 c 1
 482 451 l 1
 482 398 l 1xf2
324 -52 m 2
 151 -52 l 1
 123 -75 116 -86 116 -107 c 0
 116 -151 162 -174 250 -174 c 0
 349 -174 404 -148 404 -102 c 0xe480
 404 -69 378 -52 324 -52 c 2
240 442 m 0xeb
 193 442 174 405 174 311 c 0
 174 218 192 182 240 182 c 0
 287 182 306 218 306 311 c 0
 306 404 287 442 240 442 c 0xeb
EndSplineSet
KernsSLIF: 114 1 0 0 351 -20 0 0 352 -20 0 0 335 -20 0 0 101 -20 0 0 328 -15 0 0 241 -18 0 0 322 -15 0 0 97 -15 0 0
EndChar
StartChar: h
Encoding: 104 104 73
Width: 556
Flags: W
HStem: 0 24<249.6 257 299 307.5 522 534> 406 67<294 350> 656 20G<16 208>
VStem: 69 139<64.7025 350 84 676> 346 139<65.8549 337>
Fore
208 676 m 1
 208 395 l 1
 260 453 297 473 350 473 c 0
 432 473 485 418 485 332 c 2
 485 84 l 2
 485 42 498 27 534 24 c 1
 534 0 l 1
 299 0 l 1
 299 24 l 1
 333 28 346 44 346 81 c 2
 346 323 l 2
 346 379 329 406 294 406 c 0
 271 406 247 394 225 371 c 1
 215 362 208 352 208 348 c 2
 208 81 l 2
 208 44 220 29 257 24 c 1
 257 0 l 1
 16 0 l 1
 16 24 l 1
 61 33 69 42 69 84 c 2
 69 594 l 2
 69 635 62 643 16 652 c 1
 16 676 l 1
 208 676 l 1
EndSplineSet
KernsSLIF: 121 -34 0 0 39 -30 0 0
EndChar
StartChar: i
Encoding: 105 105 74
Width: 278
Flags: W
HStem: 0 21G<16 255> 441 20G<16 208> 536 155<127 145>
VStem: 69 139<64.2914 385>
Fore
208 461 m 1
 208 81 l 2
 208 43 220 29 255 24 c 1
 255 0 l 1
 16 0 l 1
 16 24 l 1
 62 35 69 43 69 84 c 2
 69 378 l 2
 69 419 60 428 16 437 c 1
 16 461 l 1
 208 461 l 1
138 691 m 0
 181 691 215 656 215 613 c 0
 215 569 181 536 137 536 c 0
 93 536 60 569 60 614 c 0
 60 656 95 691 138 691 c 0
EndSplineSet
KernsSLIF: 106 -36 0 0 84 -18 0 0
EndChar
StartChar: j
Encoding: 106 106 75
Width: 333
Flags: W
HStem: -203 31<62 85> 437 24<58 70.75> 536 155<185 187>
VStem: -57 121<-105 -90> 121 139<-96 390>
Fore
260 461 m 1
 260 2 l 2
 260 -57 252 -95 233 -127 c 0
 205 -176 152 -203 83 -203 c 0
 1 -203 -57 -162 -57 -103 c 0
 -57 -67 -32 -42 5 -42 c 0
 37 -42 64 -66 64 -96 c 0
 64 -106 60 -117 50 -133 c 0
 44 -143 41 -150 41 -155 c 0
 41 -165 54 -172 73 -172 c 0
 106 -172 121 -149 121 -96 c 2
 121 378 l 2
 121 421 109 433 58 437 c 1
 58 461 l 1
 260 461 l 1
185 691 m 0
 228 691 263 656 263 613 c 0
 263 570 228 536 185 536 c 0
 140 536 108 569 108 614 c 0
 108 656 142 691 185 691 c 0
EndSplineSet
EndChar
StartChar: k
Encoding: 107 107 76
Width: 556
Flags: W
HStem: 0 24<22 33 309 337 534.33 542.984> 438 23<505.125 513> 652 24<22 33.3333>
VStem: 70 139<84 198 84 676>
DStem: 232 222 324 307 327 88 518 39
Fore
513 461 m 1
 513 438 l 1
 450 430 424 412 324 307 c 1
 518 39 l 2
 527 27 532 24 543 24 c 1
 543 0 l 1
 309 0 l 1
 309 24 l 1
 337 25 351 31 351 43 c 0
 351 51 344 63 327 88 c 2
 232 222 l 1
 209 198 l 1
 209 84 l 2
 209 37 214 31 261 24 c 1
 261 0 l 1
 22 0 l 1
 22 24 l 1
 55 27 70 45 70 84 c 2
 70 594 l 2
 70 632 56 649 22 652 c 1
 22 676 l 1
 209 676 l 1
 209 245 l 1
 337 373 l 2
 348 384 358 402 358 411 c 0
 358 424 347 431 323 434 c 0
 320 435 310 436 299 438 c 1
 299 461 l 1
 513 461 l 1
EndSplineSet
KernsSLIF: 362 -5 0 0 117 -5 0 0 115 5 0 0 351 -38 0 0 352 -38 0 0 111 -38 0 0 45 -47 0 0 103 -4 0 0 335 -33 0 0 101 -33 0 0 328 -3 0 0 241 -7 0 0 322 -3 0 0 323 -3 0 0 97 -3 0 0
EndChar
StartChar: l
Encoding: 108 108 77
Width: 278
Flags: W
HStem: 0 24<16 27.3333 222 255> 652 24<16 27.6667>
VStem: 67 139<84 609>
Fore
206 676 m 1
 206 84 l 2
 206 44 222 25 255 24 c 1
 255 0 l 1
 16 0 l 1
 16 24 l 1
 50 27 67 47 67 84 c 2
 67 594 l 2
 67 631 51 649 16 652 c 1
 16 676 l 1
 206 676 l 1
EndSplineSet
KernsSLIF: 121 -19 0 0 118 -22 0 0
EndChar
StartChar: m
Encoding: 109 109 78
Width: 833
Flags: W
HStem: 0 24<300 312.333 525.25 534 576 588.667 794.5 814> 406 67<294 354> 437 24<16 23.3333>
VStem: 71 136<378 461> 348 139<64.2249 348> 625 139<81 337>
Fore
207 461 m 1xbc
 207 386 l 1
 245 446 291 473 354 473 c 0
 417 473 452 449 482 386 c 1
 534 450 572 473 629 473 c 0
 711 473 764 418 764 332 c 2
 764 81 l 2
 764 38 775 26 814 24 c 1
 814 0 l 1
 576 0 l 1
 576 24 l 1
 614 27 625 39 625 81 c 2
 625 323 l 2
 625 382 610 406 572 406 c 0
 555 406 538 399 516 382 c 0
 503 372 487 353 487 348 c 2
 487 81 l 2
 487 43 499 28 534 24 c 1
 534 0 l 1
 300 0 l 1
 300 24 l 1
 337 27 348 40 348 81 c 2
 348 323 l 2
 348 383 333 406 294 406 c 0xdc
 277 406 260 399 239 383 c 0
 226 373 210 354 210 348 c 2
 210 81 l 2
 210 43 221 29 256 24 c 1
 256 0 l 1
 16 0 l 1
 16 24 l 1
 60 32 71 43 71 84 c 2
 71 378 l 2
 71 419 60 431 16 437 c 1
 16 461 l 1
 207 461 l 1xbc
EndSplineSet
KernsSLIF: 121 -33 0 0 119 -33 0 0 118 -32 0 0 112 -16 0 0
EndChar
StartChar: n
Encoding: 110 110 79
Width: 556
Flags: W
HStem: 0 24<254.6 262 304 312.5 526 539> 406 67<299 355>
VStem: 74 139<64.7025 350 378 461> 351 139<65.0353 337>
Fore
212 461 m 1
 212 386 l 1
 249 445 295 473 355 473 c 0
 437 473 490 418 490 332 c 2
 490 81 l 2
 490 39 500 27 539 24 c 1
 539 0 l 1
 304 0 l 1
 304 24 l 1
 338 28 351 44 351 81 c 2
 351 323 l 2
 351 379 334 406 299 406 c 0
 276 406 252 394 230 371 c 1
 220 362 213 352 213 348 c 2
 213 81 l 2
 213 44 225 29 262 24 c 1
 262 0 l 1
 21 0 l 1
 21 24 l 1
 66 33 74 42 74 84 c 2
 74 378 l 2
 74 420 65 430 21 437 c 1
 21 461 l 1
 212 461 l 1
EndSplineSet
KernsSLIF: 121 -32 0 0 119 -32 0 0 118 -31 0 0 39 -28 0 0 112 -14 0 0 84 -56 0 0
EndChar
StartChar: o
Encoding: 111 111 80
Width: 500
Flags: W
HStem: -14 31<237.514 254> 442 31<248 254>
VStem: 25 147<209 243> 329 147<209 243>
Fore
251 473 m 0
 380 473 476 369 476 229 c 0
 476 90 380 -14 251 -14 c 0
 120 -14 25 89 25 232 c 0
 25 368 124 473 251 473 c 0
252 442 m 0
 190 442 172 390 172 214 c 0
 172 68 192 17 251 17 c 0
 309 17 329 69 329 223 c 0
 329 387 310 442 252 442 c 0
EndSplineSet
KernsSLIF: 121 -42 0 0 120 -29 0 0 119 -38 0 0 118 -42 0 0 116 -10 0 0 39 -27 0 0 84 -88 0 0
EndChar
StartChar: p
Encoding: 112 112 81
Width: 556
Flags: W
HStem: -205 21<271.667 292> -13 55<291 332> 416 57<300 338>
VStem: 75 139<-123 47 -123 348 378 461> 376 148<210 260>
Fore
212 461 m 1
 212 392 l 1
 243 450 279 473 338 473 c 0
 449 473 524 378 524 239 c 0
 524 91 444 -13 332 -13 c 0
 288 -13 262 0 214 47 c 1
 214 -94 l 2
 214 -161 231 -181 292 -184 c 1
 292 -205 l 1
 19 -205 l 1
 19 -181 l 1
 67 -173 75 -164 75 -123 c 2
 75 378 l 2
 75 420 65 430 21 437 c 1
 21 461 l 1
 212 461 l 1
214 346 m 2
 214 103 l 1
 229 65 258 42 291 42 c 0
 348 42 376 101 376 225 c 0
 376 356 352 416 300 416 c 0
 278 416 255 404 235 382 c 0
 223 369 214 353 214 346 c 2
EndSplineSet
KernsSLIF: 121 -34 0 0 116 -11 0 0
EndChar
StartChar: q
Encoding: 113 113 82
Width: 556
Flags: W
HStem: -14 54<219 273> 441 32<256 277>
VStem: 34 146<210 244> 342 139<-126 42 97 472>
Fore
342 -97 m 2
 342 42 l 1
 301 2 266 -14 219 -14 c 0
 110 -14 34 82 34 219 c 0
 34 368 126 473 256 473 c 0
 306 473 337 459 388 416 c 1
 466 472 l 1
 481 472 l 1
 481 -123 l 2
 481 -163 490 -172 536 -181 c 1
 536 -205 l 1
 269 -205 l 1
 269 -180 l 1
 334 -168 342 -159 342 -97 c 2
342 98 m 1
 342 361 l 2
 342 409 315 441 275 441 c 0
 212 441 180 371 180 236 c 0
 180 105 211 40 273 40 c 0
 307 40 332 61 342 98 c 1
EndSplineSet
KernsSLIF: 117 -15 0 0 99 -13 0 0
EndChar
StartChar: r
Encoding: 114 114 83
Width: 444
Flags: W
HStem: 0 24<279.75 295> 328 145<353 371> 437 24<29 36.1667>
VStem: 83 135<378 395.794>
Fore
218 461 m 1xb0
 218 379 l 1
 265 446 303 473 353 473 c 0
 400 473 434 440 434 395 c 0
 434 356 408 328 371 328 c 0xd0
 345 328 330 337 311 364 c 0
 300 380 291 387 283 387 c 0
 250 387 222 344 222 292 c 2
 222 103 l 2
 222 41 234 28 295 24 c 1
 295 0 l 1
 29 0 l 1
 29 24 l 1
 73 32 83 43 83 84 c 2
 83 378 l 2
 83 418 72 431 29 437 c 1
 29 461 l 1
 218 461 l 1xb0
EndSplineSet
KernsSLIF: 122 -1 0 0 121 9 0 0 120 11 0 0 119 7 0 0 118 8 0 0 117 9 0 0 116 9 0 0 59 -16 0 0 39 -8 0 0 113 -15 0 0 46 -68 0 0 112 4 0 0 249 -14 0 0 353 -14 0 0 250 -12 0 0 351 -14 0 0 354 -14 0 0 352 -14 0 0 111 -14 0 0 110 4 0 0 109 6 0 0 108 -14 0 0 107 -15 0 0 106 -12 0 0 105 6 0 0 45 -18 0 0 104 -15 0 0 103 -5 0 0 102 11 0 0 336 -11 0 0 337 -11 0 0 335 -11 0 0 101 -11 0 0 100 -13 0 0 44 -67 0 0 58 -16 0 0 332 -10 0 0 99 -15 0 0 328 -6 0 0 324 -6 0 0 241 -8 0 0 322 -6 0 0 325 -6 0 0 323 -6 0 0 97 -6 0 0
EndChar
StartChar: s
Encoding: 115 115 84
Width: 389
Flags: W
HStem: -14 34<189 207> 440 33<182 202>
VStem: 27 100<327 382> 265 96<85 138>
Fore
340 326 m 1
 315 326 l 1
 300 370 289 388 268 408 c 0
 246 429 219 440 193 440 c 0
 155 440 127 415 127 382 c 0
 127 348 155 323 223 294 c 0
 322 252 361 209 361 138 c 0
 361 48 298 -14 207 -14 c 0
 179 -14 126 -3 99 9 c 0
 89 13 81 15 76 15 c 0
 67 15 61 8 50 -13 c 1
 25 -13 l 1
 25 152 l 1
 53 152 l 1
 74 65 120 20 190 20 c 0
 235 20 265 46 265 85 c 0
 265 117 237 142 169 172 c 0
 68 215 27 261 27 327 c 0
 27 411 93 473 184 473 c 0
 206 473 229 469 262 458 c 0
 278 453 288 451 294 451 c 0
 306 451 312 456 318 471 c 1
 340 471 l 1
 340 326 l 1
EndSplineSet
KernsSLIF: 116 -7 0 0 39 -17 0 0
EndChar
StartChar: t
Encoding: 116 116 85
Width: 333
Flags: W
HStem: -12 71<184 250> 417 44<211 305>
VStem: 72 139<93 417>
Fore
305 461 m 1
 305 417 l 1
 211 417 l 1
 211 116 l 2
 211 76 222 59 250 59 c 0
 271 59 287 73 307 111 c 1
 332 100 l 1
 291 18 251 -12 184 -12 c 0
 115 -12 72 28 72 93 c 2
 72 417 l 1
 20 417 l 1
 20 444 l 1
 85 499 125 544 186 630 c 1
 211 630 l 1
 211 461 l 1
 305 461 l 1
EndSplineSet
KernsSLIF: 59 -12 0 0 39 -31 0 0 351 -4 0 0 352 -4 0 0 111 -4 0 0 104 -4 0 0 335 -1 0 0 101 -1 0 0 58 -12 0 0 328 11 0 0 241 7 0 0 322 11 0 0 323 11 0 0 97 11 0 0 83 11 0 0
EndChar
StartChar: u
Encoding: 117 117 86
Width: 556
Flags: W
HStem: -14 65<198 260> 437 24<280 292.5>
VStem: 65 139<113 387> 342 139<94 387>
Fore
343 -13 m 1
 343 52 l 1
 285 2 250 -14 198 -14 c 0
 115 -14 65 38 65 126 c 2
 65 378 l 2
 65 420 57 429 16 437 c 1
 16 461 l 1
 204 461 l 1
 204 122 l 2
 204 71 219 51 260 51 c 0
 288 51 309 62 342 95 c 1
 342 378 l 2
 342 421 330 433 280 437 c 1
 280 461 l 1
 481 461 l 1
 481 101 l 2
 481 58 493 45 537 43 c 1
 537 20 l 1
 475 13 l 2
 410 6 386 2 343 -13 c 1
EndSplineSet
KernsSLIF: 39 -25 0 0
EndChar
StartChar: v
Encoding: 118 118 87
Width: 500
Flags: W
HStem: -14 21G<241 267> 435 26<21 262>
DStem: 121 282 227 380 241 -14 306 177 378 359 427 382 306 177 267 -14
Fore
485 461 m 1
 485 437 l 1
 454 434 446 426 427 382 c 1
 267 -14 l 1
 241 -14 l 1
 121 282 l 1
 105 323 58 423 56 422 c 1
 50 431 44 434 21 437 c 1
 21 461 l 1
 271 461 l 1
 271 437 l 1
 263 436 255 435 253 435 c 0
 228 433 218 426 218 411 c 0
 218 405 220 399 227 380 c 2
 306 177 l 1
 378 359 l 2
 385 377 389 393 389 404 c 0
 389 428 377 435 334 437 c 1
 334 461 l 1
 485 461 l 1
EndSplineSet
KernsSLIF: 59 -23 0 0 115 -16 0 0 46 -57 0 0 249 -39 0 0 353 -40 0 0 351 -40 0 0 352 -40 0 0 111 -40 0 0 108 -16 0 0 45 -27 0 0 103 -22 0 0 336 -35 0 0 337 -35 0 0 335 -35 0 0 101 -35 0 0 44 -56 0 0 58 -23 0 0 99 -40 0 0 327 -23 0 0 328 -23 0 0 324 -23 0 0 241 -25 0 0 322 -23 0 0 325 -23 0 0 323 -23 0 0 97 -23 0 0
EndChar
StartChar: w
Encoding: 119 119 88
Width: 722
Flags: W
HStem: -14 21G<228 252 479 502> 437 24<294 303.75 515.333 528 572 581.25>
DStem: 359 347 377 296 291 176 252 -14
Fore
707 461 m 1
 707 437 l 1
 681 432 673 424 657 387 c 1
 502 -14 l 1
 479 -14 l 1
 377 296 l 1
 252 -14 l 1
 228 -14 l 1
 80 360 l 1
 53 426 49 432 23 437 c 1
 23 461 l 1
 245 461 l 1
 245 437 l 1
 217 433 207 425 207 409 c 0
 207 396 218 364 246 294 c 0
 251 280 258 261 267 240 c 1
 291 176 l 1
 359 347 l 1
 353 366 l 1
 334 432 333 433 294 437 c 1
 294 461 l 1
 528 461 l 1
 528 437 l 1
 490 434 480 429 480 413 c 0
 480 404 487 376 507 307 c 0
 528 233 531 221 541 180 c 1
 553 214 561 235 576 274 c 0
 607 353 620 390 620 402 c 0
 620 425 609 433 572 437 c 1
 572 461 l 1
 707 461 l 1
EndSplineSet
KernsSLIF: 59 -23 0 0 115 -16 0 0 46 -51 0 0 249 -35 0 0 353 -36 0 0 351 -36 0 0 352 -36 0 0 111 -36 0 0 108 -16 0 0 45 -23 0 0 103 -22 0 0 336 -33 0 0 337 -33 0 0 335 -33 0 0 101 -33 0 0 44 -50 0 0 58 -23 0 0 99 -36 0 0 327 -23 0 0 328 -23 0 0 324 -23 0 0 241 -25 0 0 322 -23 0 0 325 -23 0 0 323 -23 0 0 97 -23 0 0
EndChar
StartChar: x
Encoding: 120 120 89
Width: 500
Flags: W
HStem: 0 24<14 32.5 165 183 243 258.5> 435 26<309 329>
Fore
484 24 m 1
 484 0 l 1
 243 0 l 1
 243 24 l 1
 274 26 288 32 288 44 c 0
 288 56 278 75 255 108 c 2
 213 171 l 1
 206 162 199 154 197 151 c 0
 159 105 133 63 133 48 c 0
 133 33 147 26 183 24 c 1
 183 0 l 1
 14 0 l 1
 14 24 l 1
 51 26 71 43 127 117 c 1
 136 131 163 164 192 201 c 1
 64 398 l 2
 44 428 38 433 12 437 c 1
 12 461 l 1
 262 461 l 1
 262 437 l 1
 229 436 215 430 215 418 c 0
 215 405 241 362 273 320 c 0
 276 316 280 310 286 303 c 1
 301 324 316 343 322 349 c 0
 350 381 360 398 360 413 c 0
 360 428 352 434 329 435 c 0
 326 435 318 436 309 437 c 1
 309 461 l 1
 477 461 l 1
 477 437 l 1
 446 432 426 421 407 398 c 2
 306 272 l 1
 454 44 l 2
 461 33 468 29 484 24 c 1
EndSplineSet
KernsSLIF: 113 -32 0 0 111 -30 0 0 335 -27 0 0 101 -27 0 0 99 -30 0 0 97 -2 0 0
EndChar
StartChar: y
Encoding: 121 121 90
Width: 500
Flags: W
HStem: -205 143<80 113> 437 24<16 23.6667 250 266 329 350.5 469.667 480>
VStem: 16 119<-133 -124>
DStem: 116 282 233 352 236 -13 305 167 373 359 422 382 305 167 273 -15
Fore
480 461 m 1
 480 437 l 1
 449 434 439 424 422 382 c 1
 273 -15 l 2
 238 -109 218 -149 197 -172 c 0
 176 -193 147 -205 113 -205 c 0
 56 -205 16 -172 16 -126 c 0
 16 -88 43 -62 80 -62 c 0
 114 -62 138 -82 138 -111 c 0
 138 -115 137 -120 136 -125 c 0
 135 -128 135 -130 135 -131 c 0
 135 -140 143 -148 152 -148 c 0
 175 -148 201 -116 218 -66 c 2
 236 -13 l 1
 116 282 l 2
 99 324 54 422 51 422 c 1
 45 431 39 434 16 437 c 1
 16 461 l 1
 266 461 l 1
 266 437 l 1
 250 436 l 2
 225 434 213 425 213 411 c 0
 213 403 213 403 233 352 c 2
 305 167 l 1
 373 359 l 2
 382 384 384 393 384 404 c 0
 384 428 372 435 329 437 c 1
 329 461 l 1
 480 461 l 1
EndSplineSet
KernsSLIF: 59 -28 0 0 115 -24 0 0 46 -57 0 0 249 -41 0 0 353 -42 0 0 351 -42 0 0 352 -42 0 0 111 -42 0 0 108 -19 0 0 45 -29 0 0 103 -31 0 0 336 -40 0 0 337 -40 0 0 335 -40 0 0 101 -40 0 0 44 -56 0 0 58 -28 0 0 99 -42 0 0 327 -32 0 0 328 -32 0 0 324 -32 0 0 241 -34 0 0 322 -32 0 0 325 -32 0 0 323 -32 0 0 97 -32 0 0
EndChar
StartChar: z
Encoding: 122 122 91
Width: 444
Flags: W
HStem: 0 32<185 404> 429 32<45 255>
DStem: 255 429 416 435 21 25 185 32
Fore
420 160 m 1
 404 0 l 1
 21 0 l 1
 21 25 l 1
 255 429 l 1
 115 430 89 414 64 319 c 1
 38 319 l 1
 45 461 l 1
 416 461 l 1
 416 435 l 1
 185 32 l 1
 214 32 l 2
 294 32 327 45 359 89 c 0
 375 110 383 128 392 160 c 1
 420 160 l 1
EndSplineSet
EndChar
StartChar: braceleft
Encoding: 123 123 92
Width: 394
Flags: W
VStem: 129 105<-48 147 368 578>
Fore
129 -34 m 2
 129 145 l 2
 129 216 107 240 22 261 c 1
 107 282 129 306 129 377 c 2
 129 556 l 2
 129 611 145 648 179 669 c 0
 211 690 251 697 340 698 c 1
 340 686 l 1
 260 669 234 638 234 562 c 2
 234 391 l 2
 234 307 210 281 116 261 c 1
 210 241 234 215 234 131 c 2
 234 -40 l 2
 234 -116 261 -147 340 -163 c 1
 340 -175 l 1
 242 -174 198 -164 168 -138 c 0
 141 -116 129 -83 129 -34 c 2
EndSplineSet
EndChar
StartChar: bar
Encoding: 124 124 93
Width: 220
Flags: W
HStem: -19 21G<66 154> 671 20G<66 154>
VStem: 66 88<-19 691>
Fore
66 -19 m 1
 66 691 l 1
 154 691 l 1
 154 -19 l 1
 66 -19 l 1
EndSplineSet
EndChar
StartChar: braceright
Encoding: 125 125 94
Width: 394
Flags: W
VStem: 160 105<-48 148 368 578>
Fore
160 -39 m 2
 160 132 l 2
 160 215 185 242 278 262 c 1
 184 282 160 308 160 392 c 2
 160 563 l 2
 160 638 133 670 54 686 c 1
 54 698 l 1
 144 697 183 690 215 669 c 0
 249 648 265 612 265 557 c 2
 265 378 l 2
 265 307 287 283 372 262 c 1
 287 241 265 217 265 146 c 2
 265 -33 l 2
 265 -88 249 -125 215 -146 c 0
 183 -167 143 -174 54 -175 c 1
 54 -163 l 1
 134 -146 160 -115 160 -39 c 2
EndSplineSet
EndChar
StartChar: asciitilde
Encoding: 126 126 95
Width: 520
Flags: W
Fore
436 308 m 1
 491 260 l 1
 446 197 414 175 368 175 c 0
 335 175 309 183 263 208 c 0
 217 233 186 243 151 243 c 0
 122 243 105 233 82 201 c 1
 29 247 l 1
 63 306 99 331 153 331 c 0
 186 331 212 323 287 289 c 0
 333 269 351 263 368 263 c 0
 391 263 411 276 436 308 c 1
EndSplineSet
EndChar
StartChar: exclamdown
Encoding: 161 161 96
Width: 333
Flags: W
HStem: 332 169<154 179>
Fore
167 332 m 0
 120 332 82 371 82 418 c 0
 82 464 120 501 168 501 c 0
 215 501 251 464 251 416 c 0
 251 371 213 332 167 332 c 0
153 254 m 1
 182 254 l 1
 195 131 205 81 234 -14 c 0
 248 -59 252 -78 252 -103 c 0
 252 -166 221 -203 167 -203 c 0
 114 -203 83 -166 83 -101 c 0
 83 -78 87 -58 101 -14 c 0
 131 82 140 131 153 254 c 1
EndSplineSet
EndChar
StartChar: cent
Encoding: 162 162 97
Width: 500
Flags: W
HStem: -14 67<267 335> 442 31<267 287>
VStem: 53 141<223 274> 321 123<364 400>
DStem: 181 5 217 -7 130 -140 170 -140 321 397 334 320 225 128 252 90 389 588 429 588 345 465 381 452
Fore
429 588 m 1
 381 452 l 1
 425 428 444 401 444 364 c 0
 444 326 417 300 378 300 c 0
 360 300 346 306 334 320 c 1
 252 90 l 1
 279 63 301 53 335 53 c 0
 378 53 406 68 440 109 c 1
 458 91 l 1
 424 49 404 30 377 15 c 0
 343 -4 306 -14 267 -14 c 0
 248 -14 236 -12 217 -7 c 1
 170 -140 l 1
 130 -140 l 1
 181 5 l 1
 148 21 135 31 117 49 c 0
 75 92 53 153 53 223 c 0
 53 366 152 473 285 473 c 0
 306 473 321 471 345 465 c 1
 389 588 l 1
 429 588 l 1
225 128 m 1
 321 397 l 1
 321 400 l 2
 321 424 303 442 278 442 c 0
 227 442 194 376 194 274 c 0
 194 216 203 174 225 128 c 1
EndSplineSet
EndChar
StartChar: sterling
Encoding: 163 163 98
Width: 500
Flags: W
HStem: -14 126<340 358> -13 30<109 122> 118 46<106 127> 308 65<39 137 270 384> 654 30<285 308>
VStem: 21 32<64 74> 105 126<489 591> 331 128<571 611>
Fore
384 373 m 1x7f
 384 308 l 1
 275 308 l 1
 276 289 277 275 277 254 c 0
 277 206 273 180 257 134 c 1
 300 118 327 112 354 112 c 0
 416 112 439 129 454 183 c 1
 477 183 l 1
 470 104 460 65 439 34 c 0
 418 3 386 -14 346 -14 c 0xbf
 303 -14 275 0 221 49 c 1
 188 6 154 -13 109 -13 c 0
 53 -13 21 18 21 72 c 0
 21 132 58 164 127 164 c 0
 145 164 158 162 178 157 c 1
 176 194 172 210 137 308 c 1
 39 308 l 1
 39 373 l 1
 119 373 l 1
 108 434 105 459 105 489 c 0
 105 553 134 613 182 648 c 0
 214 671 258 684 308 684 c 0
 401 684 459 640 459 571 c 0
 459 527 433 499 391 499 c 0
 353 499 327 526 329 564 c 1
 331 608 l 1
 331 611 l 2
 331 639 315 654 287 654 c 0
 254 654 231 629 231 591 c 0
 231 569 251 458 270 373 c 1
 384 373 l 1x7f
181 86 m 1
 154 110 136 118 109 118 c 0
 75 118 53 98 53 66 c 0
 53 37 76 17 109 17 c 0x7f
 146 17 167 37 181 86 c 1
EndSplineSet
EndChar
StartChar: fraction
Encoding: 164 8260 99
Width: 167
Flags: W
HStem: -12 21G<-168 -110> 668 20G<273 329>
DStem: 273 688 329 688 -168 -12 -110 -12
Fore
273 688 m 1
 329 688 l 1
 -110 -12 l 1
 -168 -12 l 1
 273 688 l 1
EndSplineSet
EndChar
StartChar: yen
Encoding: 165 165 100
Width: 500
Flags: W
HStem: 0 25<83 95.1429 402.143 414> 164 50<50 185 315 450> 292 50<50 174 339 450> 650 26<-64 -50.3333 207 237 342 363.333 535.667 547>
VStem: 185 130<115 164 214 281>
DStem: 412 572 483 613 293 342 339 342
Fore
450 292 m 1
 319 292 l 1
 315 281 l 1
 315 214 l 1
 450 214 l 1
 450 164 l 1
 315 164 l 1
 315 115 l 2
 315 47 331 32 414 25 c 1
 414 0 l 1
 83 0 l 1
 83 25 l 1
 168 32 185 47 185 115 c 2
 185 164 l 1
 50 164 l 1
 50 214 l 1
 185 214 l 1
 185 271 l 1
 174 292 l 1
 50 292 l 1
 50 342 l 1
 149 342 l 1
 19 597 l 1
 0 633 -23 647 -64 650 c 1
 -64 676 l 1
 237 676 l 1
 237 650 l 1
 177 648 160 642 160 621 c 0
 160 605 183 555 236 454 c 0
 248 430 263 403 278 371 c 1
 293 342 l 1
 412 572 l 1
 417 583 420 595 420 607 c 0
 420 639 406 647 342 650 c 1
 342 676 l 1
 547 676 l 1
 547 650 l 1
 513 647 496 637 483 613 c 2
 339 342 l 1
 450 342 l 1
 450 292 l 1
EndSplineSet
EndChar
StartChar: florin
Encoding: 166 402 101
Width: 500
Flags: W
HStem: -155 30<93 112> -40 20G<38.5 70.5> 394 46<74 190 322 444> 676 30<383 396>
VStem: 0 108<-79 -67> 391 107<613 628>
Fore
74 394 m 1
 74 440 l 1
 194 440 l 1
 211 541 231 596 265 641 c 0
 298 684 343 706 396 706 c 0
 457 706 498 675 498 628 c 0
 498 594 474 567 444 567 c 0
 416 567 391 588 391 613 c 0
 391 624 396 638 404 650 c 0
 407 655 409 659 409 661 c 0
 409 669 398 676 386 676 c 0
 344 676 322 627 322 530 c 2
 322 440 l 1
 444 440 l 1
 444 394 l 1
 322 394 l 1
 309 168 307 145 299 99 c 0
 270 -67 199 -155 93 -155 c 0
 36 -155 0 -125 0 -77 c 0
 0 -43 22 -20 55 -20 c 0
 86 -20 108 -40 108 -69 c 0
 108 -80 105 -87 97 -97 c 0
 92 -103 90 -106 90 -109 c 0
 90 -117 101 -125 112 -125 c 0
 149 -125 175 -80 177 -12 c 1
 190 394 l 1
 74 394 l 1
EndSplineSet
EndChar
StartChar: section
Encoding: 167 167 102
Width: 500
Flags: W
HStem: -132 23<240 258> 144 23<302 324> 392 23<178 190> 668 23<240 268>
VStem: 57 75<293 336> 90 128<-33 -21> 99 74<561 599> 268 125<583 594> 319 85<-38 -3> 367 76<225 256>
Fore
180 415 m 2xf880
 199 415 l 1
 117 487 99 513 99 561 c 0
 99 637 161 691 248 691 c 0
 326 691 393 645 393 592 c 0
 393 559 362 528 328 528 c 0
 299 528 268 558 268 585 c 0xf3
 268 599 277 614 295 628 c 0
 304 636 310 643 310 647 c 0
 310 658 284 668 256 668 c 0
 207 668 173 640 173 599 c 0
 173 565 208 526 277 480 c 0
 343 437 393 388 423 337 c 0
 436 315 443 287 443 256 c 0xf240
 443 220 429 189 405 170 c 0
 383 152 356 145 302 144 c 1
 376 92 404 51 404 -3 c 0
 404 -78 335 -132 240 -132 c 0
 157 -132 90 -87 90 -32 c 0
 90 5 118 33 153 33 c 0
 188 33 218 7 218 -23 c 0xf480
 218 -39 210 -51 187 -65 c 0
 176 -72 172 -76 172 -80 c 0
 172 -95 205 -109 240 -109 c 0
 293 -109 319 -85 319 -38 c 0
 319 -7 310 9 282 32 c 2
 225 78 l 2
 84 192 57 226 57 293 c 0
 57 372 101 415 180 415 c 2xf880
186 392 m 0
 155 392 132 368 132 336 c 0
 132 300 142 285 202 233 c 0
 263 180 284 167 314 167 c 0
 344 167 367 191 367 225 c 0xf840
 367 252 357 271 324 302 c 0
 258 365 216 392 186 392 c 0
EndSplineSet
EndChar
StartChar: currency
Encoding: 168 164 103
Width: 500
Flags: W
HStem: 122 82<250 263> 470 82<250 263>
VStem: 35 88<337 350> 377 88<318.793 350>
DStem: -26 557 32 613 72 459 128 517 72 217 128 159 -26 119 32 61 372 159 428 217 468 61 526 119 468 613 526 557 372 517 428 459
Fore
-26 119 m 1
 72 217 l 1
 46 255 35 290 35 337 c 0
 35 383 46 420 72 459 c 1
 -26 557 l 1
 32 613 l 1
 128 517 l 1
 168 542 204 552 250 552 c 0
 296 552 332 542 372 517 c 1
 468 613 l 1
 526 557 l 1
 428 459 l 1
 455 416 465 383 465 337 c 0
 465 290 454 253 428 217 c 1
 526 119 l 1
 468 61 l 1
 372 159 l 1
 331 133 294 122 250 122 c 0
 206 122 169 133 128 159 c 1
 32 61 l 1
 -26 119 l 1
250 470 m 0
 179 470 123 412 123 337 c 0
 123 263 179 204 250 204 c 0
 319 204 377 264 377 335 c 0
 377 410 321 470 250 470 c 0
EndSplineSet
EndChar
StartChar: quotesingle
Encoding: 169 39 104
Width: 278
Flags: W
HStem: 671 20G<120 157.5>
Fore
160 404 m 1
 119 404 l 1
 114 425 109 445 108 452 c 0
 87 535 75 599 75 620 c 0
 75 663 101 691 139 691 c 0
 176 691 204 662 204 624 c 0
 204 602 193 548 160 404 c 1
EndSplineSet
EndChar
StartChar: quotedblleft
Encoding: 170 8220 105
Width: 500
Flags: W
Fore
198 691 m 1
 209 669 l 1
 134 617 100 575 100 536 c 0
 100 524 108 515 119 515 c 0
 121 515 123 515 126 516 c 0
 132 517 138 517 143 517 c 0
 186 517 216 485 216 439 c 0
 216 389 183 356 133 356 c 0
 73 356 32 403 32 472 c 0
 32 558 82 624 198 691 c 1
468 691 m 1
 479 669 l 1
 404 617 370 575 370 536 c 0
 370 524 378 515 389 515 c 0
 391 515 393 515 396 516 c 0
 402 517 408 517 413 517 c 0
 456 517 486 485 486 439 c 0
 486 389 453 356 403 356 c 0
 343 356 302 403 302 472 c 0
 302 558 352 624 468 691 c 1
EndSplineSet
KernsSLIF: 89 15 1 0 87 13 1 0 86 15 1 0 84 9 1 0 262 -59 1 0 256 -59 1 0 257 -59 1 0 225 -78 1 0 65 -59 1 0
EndChar
StartChar: guillemotleft
Encoding: 171 171 106
Width: 500
Flags: W
Fore
23 229 m 1
 226 393 l 2
 229 395 231 397 232 398 c 0
 247 411 255 415 263 415 c 0
 271 415 275 411 275 404 c 0
 275 383 240 328 183 257 c 0
 179 253 169 240 159 227 c 1
 174 205 185 190 199 173 c 0
 249 115 277 71 277 51 c 0
 277 42 272 36 265 36 c 0
 258 36 249 41 237 52 c 0
 233 55 230 58 229 59 c 2
 23 225 l 1
 23 229 l 1
219 229 m 1
 422 393 l 2
 425 395 427 397 428 398 c 0
 443 411 451 415 459 415 c 0
 467 415 471 411 471 404 c 0
 471 383 436 328 378 257 c 1
 355 227 l 1
 370 205 381 190 395 173 c 0
 445 115 473 71 473 51 c 0
 473 42 468 36 461 36 c 0
 454 36 445 41 433 52 c 0
 429 55 426 58 425 59 c 2
 219 225 l 1
 219 229 l 1
EndSplineSet
EndChar
StartChar: guilsinglleft
Encoding: 172 8249 107
Width: 333
Flags: W
Fore
51 229 m 1
 254 393 l 2
 257 395 259 397 260 398 c 0
 275 411 283 415 291 415 c 0
 299 415 303 411 303 404 c 0
 303 383 268 328 210 257 c 1
 187 227 l 1
 202 205 213 190 227 173 c 0
 277 115 305 71 305 51 c 0
 305 42 300 36 293 36 c 0
 286 36 277 41 265 52 c 0
 261 55 258 58 257 59 c 2
 51 225 l 1
 51 229 l 1
EndSplineSet
EndChar
StartChar: guilsinglright
Encoding: 173 8250 108
Width: 333
Flags: W
Fore
79 58 m 1
 73 53 l 2
 57 39 50 36 42 36 c 0
 34 36 30 40 30 47 c 0
 30 68 65 123 123 194 c 1
 146 224 l 1
 131 246 119 262 106 277 c 0
 55 337 28 380 28 400 c 0
 28 409 33 415 39 415 c 0
 46 415 56 410 68 399 c 0
 72 396 75 393 76 392 c 2
 282 226 l 1
 282 222 l 1
 79 58 l 1
EndSplineSet
KernsSLIF: 89 -120 1 0 87 -98 1 0 86 -116 1 0 84 -114 1 0 262 -54 1 0 256 -54 1 0 257 -54 1 0 225 -60 1 0 65 -54 1 0
EndChar
StartChar: fi
Encoding: 174 64257 109
Width: 556
Flags: W
HStem: 0 24<14 21.8333 249.8 257 301 310 518 536> 417 44<14 71 210 318> 661 30<285 302>
VStem: 71 139<64.4981 417 461 486.728> 348 139<81 385>
Fore
210 417 m 1
 210 81 l 2
 210 42 221 29 257 24 c 1
 257 0 l 1
 14 0 l 1
 14 24 l 1
 61 30 71 41 71 84 c 2
 71 417 l 1
 14 417 l 1
 14 461 l 1
 71 461 l 1
 73 550 88 597 128 637 c 0
 165 673 221 691 294 691 c 0
 404 691 472 656 472 599 c 0
 472 564 445 539 407 539 c 0
 369 539 343 561 343 593 c 0
 343 605 345 616 350 627 c 0
 351 630 352 633 352 634 c 0
 352 649 328 661 298 661 c 0
 265 661 242 650 229 628 c 0
 214 601 210 566 210 461 c 1
 316 461 l 2
 351 461 396 464 487 473 c 1
 487 81 l 2
 487 41 500 26 536 24 c 1
 536 0 l 1
 301 0 l 1
 301 24 l 1
 337 28 348 41 348 81 c 2
 348 383 l 2
 348 409 340 417 314 417 c 2
 210 417 l 1
EndSplineSet
Ligature: 0 0 'liga' f i
EndChar
StartChar: fl
Encoding: 175 64258 110
Width: 556
Flags: W
HStem: 0 24<14 21.8333 249.8 257 301 309 524 536> 417 44<14 71 210 348> 658 33<271 302>
VStem: 71 139<64.4981 417> 348 139<64.5038 417 461 690>
Fore
348 417 m 1
 210 417 l 1
 210 81 l 2
 210 42 221 29 257 24 c 1
 257 0 l 1
 14 0 l 1
 14 24 l 1
 61 30 71 41 71 84 c 2
 71 417 l 1
 14 417 l 1
 14 461 l 1
 71 461 l 1
 74 552 87 597 119 633 c 0
 153 671 205 691 271 691 c 0
 325 691 366 683 421 660 c 1
 468 690 l 1
 487 690 l 1
 487 81 l 2
 487 45 499 27 524 25 c 2
 536 24 l 1
 536 0 l 1
 301 0 l 1
 301 24 l 1
 309 25 l 2
 337 28 348 45 348 81 c 2
 348 417 l 1
348 461 m 1
 348 559 l 1
 336 563 327 578 327 594 c 0
 327 601 329 609 335 620 c 0
 338 627 340 633 340 637 c 0
 340 650 324 658 298 658 c 0
 231 658 210 625 210 523 c 2
 210 461 l 1
 348 461 l 1
EndSplineSet
Ligature: 0 0 'liga' f l
EndChar
StartChar: endash
Encoding: 177 8211 111
Width: 500
Flags: W
HStem: 181 90<0 500>
Fore
0 271 m 1
 500 271 l 1
 500 181 l 1
 0 181 l 1
 0 271 l 1
EndSplineSet
EndChar
StartChar: dagger
Encoding: 178 8224 112
Width: 500
Flags: W
HStem: 403 107<94 112 398 405> 671 20G<233.5 268.5>
VStem: 184 134<263 270> 194 113<629 638>
DStem: 235 10 266 10 240 -134 261 -134
Fore
261 -134 m 1xe0
 240 -134 l 1
 235 10 l 1
 233 91 215 188 189 253 c 0
 186 260 184 266 184 270 c 0xe0
 184 274 189 283 197 294 c 0
 229 338 235 363 238 446 c 1
 196 442 186 439 149 419 c 0
 124 406 114 403 97 403 c 0
 67 403 47 425 47 457 c 0
 47 491 66 510 99 510 c 0
 114 510 127 506 152 492 c 0
 190 473 202 470 238 466 c 1
 236 530 232 546 209 587 c 0
 197 608 194 616 194 631 c 0
 194 668 216 691 251 691 c 0
 286 691 307 671 307 636 c 0xd0
 307 620 303 608 289 580 c 0
 265 533 261 519 261 466 c 1
 296 471 310 476 350 494 c 0
 376 506 388 510 402 510 c 0
 433 510 453 489 453 456 c 0
 453 424 434 404 403 404 c 0
 387 404 373 408 347 422 c 1
 307 441 299 444 261 446 c 1
 259 385 279 319 312 277 c 0
 316 273 318 270 318 268 c 0
 318 267 318 265 317 263 c 0
 290 204 268 93 266 10 c 1
 261 -134 l 1xe0
EndSplineSet
EndChar
StartChar: daggerdbl
Encoding: 179 8225 113
Width: 500
Flags: W
HStem: 53 99<92 97 396 414> 406 99<92 97 406 414> 671 20G<234.5 266>
VStem: 239 23<69 94 464 488.631>
Fore
221 465 m 2
 239 465 l 1
 238 518 234 534 212 585 c 0
 200 611 197 623 197 637 c 0
 197 669 219 691 250 691 c 0
 282 691 306 667 306 636 c 0
 306 622 302 609 290 581 c 0
 267 529 263 511 262 464 c 1
 299 468 311 471 354 490 c 0
 379 501 393 505 406 505 c 0
 436 505 456 486 456 456 c 0
 456 426 437 407 406 407 c 0
 391 407 380 411 355 423 c 0
 313 442 300 445 262 446 c 1
 262 388 280 329 309 291 c 1
 314 286 316 282 316 279 c 0
 316 277 314 273 309 267 c 0
 277 220 263 174 262 111 c 1
 296 111 309 114 350 133 c 0
 378 146 391 150 408 150 c 0
 438 150 456 132 456 101 c 0
 456 72 436 53 405 53 c 0
 393 53 379 57 354 69 c 0
 312 87 299 90 262 94 c 1
 263 47 267 29 290 -22 c 0
 302 -50 306 -63 306 -77 c 0
 306 -108 282 -132 250 -132 c 0
 218 -132 197 -110 197 -78 c 0
 197 -63 200 -52 213 -25 c 0
 234 24 238 39 239 93 c 1
 221 93 l 2
 206 93 184 86 156 72 c 0
 127 58 110 53 95 53 c 0
 65 53 45 73 45 103 c 0
 45 131 66 152 94 152 c 0
 108 152 124 147 151 135 c 0
 194 115 204 113 239 111 c 1
 237 174 225 211 184 279 c 1
 226 347 237 381 239 446 c 1
 200 444 190 442 148 423 c 0
 122 410 109 406 95 406 c 0
 66 406 45 427 45 455 c 0
 45 485 65 505 94 505 c 0
 110 505 127 499 156 486 c 0
 189 471 200 467 221 465 c 2
EndSplineSet
EndChar
StartChar: periodcentered
Encoding: 180 183 114
Width: 250
Flags: W
Fore
125 417 m 0
 172 417 210 378 210 332 c 0
 210 285 172 248 124 248 c 0
 77 248 41 285 41 333 c 0
 41 378 79 417 125 417 c 0
EndSplineSet
EndChar
StartChar: paragraph
Encoding: 182 182 115
Width: 540
Flags: W
HStem: -186 25<118 128.571 504 514> 651 25<219 343 219 497 508 519>
VStem: 0 90<469 503> 118 175<-186 651> 198 95<-123 651> 343 94<-186 618.468>
Fore
293 651 m 1xf4
 293 -186 l 1
 118 -186 l 1
 118 -161 l 1xf4
 192 -154 198 -150 198 -109 c 1xec
 199 -99 l 1
 199 -61 l 1
 199 265 l 1
 148 267 122 274 92 292 c 0
 32 327 0 392 0 481 c 0
 0 615 69 676 219 676 c 2
 519 676 l 1
 519 651 l 1
 508 650 497 649 493 649 c 0
 444 643 438 638 438 599 c 1
 437 589 l 1
 437 551 l 1
 437 -61 l 1
 437 -99 l 1
 438 -109 l 1
 439 -148 443 -153 491 -159 c 0
 494 -159 504 -160 514 -161 c 1
 514 -186 l 1
 343 -186 l 1
 343 651 l 1
 293 651 l 1xf4
199 290 m 1
 199 651 l 1
 152 639 132 627 115 598 c 0
 99 572 90 532 90 483 c 0
 90 378 124 317 199 290 c 1
EndSplineSet
EndChar
StartChar: bullet
Encoding: 183 8226 116
Width: 350
Flags: W
HStem: 458 20G<137.5 214.5>
Fore
176 478 m 0
 253 478 315 416 315 337 c 0
 315 260 254 198 176 198 c 0
 97 198 35 260 35 339 c 0
 35 415 99 478 176 478 c 0
EndSplineSet
EndChar
StartChar: quotesinglbase
Encoding: 184 8218 117
Width: 333
Flags: W
HStem: -24 20G<175 181.5>
Fore
97 -180 m 1
 86 -158 l 1
 161 -106 195 -64 195 -26 c 0
 195 -13 187 -4 176 -4 c 0
 174 -4 172 -4 169 -5 c 0
 163 -6 157 -6 152 -6 c 0
 109 -6 79 26 79 72 c 0
 79 122 112 155 162 155 c 0
 222 155 263 108 263 39 c 0
 263 -47 213 -113 97 -180 c 1
EndSplineSet
EndChar
StartChar: quotedblbase
Encoding: 185 8222 118
Width: 500
Flags: W
HStem: -24 20G<110 116.5 380 386.5>
Fore
302 -180 m 1
 291 -158 l 1
 366 -106 400 -64 400 -26 c 0
 400 -13 392 -4 381 -4 c 0
 379 -4 377 -4 374 -5 c 0
 368 -6 362 -6 357 -6 c 0
 314 -6 284 26 284 72 c 0
 284 122 317 155 367 155 c 0
 427 155 468 108 468 39 c 0
 468 -47 418 -113 302 -180 c 1
32 -180 m 1
 21 -158 l 1
 96 -106 130 -64 130 -26 c 0
 130 -13 122 -4 111 -4 c 0
 109 -4 107 -4 104 -5 c 0
 98 -6 92 -6 87 -6 c 0
 44 -6 14 26 14 72 c 0
 14 122 47 155 97 155 c 0
 157 155 198 108 198 39 c 0
 198 -47 148 -113 32 -180 c 1
EndSplineSet
KernsSLIF: 89 -73 1 0 87 -75 1 0 86 -98 1 0 84 -59 1 0 225 20 1 0 65 19 1 0
EndChar
StartChar: quotedblright
Encoding: 186 8221 119
Width: 500
Flags: W
HStem: 671 20G<72 127 342 397>
Fore
302 356 m 1
 291 378 l 1
 365 430 400 472 400 510 c 0
 400 522 392 532 381 532 c 0
 379 532 377 532 374 531 c 0
 368 530 363 530 358 530 c 0
 313 530 284 561 284 609 c 0
 284 658 317 691 367 691 c 0
 427 691 468 644 468 575 c 0
 468 489 418 423 302 356 c 1
32 356 m 1
 21 378 l 1
 95 430 130 472 130 510 c 0
 130 522 122 532 111 532 c 0
 109 532 107 532 104 531 c 0
 98 530 93 530 88 530 c 0
 43 530 14 561 14 609 c 0
 14 658 47 691 97 691 c 0
 157 691 198 644 198 575 c 0
 198 489 148 423 32 356 c 1
EndSplineSet
KernsSLIF: 89 6 1 0 87 4 1 0 86 5 1 0 84 4 1 0 262 -72 1 0 256 -72 1 0 257 -72 1 0 225 -91 1 0 65 -72 1 0
EndChar
StartChar: guillemotright
Encoding: 187 187 120
Width: 500
Flags: W
Fore
78 58 m 1
 72 53 l 2
 56 39 49 36 41 36 c 0
 33 36 29 40 29 47 c 0
 29 68 64 123 122 194 c 1
 145 224 l 1
 130 246 118 262 105 277 c 0
 54 337 27 380 27 400 c 0
 27 409 32 415 38 415 c 0
 45 415 55 410 67 399 c 0
 71 396 74 393 75 392 c 2
 281 226 l 1
 281 222 l 1
 78 58 l 1
477 222 m 1
 274 58 l 2
 273 57 271 56 267 53 c 0
 251 39 245 36 237 36 c 0
 229 36 225 40 225 47 c 0
 225 68 260 124 317 194 c 2
 341 224 l 1
 326 246 314 262 301 277 c 0
 250 337 223 380 223 400 c 0
 223 409 228 415 235 415 c 0
 241 415 250 410 263 399 c 0
 266 396 269 393 271 392 c 2
 477 226 l 1
 477 222 l 1
EndSplineSet
KernsSLIF: 89 -106 1 0 87 -84 1 0 86 -102 1 0 84 -100 1 0 262 -40 1 0 256 -40 1 0 257 -40 1 0 225 -46 1 0 65 -40 1 0
EndChar
StartChar: ellipsis
Encoding: 188 8230 121
Width: 1000
Flags: W
HStem: -13 21G<141.5 189 474.5 522 807.5 855>
VStem: 82 169<66 84> 415 169<66 84> 748 169<66 84>
CounterMasks: 1 00
Fore
166 156 m 0
 213 156 251 117 251 70 c 0
 251 24 213 -13 165 -13 c 0
 118 -13 82 24 82 72 c 0
 82 117 120 156 166 156 c 0
499 156 m 0
 546 156 584 117 584 70 c 0
 584 24 546 -13 498 -13 c 0
 451 -13 415 24 415 72 c 0
 415 117 453 156 499 156 c 0
832 156 m 0
 879 156 917 117 917 70 c 0
 917 24 879 -13 831 -13 c 0
 784 -13 748 24 748 72 c 0
 748 117 786 156 832 156 c 0
EndSplineSet
Ligature: 0 1 'liga' period period period
EndChar
StartChar: perthousand
Encoding: 189 8240 122
Width: 1000
Flags: W
HStem: -18 28<461 482 823 843> 300 33<530 550 892 911> 322 30<132 153> 584 31<342 376> 634 40<204.031 209>
VStem: 7 96<421 461> 278 26<546 564> 334 98<79 124> 609 25<210 228> 696 98<78 121> 970 25<210 228>
DStem: 474 626 572 706 86 -29 134 -29
Fore
572 706 m 1xbfe0
 134 -29 l 1
 86 -29 l 1
 474 626 l 1
 435 596 401 584 361 584 c 0
 340 584 326 587 301 597 c 1
 303 577 304 566 304 554 c 0
 304 485 275 407 234 366 c 0
 206 338 169 322 132 322 c 0
 59 322 7 380 7 461 c 0
 7 574 99 674 204 674 c 0
 230 674 249 666 275 645 c 0
 303 622 322 615 358 615 c 0
 424 615 473 642 524 706 c 1
 572 706 l 1xbfe0
206 634 m 0
 165 637 103 508 103 421 c 0
 103 376 120 352 153 352 c 0
 217 352 278 453 278 560 c 0
 278 594 272 604 246 614 c 0
 239 617 236 618 225 625 c 0
 215 632 211 634 206 634 c 0
892 333 m 0xdfe0
 956 333 995 288 995 213 c 0
 995 143 967 70 923 24 c 0
 897 -3 861 -18 823 -18 c 0
 746 -18 696 36 696 121 c 0
 696 235 786 333 892 333 c 0xdfe0
911 300 m 0
 890 300 871 286 852 258 c 0
 821 212 794 129 794 78 c 0
 794 33 811 10 843 10 c 0
 872 10 897 26 920 59 c 0
 949 101 970 169 970 219 c 0
 970 265 945 300 911 300 c 0
530 333 m 0
 595 333 634 288 634 214 c 0
 634 144 606 71 561 24 c 0
 535 -3 500 -18 461 -18 c 0
 384 -18 334 38 334 124 c 0
 334 233 427 333 530 333 c 0
550 300 m 0
 529 300 510 286 490 257 c 0
 459 211 432 129 432 79 c 0
 432 33 449 10 482 10 c 0
 511 10 536 26 559 59 c 0
 588 101 609 168 609 219 c 0
 609 265 584 300 550 300 c 0
EndSplineSet
EndChar
StartChar: questiondown
Encoding: 191 191 123
Width: 500
Flags: W
HStem: -201 36<255 288> 332 169<261 263>
VStem: 55 149<-35 -24> 247 32<211 257> 312 131<-59 -43>
Fore
247 257 m 1
 277 257 l 1
 279 227 279 222 279 211 c 0
 279 183 271 160 247 114 c 0
 214 52 204 17 204 -35 c 0
 204 -117 235 -165 288 -165 c 0
 324 -165 349 -149 349 -125 c 0
 349 -115 346 -109 334 -96 c 0
 317 -77 312 -65 312 -45 c 0
 312 -7 337 19 375 19 c 0
 414 19 443 -13 443 -57 c 0
 443 -141 365 -201 255 -201 c 0
 135 -201 55 -135 55 -35 c 0
 55 34 85 75 176 131 c 0
 239 170 247 184 247 257 c 1
261 332 m 0
 215 332 177 371 177 417 c 0
 177 464 214 501 261 501 c 0
 309 501 346 464 346 416 c 0
 346 371 307 332 261 332 c 0
EndSplineSet
EndChar
StartChar: grave
Encoding: 193 96 124
Width: 333
Flags: W
Fore
246 528 m 1
 190 528 l 1
 48 616 l 2
 19 634 8 648 8 668 c 0
 8 693 29 713 55 713 c 0
 74 713 93 703 109 685 c 2
 246 528 l 1
EndSplineSet
EndChar
StartChar: acute
Encoding: 194 180 125
Width: 333
Flags: W
Fore
86 528 m 1
 223 685 l 2
 240 704 257 713 276 713 c 0
 305 713 324 695 324 669 c 0
 324 646 316 636 284 616 c 2
 142 528 l 1
 86 528 l 1
EndSplineSet
Ligature: 0 1 'liga' space acutecomb
EndChar
StartChar: circumflex
Encoding: 195 710 126
Width: 333
Flags: W
Fore
278 528 m 1
 166 626 l 1
 54 528 l 1
 -2 528 l 1
 120 704 l 1
 212 704 l 1
 335 528 l 1
 278 528 l 1
EndSplineSet
EndChar
StartChar: tilde
Encoding: 196 732 127
Width: 333
Flags: W
Fore
26 549 m 1
 -16 549 l 1
 2 635 38 674 100 674 c 0
 121 674 145 668 173 655 c 2
 213 637 l 2
 237 626 241 625 252 625 c 0
 279 625 293 638 306 674 c 1
 349 674 l 1
 326 587 289 547 232 547 c 0
 212 547 187 553 168 561 c 2
 139 574 l 2
 96 593 88 596 75 596 c 0
 49 596 30 577 26 549 c 1
EndSplineSet
Ligature: 0 1 'liga' space tildecomb
EndChar
StartChar: macron
Encoding: 197 175 128
Width: 333
Flags: W
HStem: 565 72<1 331>
Fore
331 637 m 1
 331 565 l 1
 1 565 l 1
 1 637 l 1
 331 637 l 1
EndSplineSet
Ligature: 0 1 'liga' space uni0304
EndChar
StartChar: breve
Encoding: 198 728 129
Width: 333
Flags: W
HStem: 671 20G<15 59 274 318>
Fore
274 691 m 1
 318 691 l 1
 312 640 305 615 288 589 c 0
 262 548 221 528 166 528 c 0
 113 528 71 547 46 583 c 0
 25 611 18 636 15 691 c 1
 59 691 l 1
 70 630 102 604 166 604 c 0
 228 604 257 628 274 691 c 1
EndSplineSet
Ligature: 0 1 'liga' space uni0306
EndChar
StartChar: dotaccent
Encoding: 199 729 130
Width: 333
Flags: W
Fore
166 666 m 0
 202 666 232 636 232 600 c 0
 232 565 203 537 166 537 c 0
 131 537 103 566 103 603 c 0
 103 636 133 666 166 666 c 0
EndSplineSet
Ligature: 0 1 'liga' space uni0307
EndChar
StartChar: dieresis
Encoding: 200 168 131
Width: 333
Flags: W
VStem: -2 129<598 606> 208 129<598 605>
Fore
62 666 m 0
 97 666 127 636 127 600 c 0
 127 565 98 537 62 537 c 0
 27 537 -2 567 -2 602 c 0
 -2 636 28 666 62 666 c 0
271 666 m 0
 307 666 337 636 337 600 c 0
 337 565 308 537 271 537 c 0
 236 537 208 566 208 603 c 0
 208 636 238 666 271 666 c 0
EndSplineSet
Ligature: 0 1 'liga' space uni0308
EndChar
StartChar: ring
Encoding: 202 730 132
Width: 333
Flags: W
HStem: 537 48<155 173> 702 48<155 173>
VStem: 60 48<632 650> 225 48<632 650>
Fore
167 750 m 0
 225 750 273 701 273 643 c 0
 273 584 225 537 166 537 c 0
 107 537 60 585 60 645 c 0
 60 701 109 750 167 750 c 0
166 702 m 0
 135 702 108 674 108 643 c 0
 108 611 134 585 165 585 c 0
 198 585 225 611 225 642 c 0
 225 674 198 702 166 702 c 0
EndSplineSet
Ligature: 0 1 'liga' space uni030A
EndChar
StartChar: cedilla
Encoding: 203 184 133
Width: 333
Flags: W
HStem: -218 41<142 164> -100 41<155 206> -20 20G<159 201>
DStem: 84 -163 84 -163 68 -200 90 -165 159 0 201 0 116 -96 173 -64
Fore
116 -96 m 1
 159 0 l 1
 201 0 l 1
 173 -64 l 1
 185 -60 193 -59 206 -59 c 0
 261 -59 294 -85 294 -129 c 0
 294 -184 244 -218 164 -218 c 0
 131 -218 104 -213 68 -200 c 1
 84 -163 l 1
 90 -165 l 2
 113 -174 127 -177 144 -177 c 0
 180 -177 201 -162 201 -136 c 0
 201 -114 184 -100 155 -100 c 0
 146 -100 138 -101 127 -104 c 1
 116 -96 l 1
EndSplineSet
Ligature: 0 1 'liga' space uni0327
EndChar
StartChar: hungarumlaut
Encoding: 205 733 134
Width: 333
Flags: W
Fore
-13 528 m 1
 124 685 l 2
 141 704 158 713 177 713 c 0
 206 713 225 695 225 669 c 0
 225 646 217 636 185 616 c 2
 43 528 l 1
 -13 528 l 1
187 528 m 1
 324 685 l 2
 341 704 358 713 377 713 c 0
 406 713 425 695 425 669 c 0
 425 646 417 636 385 616 c 2
 243 528 l 1
 187 528 l 1
EndSplineSet
Ligature: 0 1 'liga' space uni030B
EndChar
StartChar: ogonek
Encoding: 206 731 135
Width: 333
Flags: W
HStem: -173 69<196 237>
VStem: 90 84<-92 -40>
Fore
158 32 m 1
 191 44 l 1
 190 37 189 34 186 24 c 0
 178 -8 174 -27 174 -40 c 0
 174 -81 196 -104 237 -104 c 0
 252 -104 263 -101 283 -91 c 0
 291 -87 292 -86 297 -84 c 1
 319 -98 l 1
 294 -144 246 -173 196 -173 c 0
 135 -173 90 -139 90 -92 c 0
 90 -62 103 -36 144 14 c 0
 152 24 154 26 158 32 c 1
EndSplineSet
Ligature: 0 1 'liga' space uni0328
EndChar
StartChar: caron
Encoding: 207 711 136
Width: 333
Flags: W
Fore
335 704 m 1
 212 528 l 1
 120 528 l 1
 -2 704 l 1
 54 704 l 1
 166 605 l 1
 278 704 l 1
 335 704 l 1
EndSplineSet
EndChar
StartChar: emdash
Encoding: 208 8212 137
Width: 1000
Flags: W
HStem: 181 90<0 1000>
Fore
0 271 m 1
 1000 271 l 1
 1000 181 l 1
 0 181 l 1
 0 271 l 1
EndSplineSet
EndChar
StartChar: AE
Encoding: 225 198 138
Width: 1000
Flags: W
HStem: 0 25<201.5 210 344 362.25> 0 34<643 910> 303 40<264 432> 475 201<275 909> 641 35<275 693> 654 22<275 291.5>
VStem: 432 160<93 331 343 619>
DStem: 327 542 425 633 114 153 264 343 327 542 242 303 114 153 142 115
Fore
432 303 m 1xa2
 242 303 l 1
 142 115 l 2
 131 95 127 82 127 70 c 0
 127 43 141 33 193 27 c 2
 210 25 l 1
 210 0 l 1xa2
 4 0 l 1x62
 4 25 l 1
 43 31 51 40 114 153 c 1
 327 542 l 2
 330 547 332 552 334 555 c 0
 353 587 362 607 362 617 c 0
 362 641 341 650 275 654 c 1xa6
 275 676 l 1
 909 676 l 1
 909 475 l 1
 884 475 l 1x32
 871 539 861 563 840 589 c 0
 812 624 752 641 660 641 c 0
 606 641 592 635 592 611 c 2
 592 363 l 1
 709 373 719 383 747 512 c 1
 770 512 l 1
 770 174 l 1
 747 174 l 1
 729 298 704 324 592 331 c 1
 592 88 l 2
 592 45 608 34 668 34 c 0
 753 34 812 53 852 95 c 0
 886 130 920 181 928 211 c 1
 951 211 l 1
 910 0 l 1x6a
 344 0 l 1
 344 25 l 1
 417 29 432 45 432 119 c 2
 432 303 l 1xa2
264 343 m 1
 432 343 l 1
 432 633 l 1
 425 633 l 1
 264 343 l 1
EndSplineSet
EndChar
StartChar: ordfeminine
Encoding: 227 170 139
Width: 300
Flags: W
HStem: 397 38<228 279> 665 23<121 141>
VStem: -1 98<463 479> 12 90<604 615> 172 96<464 615>
Fore
291 443 m 1xd8
 301 431 l 1
 277 406 257 397 228 397 c 0
 196 397 182 408 175 438 c 1
 140 409 111 397 73 397 c 0
 29 397 -1 424 -1 463 c 0xe8
 -1 513 38 538 173 573 c 1
 173 613 l 2
 173 650 159 665 123 665 c 0
 101 665 82 655 82 643 c 0
 82 640 85 635 91 629 c 0
 99 621 102 614 102 608 c 0
 102 587 82 573 54 573 c 0
 28 573 12 588 12 613 c 0
 12 659 63 688 141 688 c 0
 219 688 268 656 268 606 c 2
 268 450 l 2
 268 439 271 435 279 435 c 0
 282 435 284 436 285 437 c 2
 291 443 l 1xd8
172 465 m 1
 172 552 l 1
 122 537 97 513 97 479 c 0
 97 456 110 439 129 439 c 0
 145 439 158 447 172 465 c 1
EndSplineSet
EndChar
StartChar: Lslash
Encoding: 232 321 140
Width: 667
Flags: W
HStem: 0 25<19 27.1111> 651 25<19 36 346.25 368>
VStem: 105 162<79 286 346 381 347 582>
DStem: 390 518 390 457 267 442 267 381
Fore
638 227 m 1
 597 0 l 1
 19 0 l 1
 19 25 l 1
 92 34 105 45 105 96 c 2
 105 286 l 1
 24 237 l 1
 24 298 l 1
 105 347 l 1
 105 580 l 2
 105 631 87 647 19 651 c 1
 19 676 l 1
 368 676 l 1
 368 651 l 1
 281 647 267 634 267 559 c 2
 267 442 l 1
 390 518 l 1
 390 457 l 1
 267 381 l 1
 267 87 l 2
 267 44 286 31 347 31 c 0
 424 31 480 49 521 86 c 0
 556 118 576 149 609 227 c 1
 638 227 l 1
EndSplineSet
EndChar
StartChar: Oslash
Encoding: 233 216 141
Width: 778
Flags: W
HStem: -19 33<389 404> 658 33<371.449 404>
VStem: 35 177<309 359> 566 177<309 359>
DStem: 167 52 202 30 81 -74 131 -74 520 569 540 524 234 151 253 104 635 737 685 737 572 644 607 622
Fore
685 737 m 1
 607 622 l 1
 655 582 674 561 696 523 c 0
 727 468 743 404 743 336 c 0
 743 128 596 -19 389 -19 c 0
 317 -19 265 -5 202 30 c 1
 131 -74 l 1
 81 -74 l 1
 167 52 l 1
 108 103 84 135 61 195 c 0
 44 239 35 286 35 335 c 0
 35 542 183 691 390 691 c 0
 458 691 509 678 572 644 c 1
 635 737 l 1
 685 737 l 1
234 151 m 1
 520 569 l 1
 485 633 448 658 389 658 c 0
 276 658 212 539 212 328 c 0
 212 254 217 212 234 151 c 1
540 524 m 1
 253 104 l 1
 287 40 326 14 389 14 c 0
 505 14 566 124 566 331 c 0
 566 411 560 459 540 524 c 1
EndSplineSet
KernsSLIF: 65 -52 0 0
EndChar
StartChar: OE
Encoding: 234 338 142
Width: 1000
Flags: W
HStem: 0 35<677 939> 475 201<528 940> 641 35<528 711> 652 32<357 391>
VStem: 22 170<314 364> 472 155<154 333 212 615>
Fore
981 211 m 1xac
 939 0 l 1
 509 0 l 2
 460 0 425 -1 402 -3 c 0
 387 -4 372 -5 358 -5 c 0
 269 -5 192 19 137 64 c 0
 64 124 22 222 22 334 c 0
 22 542 161 684 364 684 c 0x9c
 377 684 430 681 523 676 c 2xac
 528 676 l 1
 940 676 l 1
 940 475 l 1
 914 475 l 1xcc
 900 554 884 586 843 612 c 0
 814 630 753 641 682 641 c 0
 640 641 627 635 627 615 c 2
 627 366 l 1
 734 369 752 387 778 514 c 1
 801 514 l 1
 801 176 l 1
 778 176 l 1
 763 295 733 327 627 333 c 1
 627 83 l 2
 627 44 641 35 700 35 c 0
 772 35 822 50 864 83 c 0
 900 112 921 142 954 211 c 1
 981 211 l 1xac
472 212 m 2
 472 503 l 2
 472 575 468 601 454 622 c 0
 440 642 413 652 377 652 c 0
 255 652 192 540 192 320 c 0
 192 229 208 138 232 96 c 0
 259 48 299 27 366 27 c 0
 410 27 434 36 451 58 c 0
 468 79 472 112 472 212 c 2
EndSplineSet
EndChar
StartChar: ordmasculine
Encoding: 235 186 143
Width: 330
Flags: W
HStem: 397 20<161 168> 667 21<165 167>
VStem: 18 97<524 558> 214 98<524 558>
Fore
165 688 m 0
 249 688 312 626 312 543 c 0
 312 457 250 397 163 397 c 0
 80 397 18 459 18 542 c 0
 18 626 81 688 165 688 c 0
165 667 m 0
 127 667 115 635 115 538 c 0
 115 449 128 417 164 417 c 0
 201 417 214 447 214 536 c 0
 214 636 202 667 165 667 c 0
EndSplineSet
EndChar
StartChar: ae
Encoding: 241 230 144
Width: 722
Flags: W
HStem: -9 70<484 549> 248 37<434 688> 441 32<208 236 496 514>
VStem: 33 144<94 121> 50 132<337 355> 296 138<81 248 280 328.126> 567 121<248 287>
Fore
672 128 m 1xee
 693 113 l 1
 634 23 579 -9 484 -9 c 0
 414 -9 375 13 337 75 c 1
 331 69 l 2
 275 13 216 -14 151 -14 c 0
 74 -14 33 24 33 94 c 0xf6
 33 138 51 171 90 198 c 0
 122 221 167 238 296 280 c 1
 296 360 l 2
 296 418 274 441 218 441 c 0
 180 441 153 426 153 406 c 0
 153 399 156 394 165 384 c 0
 178 369 182 360 182 341 c 0
 182 305 159 284 119 284 c 0
 77 284 50 309 50 348 c 0
 50 420 127 473 232 473 c 0
 298 473 336 459 374 422 c 1
 411 458 449 473 501 473 c 0
 575 473 636 436 666 375 c 0
 683 340 688 310 688 248 c 1
 434 248 l 1
 434 225 l 2
 434 110 468 61 549 61 c 0
 598 61 633 80 672 128 c 1xee
296 81 m 1
 296 248 l 1
 208 216 177 183 177 121 c 0
 177 74 197 49 234 49 c 0
 257 49 272 56 296 81 c 1
434 285 m 1
 567 285 l 1
 567 318 l 2
 567 411 551 443 504 443 c 0
 452 443 434 403 434 285 c 1
EndSplineSet
KernsSLIF: 121 -37 0 0 119 -35 0 0 118 -34 0 0
EndChar
StartChar: dotlessi
Encoding: 245 305 145
Width: 278
Flags: W
HStem: 0 21G<16 255> 441 20G<16 208>
VStem: 69 139<64.2914 385>
Fore
208 461 m 1
 208 81 l 2
 208 43 220 29 255 24 c 1
 255 0 l 1
 16 0 l 1
 16 24 l 1
 62 35 69 43 69 84 c 2
 69 378 l 2
 69 419 60 428 16 437 c 1
 16 461 l 1
 208 461 l 1
EndSplineSet
EndChar
StartChar: lslash
Encoding: 248 322 146
Width: 278
Flags: W
HStem: 0 24<16 27.3333 222 255> 652 24<16 27.6667>
VStem: 67 139<84 311 360 400 361 676>
DStem: 67 361 67 311 -22 289 -22 239 303 530 303 480 206 450 206 400
Fore
206 400 m 1
 206 84 l 2
 206 44 222 25 255 24 c 1
 255 0 l 1
 16 0 l 1
 16 24 l 1
 50 27 67 47 67 84 c 2
 67 311 l 1
 -22 239 l 1
 -22 289 l 1
 67 361 l 1
 67 594 l 2
 67 631 51 649 16 652 c 1
 16 676 l 1
 206 676 l 1
 206 450 l 1
 303 530 l 1
 303 480 l 1
 206 400 l 1
EndSplineSet
EndChar
StartChar: oslash
Encoding: 249 248 147
Width: 500
Flags: W
HStem: -14 31<237.572 254> 442 31<252 254>
VStem: 25 147<208 245> 329 147<208 245>
DStem: 110 36 144 13 34 -92 81 -92 316 382 327 324 173 140 183 80 415 549 461 549 355 448 388 426
Fore
461 549 m 1
 388 426 l 1
 449 371 476 311 476 229 c 0
 476 89 380 -14 251 -14 c 0
 211 -14 180 -6 144 13 c 1
 81 -92 l 1
 34 -92 l 1
 110 36 l 1
 50 92 25 150 25 229 c 0
 25 369 122 473 252 473 c 0
 290 473 320 466 355 448 c 1
 415 549 l 1
 461 549 l 1
173 140 m 1
 316 382 l 1
 303 425 285 442 252 442 c 0
 190 442 172 390 172 210 c 0
 172 182 172 160 173 140 c 1
327 324 m 1
 183 80 l 1
 196 35 216 17 251 17 c 0
 309 17 329 70 329 219 c 0
 329 247 328 277 327 324 c 1
EndSplineSet
EndChar
StartChar: oe
Encoding: 250 339 148
Width: 722
Flags: W
HStem: -14 30<237 251> 245 37<444 693> 444 29<229 250 497 519>
VStem: 22 145<209 250> 308 136<149 245 149 340>
Fore
676 125 m 1
 696 109 l 1
 631 16 582 -14 498 -14 c 0
 446 -14 413 0 383 34 c 1
 343 0 302 -14 245 -14 c 0
 113 -14 22 85 22 229 c 0
 22 371 116 473 248 473 c 0
 302 473 338 459 373 424 c 1
 422 462 452 473 502 473 c 0
 576 473 632 442 663 383 c 0
 682 347 689 314 693 245 c 1
 444 245 l 1
 444 228 l 1
 444 225 l 1
 442 116 481 58 558 58 c 0
 604 58 631 73 676 125 c 1
444 282 m 1
 571 282 l 1
 570 307 569 328 569 338 c 0
 566 413 549 444 509 444 c 0
 467 444 444 407 444 336 c 2
 444 282 l 1
308 149 m 2
 308 311 l 2
 308 407 289 444 239 444 c 0
 184 444 167 398 167 248 c 0
 167 74 186 16 242 16 c 0
 288 16 308 57 308 149 c 2
EndSplineSet
EndChar
StartChar: germandbls
Encoding: 251 223 149
Width: 556
Flags: W
HStem: -12 35<310 328> 663 28<258 281>
VStem: 19 190<0 586> 70 139<67 586> 339 137<528 549> 371 146<179 213>
Fore
70 87 m 2xd0
 70 507 l 2
 70 614 156 691 277 691 c 0
 391 691 476 625 476 537 c 0xd8
 476 495 455 457 417 431 c 0
 391 413 369 404 320 393 c 1
 401 369 435 353 467 322 c 0
 500 291 517 247 517 194 c 0
 517 80 433 -12 328 -12 c 0
 310 -12 294 -8 264 3 c 1
 278 37 l 1
 288 30 l 2
 297 24 301 23 310 23 c 0
 357 23 371 63 371 195 c 0xc4
 371 282 359 331 333 354 c 0
 318 366 302 371 269 373 c 1
 269 407 l 1
 326 408 339 431 339 530 c 0
 339 624 318 663 268 663 c 0
 230 663 209 636 209 586 c 2
 209 0 l 1
 19 0 l 1
 19 24 l 1xe8
 62 31 70 41 70 87 c 2xd0
EndSplineSet
EndChar
StartChar: Adieresis
Encoding: 256 196 150
Width: 722
Flags: W
HStem: 0 25<197.25 212 680 689> 197 39<189 399> 670 20G<329 357> 748 129<237 239 446 458>
VStem: 173 129<809 817> 383 129<809 816>
DStem: 283 479 357 690 384 236 580 164 329 690 283 479 107 142 189 236 329 690 174 197 107 142 159 158
Fore
237 877 m 0
 272 877 302 847 302 811 c 0
 302 776 273 748 237 748 c 0
 202 748 173 778 173 813 c 0
 173 847 203 877 237 877 c 0
446 877 m 0
 482 877 512 847 512 811 c 0
 512 776 483 748 446 748 c 0
 411 748 383 777 383 814 c 0
 383 847 413 877 446 877 c 0
689 25 m 1
 689 0 l 1
 365 0 l 1
 365 25 l 1
 379 27 392 28 397 28 c 0
 432 30 445 40 445 61 c 0
 445 83 433 119 399 197 c 1
 174 197 l 1
 159 158 l 2
 138 104 130 79 130 66 c 0
 130 40 153 29 212 25 c 1
 212 0 l 1
 9 0 l 1
 9 25 l 1
 57 34 69 49 107 142 c 2
 329 690 l 1
 357 690 l 1
 580 164 l 2
 630 46 646 25 685 25 c 2
 689 25 l 1
189 236 m 1
 384 236 l 1
 283 479 l 1
 189 236 l 1
EndSplineSet
KernsSLIF: 121 -83 0 0 119 -79 0 0 118 -84 0 0 117 -30 0 0 116 -27 0 0 39 -108 0 0 186 -76 0 0 113 -38 0 0 111 -37 0 0 45 -30 0 0 172 -67 0 0 171 -53 0 0 103 -7 0 0 100 -28 0 0 44 1 0 0 99 -35 0 0 98 -22 0 0 97 -5 0 0 89 -74 0 0 87 -116 0 0 86 -130 0 0 85 -66 0 0 84 -59 0 0 81 -68 0 0 79 -68 0 0 71 -68 0 0 67 -73 0 0
Ligature: 0 0 'liga' A uni0308
EndChar
StartChar: Aacute
Encoding: 257 193 151
Width: 722
Flags: W
HStem: 0 25<197.25 212 680 689> 197 39<189 399> 670 20G<329 357>
DStem: 283 479 357 690 384 236 580 164 329 690 283 479 107 142 189 236 329 690 174 197 107 142 159 158
Fore
262 738 m 1
 399 895 l 2
 416 914 433 923 452 923 c 0
 481 923 500 905 500 879 c 0
 500 856 492 846 460 826 c 2
 318 738 l 1
 262 738 l 1
689 25 m 1
 689 0 l 1
 365 0 l 1
 365 25 l 1
 379 27 392 28 397 28 c 0
 432 30 445 40 445 61 c 0
 445 83 433 119 399 197 c 1
 174 197 l 1
 159 158 l 2
 138 104 130 79 130 66 c 0
 130 40 153 29 212 25 c 1
 212 0 l 1
 9 0 l 1
 9 25 l 1
 57 34 69 49 107 142 c 2
 329 690 l 1
 357 690 l 1
 580 164 l 2
 630 46 646 25 685 25 c 2
 689 25 l 1
189 236 m 1
 384 236 l 1
 283 479 l 1
 189 236 l 1
EndSplineSet
KernsSLIF: 121 -83 0 0 119 -79 0 0 118 -84 0 0 117 -30 0 0 116 -27 0 0 39 -108 0 0 113 -38 0 0 111 -37 0 0 45 -30 0 0 172 -67 0 0 171 -53 0 0 103 -7 0 0 101 -32 0 0 100 -28 0 0 44 1 0 0 99 -35 0 0 98 -22 0 0 97 -5 0 0 89 -74 0 0 87 -116 0 0 86 -130 0 0 85 -66 0 0 84 -59 0 0 81 -68 0 0 79 -68 0 0 71 -68 0 0 67 -73 0 0
Ligature: 0 0 'liga' A acutecomb
EndChar
StartChar: Agrave
Encoding: 258 192 152
Width: 722
Flags: W
HStem: 0 25<197.25 212 680 689> 197 39<189 399> 670 20G<329 357>
DStem: 283 479 357 690 384 236 580 164 329 690 283 479 107 142 189 236 329 690 174 197 107 142 159 158
Fore
435 738 m 1
 379 738 l 1
 237 826 l 2
 208 844 197 858 197 878 c 0
 197 903 218 923 244 923 c 0
 263 923 282 913 298 895 c 2
 435 738 l 1
689 25 m 1
 689 0 l 1
 365 0 l 1
 365 25 l 1
 379 27 392 28 397 28 c 0
 432 30 445 40 445 61 c 0
 445 83 433 119 399 197 c 1
 174 197 l 1
 159 158 l 2
 138 104 130 79 130 66 c 0
 130 40 153 29 212 25 c 1
 212 0 l 1
 9 0 l 1
 9 25 l 1
 57 34 69 49 107 142 c 2
 329 690 l 1
 357 690 l 1
 580 164 l 2
 630 46 646 25 685 25 c 2
 689 25 l 1
189 236 m 1
 384 236 l 1
 283 479 l 1
 189 236 l 1
EndSplineSet
KernsSLIF: 44 1 0 0 89 -74 0 0 87 -116 0 0 86 -130 0 0 85 -66 0 0 84 -59 0 0 81 -68 0 0 79 -68 0 0 71 -68 0 0 67 -73 0 0
Ligature: 0 0 'liga' A gravecomb
EndChar
StartChar: Acircumflex
Encoding: 259 194 153
Width: 722
Flags: W
HStem: 0 25<197.25 212 680 689> 197 39<189 399> 670 20G<329 357>
DStem: 283 479 357 690 384 236 580 164 329 690 283 479 107 142 189 236 329 690 174 197 107 142 159 158
Fore
455 738 m 1
 343 836 l 1
 231 738 l 1
 175 738 l 1
 297 914 l 1
 389 914 l 1
 512 738 l 1
 455 738 l 1
689 25 m 1
 689 0 l 1
 365 0 l 1
 365 25 l 1
 379 27 392 28 397 28 c 0
 432 30 445 40 445 61 c 0
 445 83 433 119 399 197 c 1
 174 197 l 1
 159 158 l 2
 138 104 130 79 130 66 c 0
 130 40 153 29 212 25 c 1
 212 0 l 1
 9 0 l 1
 9 25 l 1
 57 34 69 49 107 142 c 2
 329 690 l 1
 357 690 l 1
 580 164 l 2
 630 46 646 25 685 25 c 2
 689 25 l 1
189 236 m 1
 384 236 l 1
 283 479 l 1
 189 236 l 1
EndSplineSet
KernsSLIF: 44 1 0 0 89 -74 0 0 87 -116 0 0 86 -130 0 0 85 -66 0 0 84 -59 0 0 81 -68 0 0 79 -68 0 0 71 -68 0 0 67 -73 0 0
Ligature: 0 0 'liga' A uni0302
EndChar
StartChar: Abreve
Encoding: 260 258 154
Width: 722
Flags: W
HStem: 0 25<197.25 212 680 689> 197 39<189 399> 670 20G<329 357> 738 76<344 365>
DStem: 283 479 357 690 384 236 580 164 329 690 283 479 107 142 189 236 329 690 174 197 107 142 159 158
Fore
452 901 m 1
 496 901 l 1
 490 850 483 825 466 799 c 0
 440 758 399 738 344 738 c 0
 291 738 249 757 224 793 c 0
 203 821 196 846 193 901 c 1
 237 901 l 1
 248 840 280 814 344 814 c 0
 406 814 435 838 452 901 c 1
689 25 m 1
 689 0 l 1
 365 0 l 1
 365 25 l 1
 379 27 392 28 397 28 c 0
 432 30 445 40 445 61 c 0
 445 83 433 119 399 197 c 1
 174 197 l 1
 159 158 l 2
 138 104 130 79 130 66 c 0
 130 40 153 29 212 25 c 1
 212 0 l 1
 9 0 l 1
 9 25 l 1
 57 34 69 49 107 142 c 2
 329 690 l 1
 357 690 l 1
 580 164 l 2
 630 46 646 25 685 25 c 2
 689 25 l 1
189 236 m 1
 384 236 l 1
 283 479 l 1
 189 236 l 1
EndSplineSet
Ligature: 0 0 'liga' A uni0306
EndChar
StartChar: Atilde
Encoding: 261 195 155
Width: 722
Flags: W
HStem: 0 25<197.25 212 680 689> 197 39<189 399> 670 20G<329 357> 757 78<415 435> 806 78<258 283>
DStem: 283 479 357 690 384 236 580 164 329 690 283 479 107 142 189 236 329 690 174 197 107 142 159 158
Fore
209 759 m 1xe8
 167 759 l 1
 185 845 221 884 283 884 c 0xe8
 304 884 328 878 356 865 c 2
 396 847 l 2
 420 836 424 835 435 835 c 0xf0
 462 835 476 848 489 884 c 1
 532 884 l 1xe8
 509 797 472 757 415 757 c 0xf0
 395 757 370 763 351 771 c 2
 322 784 l 2
 279 803 271 806 258 806 c 0
 232 806 213 787 209 759 c 1xe8
689 25 m 1
 689 0 l 1
 365 0 l 1
 365 25 l 1
 379 27 392 28 397 28 c 0
 432 30 445 40 445 61 c 0
 445 83 433 119 399 197 c 1
 174 197 l 1
 159 158 l 2
 138 104 130 79 130 66 c 0
 130 40 153 29 212 25 c 1
 212 0 l 1
 9 0 l 1
 9 25 l 1
 57 34 69 49 107 142 c 2
 329 690 l 1
 357 690 l 1
 580 164 l 2
 630 46 646 25 685 25 c 2
 689 25 l 1
189 236 m 1
 384 236 l 1
 283 479 l 1
 189 236 l 1
EndSplineSet
KernsSLIF: 44 1 0 0 89 -74 0 0 87 -116 0 0 86 -130 0 0 85 -66 0 0 84 -59 0 0 81 -68 0 0 79 -68 0 0 71 -68 0 0 67 -73 0 0
Ligature: 0 0 'liga' A tildecomb
EndChar
StartChar: Aring
Encoding: 262 197 156
Width: 722
Flags: W
HStem: 0 25<197.25 212 680 689> 197 39<189 399> 670 20G<329 357> 735 48<329 345> 900 48<330 346>
VStem: 235 48<831 849> 400 48<831 849>
DStem: 283 479 357 690 384 236 580 164 329 690 283 479 107 142 189 236 329 690 174 197 107 142 159 158
Fore
342 948 m 0
 400 948 448 899 448 841 c 0
 448 782 400 735 341 735 c 0
 282 735 235 783 235 843 c 0
 235 899 284 948 342 948 c 0
341 900 m 0
 310 900 283 872 283 841 c 0
 283 809 309 783 340 783 c 0
 373 783 400 809 400 840 c 0
 400 872 373 900 341 900 c 0
689 25 m 1
 689 0 l 1
 365 0 l 1
 365 25 l 1
 379 27 392 28 397 28 c 0
 432 30 445 40 445 61 c 0
 445 83 433 119 399 197 c 1
 174 197 l 1
 159 158 l 2
 138 104 130 79 130 66 c 0
 130 40 153 29 212 25 c 1
 212 0 l 1
 9 0 l 1
 9 25 l 1
 57 34 69 49 107 142 c 2
 329 690 l 1
 357 690 l 1
 580 164 l 2
 630 46 646 25 685 25 c 2
 689 25 l 1
189 236 m 1
 384 236 l 1
 283 479 l 1
 189 236 l 1
EndSplineSet
KernsSLIF: 121 -83 0 0 119 -79 0 0 118 -84 0 0 117 -30 0 0 116 -27 0 0 39 -108 0 0 186 -76 0 0 113 -38 0 0 111 -37 0 0 45 -30 0 0 172 -67 0 0 171 -53 0 0 103 -7 0 0 101 -32 0 0 100 -28 0 0 44 1 0 0 99 -35 0 0 98 -22 0 0 97 -5 0 0 89 -74 0 0 87 -116 0 0 86 -130 0 0 85 -66 0 0 84 -59 0 0 81 -68 0 0 79 -68 0 0 71 -68 0 0 67 -73 0 0
Ligature: 0 0 'liga' A uni030A
EndChar
StartChar: Aogonek
Encoding: 263 260 157
Width: 722
Flags: W
HStem: -173 69<699 740> 0 25<197 212 365 379> 197 39<189 399> 670 20G<329 357>
VStem: 593 84<-92 -40>
DStem: 283 479 357 690 384 236 580 164 329 690 283 479 107 142 189 236 329 690 174 197 107 142 159 157
Fore
689 25 m 1
 689 0 l 1
 680 -10 677 -21 677 -40 c 0
 677 -81 699 -104 740 -104 c 0
 755 -104 766 -101 786 -91 c 0
 794 -87 795 -86 800 -84 c 1
 822 -98 l 1
 797 -144 749 -173 699 -173 c 0
 638 -173 593 -139 593 -92 c 0
 593 -64 602 -45 636 0 c 1
 365 0 l 1
 365 25 l 1
 379 26 392 27 397 28 c 0
 432 30 445 39 445 61 c 0
 445 83 433 119 399 197 c 1
 174 197 l 1
 159 157 l 1
 138 104 130 79 130 66 c 0
 130 40 152 29 212 25 c 1
 212 0 l 1
 9 0 l 1
 9 25 l 1
 57 34 69 48 107 142 c 2
 329 690 l 1
 357 690 l 1
 580 164 l 2
 633 40 645 25 689 25 c 1
189 236 m 1
 384 236 l 1
 283 479 l 1
 189 236 l 1
EndSplineSet
Ligature: 0 0 'liga' A uni0328
EndChar
StartChar: Ccedilla
Encoding: 264 199 158
Width: 722
Flags: W
HStem: -218 41<349 372> -100 41<363 414> -19 48<401 429> 658 33<395 418>
VStem: 49 177<309 359> 409 93<-139 -127>
DStem: 292 -163 292 -163 276 -200 298 -165 359 -17 401 -19 324 -96 381 -64
Fore
401 -19 m 1
 381 -64 l 1
 393 -60 401 -59 414 -59 c 0
 469 -59 502 -85 502 -129 c 0
 502 -184 452 -218 372 -218 c 0
 339 -218 312 -213 276 -200 c 1
 292 -163 l 1
 298 -165 l 2
 323 -174 335 -177 351 -177 c 0
 388 -177 409 -162 409 -136 c 0
 409 -114 392 -100 363 -100 c 0
 354 -100 346 -101 335 -104 c 1
 324 -96 l 1
 359 -17 l 1
 356 -16 l 2
 174 2 49 144 49 332 c 0
 49 537 198 691 397 691 c 0
 445 691 493 680 552 656 c 0
 574 646 589 642 598 642 c 0
 617 642 628 653 642 688 c 1
 669 688 l 1
 669 454 l 1
 644 454 l 1
 609 530 586 563 543 602 c 0
 500 640 457 658 410 658 c 0
 290 658 226 548 226 341 c 0
 226 241 240 169 269 116 c 0
 298 64 361 29 427 29 c 0
 455 29 488 35 517 47 c 0
 566 66 598 90 657 152 c 1
 687 127 l 1
 593 20 518 -18 401 -19 c 1
EndSplineSet
KernsSLIF: 65 -33 0 0
Ligature: 0 0 'liga' C uni0327
EndChar
StartChar: Cacute
Encoding: 265 262 159
Width: 722
Flags: W
HStem: -19 48<403 429> 658 33<395 418>
VStem: 49 177<316 350>
Fore
321 738 m 1
 458 895 l 2
 475 914 492 923 511 923 c 0
 540 923 559 905 559 879 c 0
 559 856 551 846 519 826 c 2
 377 738 l 1
 321 738 l 1
657 152 m 1
 687 127 l 1
 642 77 620 57 588 35 c 0
 533 -2 474 -19 403 -19 c 0
 196 -19 49 127 49 333 c 0
 49 537 198 691 397 691 c 0
 445 691 493 680 552 656 c 0
 574 646 589 642 598 642 c 0
 617 642 628 653 642 688 c 1
 669 688 l 1
 669 454 l 1
 644 454 l 1
 609 530 586 563 543 602 c 0
 500 640 457 658 410 658 c 0
 290 658 226 548 226 341 c 0
 226 241 240 169 269 116 c 0
 298 64 361 29 427 29 c 0
 455 29 488 35 517 47 c 0
 566 66 598 90 657 152 c 1
EndSplineSet
Ligature: 0 0 'liga' C acutecomb
EndChar
StartChar: Ccaron
Encoding: 266 268 160
Width: 722
Flags: W
HStem: -19 48<403 429> 658 33<395 418>
VStem: 49 177<316 350>
Fore
570 915 m 1
 447 739 l 1
 355 739 l 1
 233 915 l 1
 289 915 l 1
 401 816 l 1
 513 915 l 1
 570 915 l 1
657 152 m 1
 687 127 l 1
 642 77 620 57 588 35 c 0
 533 -2 474 -19 403 -19 c 0
 196 -19 49 127 49 333 c 0
 49 537 198 691 397 691 c 0
 445 691 493 680 552 656 c 0
 574 646 589 642 598 642 c 0
 617 642 628 653 642 688 c 1
 669 688 l 1
 669 454 l 1
 644 454 l 1
 609 530 586 563 543 602 c 0
 500 640 457 658 410 658 c 0
 290 658 226 548 226 341 c 0
 226 241 240 169 269 116 c 0
 298 64 361 29 427 29 c 0
 455 29 488 35 517 47 c 0
 566 66 598 90 657 152 c 1
EndSplineSet
Ligature: 0 0 'liga' C uni030C
EndChar
StartChar: Dcaron
Encoding: 267 270 161
Width: 722
Flags: W
HStem: 0 25<16 45> 0 35<303 337> 642 34<16 337> 651 25<16 26.6667>
VStem: 99 162<79 593> 518 174<319 369>
Fore
99 91 m 2x8c
 99 584 l 2
 99 630 80 645 16 651 c 1x9c
 16 676 l 1
 321 676 l 2
 552 676 692 551 692 345 c 0
 692 138 548 0 332 0 c 2x6c
 16 0 l 1
 16 25 l 1
 74 27 99 47 99 91 c 2x8c
261 607 m 2
 261 93 l 2
 261 48 274 35 319 35 c 0
 384 35 432 58 466 104 c 0
 498 149 518 235 518 330 c 0
 518 414 504 487 477 540 c 0
 443 609 392 642 320 642 c 0x6c
 281 642 261 630 261 607 c 2
531 914 m 1
 408 738 l 1
 316 738 l 1
 194 914 l 1
 250 914 l 1
 362 815 l 1
 474 914 l 1
 531 914 l 1
EndSplineSet
Ligature: 0 0 'liga' D uni030C
EndChar
StartChar: Edieresis
Encoding: 268 203 162
Width: 667
Flags: W
HStem: 0 25<16 25.25> 329 34<266 294.006> 475 201<16 593> 642 34<16 371> 651 25<16 33.25> 747 129<212.208 226 432 434>
VStem: 104 162<79 329 96 597> 159 129<808 816> 369 129<808 817>
Fore
223 876 m 0xc580
 258 876 288 846 288 810 c 0
 288 775 259 747 223 747 c 0
 188 747 159 777 159 812 c 0
 159 846 189 876 223 876 c 0xc580
432 876 m 0
 468 876 498 846 498 810 c 0
 498 775 469 747 432 747 c 0
 397 747 369 776 369 813 c 0
 369 846 399 876 432 876 c 0
593 676 m 1xe680
 593 475 l 1
 568 475 l 1xe680
 543 608 494 642 331 642 c 0xd680
 279 642 266 633 266 595 c 2
 266 363 l 1
 374 362 413 398 428 512 c 1
 454 512 l 1
 454 174 l 1
 428 174 l 1
 416 290 375 329 266 329 c 1
 266 87 l 2
 266 44 285 31 349 31 c 0
 425 31 480 47 526 84 c 0
 562 113 582 141 613 208 c 1
 641 208 l 1
 601 0 l 1
 16 0 l 1
 16 25 l 1
 90 33 104 44 104 96 c 2
 104 580 l 2
 104 631 85 647 16 651 c 1xce80
 16 676 l 1
 593 676 l 1xe680
EndSplineSet
Ligature: 0 0 'liga' E uni0308
EndChar
StartChar: Eacute
Encoding: 269 201 163
Width: 667
Flags: W
HStem: 0 25<16 25.25> 329 34<266 294.006> 475 201<16 593> 642 34<16 369> 651 25<16 33.25>
VStem: 104 162<79 329 96 597>
Fore
246 738 m 1xc4
 383 895 l 2
 400 914 417 923 436 923 c 0
 465 923 484 905 484 879 c 0
 484 856 476 846 444 826 c 2
 302 738 l 1
 246 738 l 1xc4
593 676 m 1xe4
 593 475 l 1
 568 475 l 1xe4
 543 608 494 642 331 642 c 0xd4
 279 642 266 633 266 595 c 2
 266 363 l 1
 374 362 413 398 428 512 c 1
 454 512 l 1
 454 174 l 1
 428 174 l 1
 416 290 375 329 266 329 c 1
 266 87 l 2
 266 44 285 31 349 31 c 0
 425 31 480 47 526 84 c 0
 562 113 582 141 613 208 c 1
 641 208 l 1
 601 0 l 1
 16 0 l 1
 16 25 l 1
 90 33 104 44 104 96 c 2
 104 580 l 2
 104 631 85 647 16 651 c 1xcc
 16 676 l 1
 593 676 l 1xe4
EndSplineSet
Ligature: 0 0 'liga' E acutecomb
EndChar
StartChar: Egrave
Encoding: 270 200 164
Width: 667
Flags: W
HStem: 0 25<16 25.25> 329 34<266 294.006> 475 201<16 593> 642 34<16 369> 651 25<16 33.25>
VStem: 104 162<79 329 96 597>
Fore
406 738 m 1xc4
 350 738 l 1
 208 826 l 2
 179 844 168 858 168 878 c 0
 168 903 189 923 215 923 c 0
 234 923 253 913 269 895 c 2
 406 738 l 1xc4
593 676 m 1xe4
 593 475 l 1
 568 475 l 1xe4
 543 608 494 642 331 642 c 0xd4
 279 642 266 633 266 595 c 2
 266 363 l 1
 374 362 413 398 428 512 c 1
 454 512 l 1
 454 174 l 1
 428 174 l 1
 416 290 375 329 266 329 c 1
 266 87 l 2
 266 44 285 31 349 31 c 0
 425 31 480 47 526 84 c 0
 562 113 582 141 613 208 c 1
 641 208 l 1
 601 0 l 1
 16 0 l 1
 16 25 l 1
 90 33 104 44 104 96 c 2
 104 580 l 2
 104 631 85 647 16 651 c 1xcc
 16 676 l 1
 593 676 l 1xe4
EndSplineSet
Ligature: 0 0 'liga' E gravecomb
EndChar
StartChar: Ecircumflex
Encoding: 271 202 165
Width: 667
Flags: W
HStem: 0 25<16 25.25> 329 34<266 294.006> 475 201<16 593> 642 34<16 375> 651 25<16 33.25>
VStem: 104 162<79 329 96 597>
Fore
439 738 m 1xc4
 327 836 l 1
 215 738 l 1
 159 738 l 1
 281 914 l 1
 373 914 l 1
 496 738 l 1
 439 738 l 1xc4
593 676 m 1xe4
 593 475 l 1
 568 475 l 1xe4
 543 608 494 642 331 642 c 0xd4
 279 642 266 633 266 595 c 2
 266 363 l 1
 374 362 413 398 428 512 c 1
 454 512 l 1
 454 174 l 1
 428 174 l 1
 416 290 375 329 266 329 c 1
 266 87 l 2
 266 44 285 31 349 31 c 0
 425 31 480 47 526 84 c 0
 562 113 582 141 613 208 c 1
 641 208 l 1
 601 0 l 1
 16 0 l 1
 16 25 l 1
 90 33 104 44 104 96 c 2
 104 580 l 2
 104 631 85 647 16 651 c 1xcc
 16 676 l 1
 593 676 l 1xe4
EndSplineSet
Ligature: 0 0 'liga' E uni0302
EndChar
StartChar: Ecaron
Encoding: 272 282 166
Width: 667
Flags: W
HStem: 0 25<16 25.25> 329 34<266 294.006> 475 201<16 593> 642 34<16 369> 651 25<16 33.25>
VStem: 104 162<79 329 96 597>
Fore
502 914 m 1xc4
 379 738 l 1
 287 738 l 1
 165 914 l 1
 221 914 l 1
 333 815 l 1
 445 914 l 1
 502 914 l 1xc4
593 676 m 1xe4
 593 475 l 1
 568 475 l 1xe4
 543 608 494 642 331 642 c 0xd4
 279 642 266 633 266 595 c 2
 266 363 l 1
 374 362 413 398 428 512 c 1
 454 512 l 1
 454 174 l 1
 428 174 l 1
 416 290 375 329 266 329 c 1
 266 87 l 2
 266 44 285 31 349 31 c 0
 425 31 480 47 526 84 c 0
 562 113 582 141 613 208 c 1
 641 208 l 1
 601 0 l 1
 16 0 l 1
 16 25 l 1
 90 33 104 44 104 96 c 2
 104 580 l 2
 104 631 85 647 16 651 c 1xcc
 16 676 l 1
 593 676 l 1xe4
EndSplineSet
Ligature: 0 0 'liga' E uni030C
EndChar
StartChar: Edotaccent
Encoding: 273 278 167
Width: 667
Flags: W
HStem: 0 25<16 25.25> 329 34<266 294.006> 475 201<16 593> 642 34<16 369> 651 25<16 33.25> 747 129<332 337>
VStem: 104 162<79 329 96 597> 269 129<808 817>
Fore
332 876 m 0xc7
 368 876 398 846 398 810 c 0
 398 775 369 747 332 747 c 0
 297 747 269 776 269 813 c 0
 269 846 299 876 332 876 c 0xc7
593 676 m 1xe7
 593 475 l 1
 568 475 l 1xe7
 543 608 494 642 331 642 c 0xd7
 279 642 266 633 266 595 c 2
 266 363 l 1
 374 362 413 398 428 512 c 1
 454 512 l 1
 454 174 l 1
 428 174 l 1
 416 290 375 329 266 329 c 1
 266 87 l 2
 266 44 285 31 349 31 c 0
 425 31 480 47 526 84 c 0
 562 113 582 141 613 208 c 1
 641 208 l 1
 601 0 l 1
 16 0 l 1
 16 25 l 1
 90 33 104 44 104 96 c 2
 104 580 l 2
 104 631 85 647 16 651 c 1xcf
 16 676 l 1
 593 676 l 1xe7
EndSplineSet
Ligature: 0 0 'liga' E uni0307
EndChar
StartChar: Eogonek
Encoding: 274 280 168
Width: 667
Flags: W
HStem: -173 69<614 655> 0 25<16 25.25> 329 34<266 294.006> 475 201<16 593> 642 34<16 369> 651 25<16 33.25>
VStem: 104 162<82 329 96 597> 508 84<-92 -47>
Fore
454 512 m 1xeb
 454 174 l 1
 428 174 l 1
 416 290 375 329 266 329 c 1
 266 87 l 2
 266 44 285 31 349 31 c 0
 425 31 480 47 526 84 c 0
 562 113 582 141 613 208 c 1
 641 208 l 1
 607 33 l 1
 592 -37 592 -37 592 -47 c 0
 592 -81 617 -104 655 -104 c 0
 670 -104 681 -101 701 -91 c 0
 709 -87 710 -86 715 -84 c 1
 737 -98 l 1
 712 -144 664 -173 614 -173 c 0
 553 -173 508 -139 508 -92 c 0
 508 -64 517 -45 551 0 c 1
 16 0 l 1
 16 25 l 1
 90 33 104 44 104 96 c 2
 104 580 l 2
 104 631 85 647 16 651 c 1xe7
 16 676 l 1
 593 676 l 1
 593 475 l 1
 568 475 l 1xf3
 543 608 494 642 331 642 c 0
 279 642 266 633 266 595 c 2
 266 363 l 1
 374 362 413 398 428 512 c 1
 454 512 l 1xeb
EndSplineSet
Ligature: 0 0 'liga' E uni0328
EndChar
StartChar: Gbreve
Encoding: 275 286 169
Width: 778
Flags: W
HStem: -19 33<393 422> 262 25<412 429.2 745.625 755> 658 33<383 406> 738 76<388 406>
VStem: 37 177<316 350> 513 156<74 194>
Fore
496 901 m 1
 540 901 l 1
 534 850 527 825 510 799 c 0
 484 758 443 738 388 738 c 0
 335 738 293 757 268 793 c 0
 247 821 240 846 237 901 c 1
 281 901 l 1
 292 840 324 814 388 814 c 0
 450 814 479 838 496 901 c 1
755 287 m 1
 755 262 l 1
 680 254 669 242 669 170 c 2
 669 43 l 1
 605 5 496 -19 393 -19 c 0
 183 -19 37 125 37 331 c 0
 37 537 186 691 385 691 c 0
 433 691 481 680 540 656 c 0
 562 646 577 642 586 642 c 0
 605 642 616 653 630 688 c 1
 657 688 l 1
 657 454 l 1
 632 454 l 1
 597 530 574 564 531 602 c 0
 487 640 444 658 398 658 c 0
 277 658 214 547 214 338 c 0
 214 218 235 132 279 76 c 0
 312 33 354 14 417 14 c 0
 484 14 513 36 513 87 c 2
 513 192 l 2
 513 246 498 257 412 262 c 1
 412 287 l 1
 755 287 l 1
EndSplineSet
Ligature: 0 0 'liga' G uni0306
EndChar
StartChar: Idieresis
Encoding: 276 207 170
Width: 389
Flags: W
HStem: 0 25<16 26.7143 350.8 366> 651 25<16 30.4 341.333 366> 748 129<86 97 295 305>
VStem: 22 129<809 817> 232 129<809 816>
Fore
109 96 m 2
 109 580 l 2
 109 631 88 646 16 651 c 1
 16 676 l 1
 366 676 l 1
 366 651 l 1
 292 648 271 632 271 580 c 2
 271 96 l 2
 271 44 290 30 366 25 c 1
 366 0 l 1
 16 0 l 1
 16 25 l 1
 91 32 109 46 109 96 c 2
86 877 m 0
 121 877 151 847 151 811 c 0
 151 776 122 748 86 748 c 0
 51 748 22 778 22 813 c 0
 22 847 52 877 86 877 c 0
295 877 m 0
 331 877 361 847 361 811 c 0
 361 776 332 748 295 748 c 0
 260 748 232 777 232 814 c 0
 232 847 262 877 295 877 c 0
EndSplineSet
Ligature: 0 0 'liga' I uni0308
EndChar
StartChar: Iacute
Encoding: 277 205 171
Width: 389
Flags: W
HStem: 0 25<16 26.7143 350.8 366> 651 25<16 30.4 341.333 366>
VStem: 109 162<96 593>
Fore
109 96 m 2
 109 580 l 2
 109 631 88 646 16 651 c 1
 16 676 l 1
 366 676 l 1
 366 651 l 1
 292 648 271 632 271 580 c 2
 271 96 l 2
 271 44 290 30 366 25 c 1
 366 0 l 1
 16 0 l 1
 16 25 l 1
 91 32 109 46 109 96 c 2
111 738 m 1
 248 895 l 2
 265 914 282 923 301 923 c 0
 330 923 349 905 349 879 c 0
 349 856 341 846 309 826 c 2
 167 738 l 1
 111 738 l 1
EndSplineSet
Ligature: 0 0 'liga' I acutecomb
EndChar
StartChar: Igrave
Encoding: 278 204 172
Width: 389
Flags: W
HStem: 0 25<16 26.7143 350.8 366> 651 25<16 30.4 341.333 366>
VStem: 109 162<96 593>
Fore
109 96 m 2
 109 580 l 2
 109 631 88 646 16 651 c 1
 16 676 l 1
 366 676 l 1
 366 651 l 1
 292 648 271 632 271 580 c 2
 271 96 l 2
 271 44 290 30 366 25 c 1
 366 0 l 1
 16 0 l 1
 16 25 l 1
 91 32 109 46 109 96 c 2
262 738 m 1
 206 738 l 1
 64 826 l 2
 35 844 24 858 24 878 c 0
 24 903 45 923 71 923 c 0
 90 923 109 913 125 895 c 2
 262 738 l 1
EndSplineSet
Ligature: 0 0 'liga' I gravecomb
EndChar
StartChar: Icircumflex
Encoding: 279 206 173
Width: 389
Flags: W
HStem: 0 25<16 26.7143 350.8 366> 651 25<16 30.4 341.333 366>
VStem: 109 162<96 593>
Fore
109 96 m 2
 109 580 l 2
 109 631 88 646 16 651 c 1
 16 676 l 1
 366 676 l 1
 366 651 l 1
 292 648 271 632 271 580 c 2
 271 96 l 2
 271 44 290 30 366 25 c 1
 366 0 l 1
 16 0 l 1
 16 25 l 1
 91 32 109 46 109 96 c 2
302 739 m 1
 190 837 l 1
 78 739 l 1
 22 739 l 1
 144 915 l 1
 236 915 l 1
 359 739 l 1
 302 739 l 1
EndSplineSet
Ligature: 0 0 'liga' I uni0302
EndChar
StartChar: Idotaccent
Encoding: 280 304 174
Width: 389
Flags: W
HStem: 0 25<16 26.7143 350.8 366> 651 25<16 30.4 341.333 366> 747 129<180.519 194>
VStem: 128 129<808 817>
Fore
109 96 m 2
 109 580 l 2
 109 631 88 646 16 651 c 1
 16 676 l 1
 366 676 l 1
 366 651 l 1
 292 648 271 632 271 580 c 2
 271 96 l 2
 271 44 290 30 366 25 c 1
 366 0 l 1
 16 0 l 1
 16 25 l 1
 91 32 109 46 109 96 c 2
191 876 m 0
 227 876 257 846 257 810 c 0
 257 775 228 747 191 747 c 0
 156 747 128 776 128 813 c 0
 128 846 158 876 191 876 c 0
EndSplineSet
Ligature: 0 0 'liga' I uni0307
EndChar
StartChar: Lacute
Encoding: 281 313 175
Width: 667
Flags: W
HStem: 0 25<16 24.1111> 651 25<16 33 343.25 365>
VStem: 102 162<79 582>
Fore
635 227 m 1
 594 0 l 1
 16 0 l 1
 16 25 l 1
 89 34 102 45 102 96 c 2
 102 580 l 2
 102 631 84 647 16 651 c 1
 16 676 l 1
 365 676 l 1
 365 651 l 1
 278 647 264 634 264 559 c 2
 264 87 l 2
 264 44 283 31 344 31 c 0
 421 31 477 49 518 86 c 0
 553 118 573 149 606 227 c 1
 635 227 l 1
248 738 m 1
 385 895 l 2
 402 914 419 923 438 923 c 0
 467 923 486 905 486 879 c 0
 486 856 478 846 446 826 c 2
 304 738 l 1
 248 738 l 1
EndSplineSet
Ligature: 0 0 'liga' L acutecomb
EndChar
StartChar: Lcaron
Encoding: 282 317 176
Width: 667
Flags: W
HStem: 0 25<19 27.1111> 546 145<497 521> 651 25<19 36 346.25 368>
VStem: 105 162<79 588> 432 165<586 617>
Fore
638 227 m 1xb8
 597 0 l 1
 19 0 l 1
 19 25 l 1
 92 34 105 45 105 96 c 2
 105 580 l 2
 105 631 87 647 19 651 c 1
 19 676 l 1
 368 676 l 1
 368 651 l 1
 281 647 267 634 267 559 c 2
 267 87 l 2
 267 44 286 31 347 31 c 0
 424 31 480 49 521 86 c 0
 556 118 576 149 609 227 c 1
 638 227 l 1xb8
448 390 m 1
 438 409 l 1
 506 457 536 494 536 529 c 0
 536 539 528 548 519 548 c 0
 518 548 515 548 512 547 c 0
 508 546 503 546 499 546 c 0
 458 546 432 574 432 617 c 0
 432 662 462 691 507 691 c 0xd8
 561 691 597 649 597 586 c 0
 597 508 552 449 448 390 c 1
EndSplineSet
Ligature: 0 0 'liga' L uni030C
EndChar
StartChar: Nacute
Encoding: 283 323 177
Width: 722
Flags: W
HStem: 0 25<16 24.1111 234.444 243> 651 25<19 19 486 496.571>
VStem: 104 44<103 526> 579 44<247 575>
DStem: 148 526 230 676 595 -18 579 247
Fore
280 738 m 1
 417 895 l 2
 434 914 451 923 470 923 c 0
 499 923 518 905 518 879 c 0
 518 856 510 846 478 826 c 2
 336 738 l 1
 280 738 l 1
230 676 m 1
 579 247 l 1
 579 552 l 2
 579 623 560 644 486 651 c 1
 486 676 l 1
 701 676 l 1
 701 651 l 1
 636 641 623 628 623 571 c 2
 623 -18 l 1
 595 -18 l 1
 148 526 l 1
 148 124 l 2
 148 53 166 34 243 25 c 1
 243 0 l 1
 16 0 l 1
 16 25 l 1
 89 34 104 48 104 105 c 2
 104 579 l 1
 56 636 39 651 19 651 c 1
 19 676 l 1
 230 676 l 1
EndSplineSet
Ligature: 0 0 'liga' N acutecomb
EndChar
StartChar: Ncaron
Encoding: 284 327 178
Width: 722
Flags: W
HStem: 0 25<16 24.1111 234.444 243> 651 25<19 19 486 496.571>
VStem: 104 44<103 526> 579 44<247 575>
DStem: 148 526 230 676 595 -18 579 247
Fore
530 914 m 1
 407 738 l 1
 315 738 l 1
 193 914 l 1
 249 914 l 1
 361 815 l 1
 473 914 l 1
 530 914 l 1
230 676 m 1
 579 247 l 1
 579 552 l 2
 579 623 560 644 486 651 c 1
 486 676 l 1
 701 676 l 1
 701 651 l 1
 636 641 623 628 623 571 c 2
 623 -18 l 1
 595 -18 l 1
 148 526 l 1
 148 124 l 2
 148 53 166 34 243 25 c 1
 243 0 l 1
 16 0 l 1
 16 25 l 1
 89 34 104 48 104 105 c 2
 104 579 l 1
 56 636 39 651 19 651 c 1
 19 676 l 1
 230 676 l 1
EndSplineSet
Ligature: 0 0 'liga' N uni030C
EndChar
StartChar: Ntilde
Encoding: 285 209 179
Width: 722
Flags: W
HStem: 0 25<16 24.1111 234.444 243> 651 25<19 19 486 496.571> 757 78<420 440> 806 78<263 288>
VStem: 104 44<103 526> 579 44<247 575>
DStem: 148 526 230 676 595 -18 579 247
Fore
214 759 m 1xdc
 172 759 l 1
 190 845 226 884 288 884 c 0xdc
 309 884 333 878 361 865 c 2
 401 847 l 2
 425 836 429 835 440 835 c 0xec
 467 835 481 848 494 884 c 1
 537 884 l 1xdc
 514 797 477 757 420 757 c 0xec
 400 757 375 763 356 771 c 2
 327 784 l 2
 284 803 276 806 263 806 c 0
 237 806 218 787 214 759 c 1xdc
230 676 m 1
 579 247 l 1
 579 552 l 2
 579 623 560 644 486 651 c 1
 486 676 l 1
 701 676 l 1
 701 651 l 1
 636 641 623 628 623 571 c 2
 623 -18 l 1
 595 -18 l 1
 148 526 l 1
 148 124 l 2
 148 53 166 34 243 25 c 1
 243 0 l 1
 16 0 l 1
 16 25 l 1
 89 34 104 48 104 105 c 2
 104 579 l 1
 56 636 39 651 19 651 c 1
 19 676 l 1
 230 676 l 1
EndSplineSet
Ligature: 0 0 'liga' N tildecomb
EndChar
StartChar: Odieresis
Encoding: 286 214 180
Width: 778
Flags: W
HStem: -19 33<389 404> 658 33<386 404> 747 129<277 279 486 488>
VStem: 35 177<316 350> 213 129<808 816> 423 129<808 815> 566 177<316 350>
Fore
277 876 m 0
 312 876 342 846 342 810 c 0
 342 775 313 747 277 747 c 0
 242 747 213 777 213 812 c 0
 213 846 243 876 277 876 c 0
486 876 m 0
 522 876 552 846 552 810 c 0
 552 775 523 747 486 747 c 0
 451 747 423 776 423 813 c 0
 423 846 453 876 486 876 c 0
393 691 m 0
 594 691 743 540 743 336 c 0
 743 129 596 -19 389 -19 c 0
 182 -19 35 128 35 335 c 0
 35 543 184 691 393 691 c 0
392 658 m 0
 275 658 212 542 212 326 c 0
 212 124 274 14 389 14 c 0
 504 14 566 124 566 329 c 0
 566 537 502 658 392 658 c 0
EndSplineSet
KernsSLIF: 89 -59 0 0 88 -51 0 0 87 -54 0 0 86 -60 0 0 84 -9 0 0 65 -55 0 0
Ligature: 0 0 'liga' O uni0308
EndChar
StartChar: Oacute
Encoding: 287 211 181
Width: 778
Flags: W
HStem: -19 33<389 404> 658 33<386 404>
VStem: 35 177<316 350> 566 177<316 350>
Fore
302 738 m 1
 439 895 l 2
 456 914 473 923 492 923 c 0
 521 923 540 905 540 879 c 0
 540 856 532 846 500 826 c 2
 358 738 l 1
 302 738 l 1
393 691 m 0
 594 691 743 540 743 336 c 0
 743 129 596 -19 389 -19 c 0
 182 -19 35 128 35 335 c 0
 35 543 184 691 393 691 c 0
392 658 m 0
 275 658 212 542 212 326 c 0
 212 124 274 14 389 14 c 0
 504 14 566 124 566 329 c 0
 566 537 502 658 392 658 c 0
EndSplineSet
KernsSLIF: 89 -59 0 0 87 -54 0 0 86 -60 0 0 84 -9 0 0 65 -55 0 0
Ligature: 0 0 'liga' O acutecomb
EndChar
StartChar: Ograve
Encoding: 288 210 182
Width: 778
Flags: W
HStem: -19 33<389 408> 658 33<386 408>
VStem: 35 177<316 350> 566 177<316 350>
Fore
462 738 m 1
 406 738 l 1
 264 826 l 2
 235 844 224 858 224 878 c 0
 224 903 245 923 271 923 c 0
 290 923 309 913 325 895 c 2
 462 738 l 1
393 691 m 0
 594 691 743 540 743 336 c 0
 743 129 596 -19 389 -19 c 0
 182 -19 35 128 35 335 c 0
 35 543 184 691 393 691 c 0
392 658 m 0
 275 658 212 542 212 326 c 0
 212 124 274 14 389 14 c 0
 504 14 566 124 566 329 c 0
 566 537 502 658 392 658 c 0
EndSplineSet
KernsSLIF: 89 -59 0 0 86 -60 0 0 84 -9 0 0
Ligature: 0 0 'liga' O gravecomb
EndChar
StartChar: Ocircumflex
Encoding: 289 212 183
Width: 778
Flags: W
HStem: -19 33<389 404> 658 33<379 404>
VStem: 35 177<316 350> 566 177<316 350>
Fore
493 738 m 1
 381 836 l 1
 269 738 l 1
 213 738 l 1
 335 914 l 1
 427 914 l 1
 550 738 l 1
 493 738 l 1
393 691 m 0
 594 691 743 540 743 336 c 0
 743 129 596 -19 389 -19 c 0
 182 -19 35 128 35 335 c 0
 35 543 184 691 393 691 c 0
392 658 m 0
 275 658 212 542 212 326 c 0
 212 124 274 14 389 14 c 0
 504 14 566 124 566 329 c 0
 566 537 502 658 392 658 c 0
EndSplineSet
KernsSLIF: 89 -59 0 0 86 -60 0 0 84 -9 0 0
Ligature: 0 0 'liga' O uni0302
EndChar
StartChar: Otilde
Encoding: 290 213 184
Width: 778
Flags: W
HStem: -19 33<389 404> 658 33<381 404> 757 78<447 467> 806 78<290 315>
VStem: 35 177<316 350> 566 177<316 350>
Fore
241 759 m 1xdc
 199 759 l 1
 217 845 253 884 315 884 c 0xdc
 336 884 360 878 388 865 c 2
 428 847 l 2
 452 836 456 835 467 835 c 0xec
 494 835 508 848 521 884 c 1
 564 884 l 1xdc
 541 797 504 757 447 757 c 0xec
 427 757 402 763 383 771 c 2
 354 784 l 2
 311 803 303 806 290 806 c 0
 264 806 245 787 241 759 c 1xdc
393 691 m 0
 594 691 743 540 743 336 c 0
 743 129 596 -19 389 -19 c 0
 182 -19 35 128 35 335 c 0
 35 543 184 691 393 691 c 0
392 658 m 0
 275 658 212 542 212 326 c 0
 212 124 274 14 389 14 c 0
 504 14 566 124 566 329 c 0
 566 537 502 658 392 658 c 0
EndSplineSet
KernsSLIF: 89 -59 0 0 86 -60 0 0 84 -9 0 0
Ligature: 0 0 'liga' O tildecomb
EndChar
StartChar: Ohungarumlaut
Encoding: 291 336 185
Width: 778
Flags: W
HStem: -19 33<389 408> 658 33<386 408>
VStem: 35 177<316 350> 566 177<316 350>
Fore
210 738 m 1
 347 895 l 2
 364 914 381 923 400 923 c 0
 429 923 448 905 448 879 c 0
 448 856 440 846 408 826 c 2
 266 738 l 1
 210 738 l 1
410 738 m 1
 547 895 l 2
 564 914 581 923 600 923 c 0
 629 923 648 905 648 879 c 0
 648 856 640 846 608 826 c 2
 466 738 l 1
 410 738 l 1
393 691 m 0
 594 691 743 540 743 336 c 0
 743 129 596 -19 389 -19 c 0
 182 -19 35 128 35 335 c 0
 35 543 184 691 393 691 c 0
392 658 m 0
 275 658 212 542 212 326 c 0
 212 124 274 14 389 14 c 0
 504 14 566 124 566 329 c 0
 566 537 502 658 392 658 c 0
EndSplineSet
Ligature: 0 0 'liga' O uni030B
EndChar
StartChar: Racute
Encoding: 292 340 186
Width: 722
Flags: W
HStem: 0 25<16 24.6667 346.2 354 693.125 704.984> 313 32<266 293> 642 34<16 341> 651 25<16 30.8>
VStem: 104 162<117 313 117 600> 449 171<479 513>
Fore
705 25 m 1xec
 705 0 l 1
 500 0 l 1
 293 313 l 1
 266 313 l 1
 266 117 l 2
 266 46 276 35 354 25 c 1
 354 0 l 1
 16 0 l 1
 16 25 l 1
 94 34 104 44 104 117 c 2
 104 559 l 2
 104 631 90 646 16 651 c 1xdc
 16 676 l 1
 338 676 l 2
 521 676 620 613 620 498 c 0
 620 453 604 413 575 386 c 0
 547 361 522 348 463 329 c 1
 664 44 l 1
 674 31 687 25 705 25 c 1xec
266 600 m 2
 266 345 l 1
 342 346 376 353 402 370 c 0
 434 391 449 430 449 494 c 0
 449 599 412 642 320 642 c 0xec
 295 642 279 637 273 627 c 0
 270 621 266 606 266 600 c 2
270 738 m 1
 407 895 l 2
 424 914 441 923 460 923 c 0
 489 923 508 905 508 879 c 0
 508 856 500 846 468 826 c 2
 326 738 l 1
 270 738 l 1
EndSplineSet
Ligature: 0 0 'liga' R acutecomb
EndChar
StartChar: Rcaron
Encoding: 293 344 187
Width: 722
Flags: W
HStem: 0 25<16 24.6667 346.2 354 693.125 704.984> 313 32<266 293> 642 34<16 341> 651 25<16 30.8>
VStem: 104 162<117 313 117 600> 449 171<479 513>
Fore
705 25 m 1xec
 705 0 l 1
 500 0 l 1
 293 313 l 1
 266 313 l 1
 266 117 l 2
 266 46 276 35 354 25 c 1
 354 0 l 1
 16 0 l 1
 16 25 l 1
 94 34 104 44 104 117 c 2
 104 559 l 2
 104 631 90 646 16 651 c 1xdc
 16 676 l 1
 338 676 l 2
 521 676 620 613 620 498 c 0
 620 453 604 413 575 386 c 0
 547 361 522 348 463 329 c 1
 664 44 l 1
 674 31 687 25 705 25 c 1xec
266 600 m 2
 266 345 l 1
 342 346 376 353 402 370 c 0
 434 391 449 430 449 494 c 0
 449 599 412 642 320 642 c 0xec
 295 642 279 637 273 627 c 0
 270 621 266 606 266 600 c 2
520 914 m 1
 397 738 l 1
 305 738 l 1
 183 914 l 1
 239 914 l 1
 351 815 l 1
 463 914 l 1
 520 914 l 1
EndSplineSet
Ligature: 0 0 'liga' R uni030C
EndChar
StartChar: Sacute
Encoding: 294 346 188
Width: 556
Flags: W
HStem: -19 33<253 284> 475 21G<456 484> 660 31<263 276>
VStem: 44 109<488 560> 394 119<128 192>
Fore
199 738 m 1
 336 895 l 2
 353 914 370 923 389 923 c 0
 418 923 437 905 437 879 c 0
 437 856 429 846 397 826 c 2
 255 738 l 1
 199 738 l 1
484 475 m 1
 456 475 l 1
 436 540 420 569 386 604 c 0
 350 641 308 660 263 660 c 0
 195 660 153 622 153 560 c 0
 153 512 175 487 256 447 c 2
 403 374 l 2
 467 342 513 267 513 192 c 0
 513 66 413 -19 265 -19 c 0
 222 -19 185 -12 135 5 c 0
 113 12 102 15 94 15 c 0
 78 15 70 6 64 -19 c 1
 35 -19 l 1
 35 228 l 1
 64 228 l 1
 81 158 95 125 122 88 c 0
 160 39 210 14 268 14 c 0
 345 14 394 59 394 128 c 0
 394 180 370 206 282 248 c 2
 215 280 l 2
 96 337 44 400 44 488 c 0
 44 614 127 691 263 691 c 0
 301 691 333 685 380 669 c 0
 402 661 413 658 422 658 c 0
 439 658 447 666 454 692 c 1
 484 692 l 1
 484 475 l 1
EndSplineSet
Ligature: 0 0 'liga' S acutecomb
EndChar
StartChar: Scaron
Encoding: 295 352 189
Width: 556
Flags: W
HStem: -19 33<254 284> 475 21G<456 484> 660 31<263 280>
VStem: 44 109<488 560> 394 119<128 192>
Fore
446 915 m 1
 323 739 l 1
 231 739 l 1
 109 915 l 1
 165 915 l 1
 277 816 l 1
 389 915 l 1
 446 915 l 1
484 475 m 1
 456 475 l 1
 436 540 420 569 386 604 c 0
 350 641 308 660 263 660 c 0
 195 660 153 622 153 560 c 0
 153 512 175 487 256 447 c 2
 403 374 l 2
 467 342 513 267 513 192 c 0
 513 66 413 -19 265 -19 c 0
 222 -19 185 -12 135 5 c 0
 113 12 102 15 94 15 c 0
 78 15 70 6 64 -19 c 1
 35 -19 l 1
 35 228 l 1
 64 228 l 1
 81 158 95 125 122 88 c 0
 160 39 210 14 268 14 c 0
 345 14 394 59 394 128 c 0
 394 180 370 206 282 248 c 2
 215 280 l 2
 96 337 44 400 44 488 c 0
 44 614 127 691 263 691 c 0
 301 691 333 685 380 669 c 0
 402 661 413 658 422 658 c 0
 439 658 447 666 454 692 c 1
 484 692 l 1
 484 475 l 1
EndSplineSet
Ligature: 0 0 'liga' S uni030C
EndChar
StartChar: Scedilla
Encoding: 296 350 190
Width: 556
Flags: W
HStem: -218 41<233 256> -100 114<247 268> 475 21G<456 484> 660 31<263 276>
VStem: 44 109<488 560> 293 93<-139 -127> 394 119<128 192>
DStem: 242 -18 284 -18 208 -96 265 -64
Fore
484 692 m 1
 484 475 l 1
 456 475 l 1
 436 540 420 569 386 604 c 0
 350 641 308 660 263 660 c 0
 195 660 153 622 153 560 c 0
 153 512 175 487 256 447 c 2
 403 374 l 2
 467 342 513 267 513 192 c 0
 513 119 474 51 411 15 c 0
 377 -4 337 -15 284 -18 c 1
 265 -64 l 1
 277 -60 285 -59 298 -59 c 0
 353 -59 386 -85 386 -129 c 0
 386 -184 336 -218 256 -218 c 0
 223 -218 196 -213 160 -200 c 1
 176 -163 l 1
 178 -164 178 -164 181 -165 c 0
 205 -174 219 -177 235 -177 c 0
 272 -177 293 -162 293 -136 c 0
 293 -114 276 -100 247 -100 c 0
 237 -100 230 -101 219 -104 c 1
 208 -96 l 1
 242 -18 l 1
 207 -16 179 -10 135 5 c 0
 113 12 102 15 94 15 c 0
 78 15 70 6 64 -19 c 1
 35 -19 l 1
 35 228 l 1
 64 228 l 1
 81 158 95 125 122 88 c 0
 160 39 210 14 268 14 c 0
 345 14 394 59 394 128 c 0
 394 180 370 206 282 248 c 2
 215 280 l 2
 96 337 44 400 44 488 c 0
 44 614 127 691 263 691 c 0
 301 691 333 685 380 669 c 0
 402 661 413 658 422 658 c 0
 439 658 447 666 454 692 c 1
 484 692 l 1
EndSplineSet
Ligature: 0 0 'liga' S uni0327
EndChar
StartChar: Tcaron
Encoding: 297 356 191
Width: 667
Flags: W
HStem: 0 25<156 168.286 498.5 513> 475 201<33 60 34 636>
VStem: 253 162<117 644>
Fore
502 914 m 1
 379 738 l 1
 287 738 l 1
 165 914 l 1
 221 914 l 1
 333 815 l 1
 445 914 l 1
 502 914 l 1
253 117 m 2
 253 644 l 1
 129 640 77 594 60 475 c 1
 31 475 l 1
 34 676 l 1
 634 676 l 1
 636 475 l 1
 607 475 l 1
 590 594 538 640 415 644 c 1
 415 117 l 2
 415 41 426 31 513 25 c 1
 513 0 l 1
 156 0 l 1
 156 25 l 1
 242 32 253 43 253 117 c 2
EndSplineSet
Ligature: 0 0 'liga' T uni030C
EndChar
StartChar: Udieresis
Encoding: 298 220 192
Width: 722
Flags: W
HStem: -19 49<365 404> 651 25<16 26 330 354 481 494> 747 129<277 289 486 497>
VStem: 98 159<225 574> 213 129<808 816> 423 129<808 815> 579 44<247 574>
Fore
277 876 m 0xee
 312 876 342 846 342 810 c 0
 342 775 313 747 277 747 c 0
 242 747 213 777 213 812 c 0
 213 846 243 876 277 876 c 0xee
486 876 m 0
 522 876 552 846 552 810 c 0
 552 775 523 747 486 747 c 0
 451 747 423 776 423 813 c 0
 423 846 453 876 486 876 c 0
623 566 m 2
 623 247 l 2
 623 154 597 78 552 40 c 0
 509 3 439 -19 365 -19 c 0
 292 -19 228 -1 180 34 c 0
 119 78 98 127 98 225 c 2
 98 559 l 2
 98 631 86 644 16 651 c 1
 16 676 l 1
 354 676 l 1
 354 651 l 1
 306 649 290 645 278 635 c 0
 263 621 257 599 257 559 c 2
 257 225 l 2xf6
 257 89 302 30 404 30 c 0
 523 30 579 99 579 247 c 2
 579 552 l 2
 579 625 559 645 481 651 c 1
 481 676 l 1
 701 676 l 1
 701 651 l 1
 637 641 623 625 623 566 c 2
EndSplineSet
KernsSLIF: 114 -29 0 0 46 -18 0 0 112 -28 0 0 110 -25 0 0 109 -23 0 0 44 -17 0 0 98 10 0 0 65 -54 0 0
Ligature: 0 0 'liga' U uni0308
EndChar
StartChar: Uacute
Encoding: 299 218 193
Width: 722
Flags: W
HStem: -19 49<365 404> 651 25<16 26 330 354 481 494>
VStem: 98 159<225 574> 579 44<247 574>
Fore
308 738 m 1
 445 895 l 2
 462 914 479 923 498 923 c 0
 527 923 546 905 546 879 c 0
 546 856 538 846 506 826 c 2
 364 738 l 1
 308 738 l 1
623 566 m 2
 623 247 l 2
 623 154 597 78 552 40 c 0
 509 3 439 -19 365 -19 c 0
 292 -19 228 -1 180 34 c 0
 119 78 98 127 98 225 c 2
 98 559 l 2
 98 631 86 644 16 651 c 1
 16 676 l 1
 354 676 l 1
 354 651 l 1
 306 649 290 645 278 635 c 0
 263 621 257 599 257 559 c 2
 257 225 l 2
 257 89 302 30 404 30 c 0
 523 30 579 99 579 247 c 2
 579 552 l 2
 579 625 559 645 481 651 c 1
 481 676 l 1
 701 676 l 1
 701 651 l 1
 637 641 623 625 623 566 c 2
EndSplineSet
KernsSLIF: 114 -29 0 0 46 -18 0 0 112 -28 0 0 110 -25 0 0 109 -23 0 0 44 -17 0 0 65 -54 0 0
Ligature: 0 0 'liga' U acutecomb
EndChar
StartChar: Ugrave
Encoding: 300 217 194
Width: 722
Flags: W
HStem: -19 49<365 404> 651 25<16 26 330 354 481 494>
VStem: 98 159<225 574> 579 44<247 574>
Fore
448 738 m 1
 392 738 l 1
 250 826 l 2
 221 844 210 858 210 878 c 0
 210 903 231 923 257 923 c 0
 276 923 295 913 311 895 c 2
 448 738 l 1
623 566 m 2
 623 247 l 2
 623 154 597 78 552 40 c 0
 509 3 439 -19 365 -19 c 0
 292 -19 228 -1 180 34 c 0
 119 78 98 127 98 225 c 2
 98 559 l 2
 98 631 86 644 16 651 c 1
 16 676 l 1
 354 676 l 1
 354 651 l 1
 306 649 290 645 278 635 c 0
 263 621 257 599 257 559 c 2
 257 225 l 2
 257 89 302 30 404 30 c 0
 523 30 579 99 579 247 c 2
 579 552 l 2
 579 625 559 645 481 651 c 1
 481 676 l 1
 701 676 l 1
 701 651 l 1
 637 641 623 625 623 566 c 2
EndSplineSet
KernsSLIF: 65 -54 0 0
Ligature: 0 0 'liga' U gravecomb
EndChar
StartChar: Ucircumflex
Encoding: 301 219 195
Width: 722
Flags: W
HStem: -19 49<365 404> 651 25<16 26 330 354 481 494>
VStem: 98 159<225 574> 579 44<247 574>
Fore
501 738 m 1
 389 836 l 1
 277 738 l 1
 221 738 l 1
 343 914 l 1
 435 914 l 1
 558 738 l 1
 501 738 l 1
623 566 m 2
 623 247 l 2
 623 154 597 78 552 40 c 0
 509 3 439 -19 365 -19 c 0
 292 -19 228 -1 180 34 c 0
 119 78 98 127 98 225 c 2
 98 559 l 2
 98 631 86 644 16 651 c 1
 16 676 l 1
 354 676 l 1
 354 651 l 1
 306 649 290 645 278 635 c 0
 263 621 257 599 257 559 c 2
 257 225 l 2
 257 89 302 30 404 30 c 0
 523 30 579 99 579 247 c 2
 579 552 l 2
 579 625 559 645 481 651 c 1
 481 676 l 1
 701 676 l 1
 701 651 l 1
 637 641 623 625 623 566 c 2
EndSplineSet
KernsSLIF: 65 -54 0 0
Ligature: 0 0 'liga' U uni0302
EndChar
StartChar: Uring
Encoding: 302 366 196
Width: 722
Flags: W
HStem: -19 49<365 404> 651 25<16 26 330 354 481 494> 747 48<351 368> 912 48<351 369>
VStem: 98 159<225 574> 254 48<844 862> 419 48<844 862> 579 44<247 574>
Fore
361 960 m 0xf7
 419 960 467 911 467 853 c 0
 467 794 419 747 360 747 c 0
 301 747 254 795 254 855 c 0
 254 911 303 960 361 960 c 0xf7
360 912 m 0
 329 912 302 884 302 853 c 0
 302 821 328 795 359 795 c 0
 392 795 419 821 419 852 c 0
 419 884 392 912 360 912 c 0
623 566 m 2
 623 247 l 2
 623 154 597 78 552 40 c 0
 509 3 439 -19 365 -19 c 0
 292 -19 228 -1 180 34 c 0
 119 78 98 127 98 225 c 2
 98 559 l 2
 98 631 86 644 16 651 c 1
 16 676 l 1
 354 676 l 1
 354 651 l 1
 306 649 290 645 278 635 c 0
 263 621 257 599 257 559 c 2
 257 225 l 2xfb
 257 89 302 30 404 30 c 0
 523 30 579 99 579 247 c 2
 579 552 l 2
 579 625 559 645 481 651 c 1
 481 676 l 1
 701 676 l 1
 701 651 l 1
 637 641 623 625 623 566 c 2
EndSplineSet
Ligature: 0 0 'liga' U uni030A
EndChar
StartChar: Uhungarumlaut
Encoding: 303 368 197
Width: 722
Flags: W
HStem: -19 49<365 404> 651 25<16 26 330 354 481 494>
VStem: 98 159<225 574> 579 44<247 574>
Fore
182 738 m 1
 319 895 l 2
 336 914 353 923 372 923 c 0
 401 923 420 905 420 879 c 0
 420 856 412 846 380 826 c 2
 238 738 l 1
 182 738 l 1
382 738 m 1
 519 895 l 2
 536 914 553 923 572 923 c 0
 601 923 620 905 620 879 c 0
 620 856 612 846 580 826 c 2
 438 738 l 1
 382 738 l 1
623 566 m 2
 623 247 l 2
 623 154 597 78 552 40 c 0
 509 3 439 -19 365 -19 c 0
 292 -19 228 -1 180 34 c 0
 119 78 98 127 98 225 c 2
 98 559 l 2
 98 631 86 644 16 651 c 1
 16 676 l 1
 354 676 l 1
 354 651 l 1
 306 649 290 645 278 635 c 0
 263 621 257 599 257 559 c 2
 257 225 l 2
 257 89 302 30 404 30 c 0
 523 30 579 99 579 247 c 2
 579 552 l 2
 579 625 559 645 481 651 c 1
 481 676 l 1
 701 676 l 1
 701 651 l 1
 637 641 623 625 623 566 c 2
EndSplineSet
Ligature: 0 0 'liga' U uni030B
EndChar
StartChar: Yacute
Encoding: 304 221 198
Width: 722
Flags: W
HStem: 0 25<185 195.25 521.75 532> 650 26<15 325>
VStem: 278 162<117 264>
DStem: 95 596 293 561 278 264 413 329 524 514 631 612 413 329 440 301
Fore
313 738 m 1
 450 895 l 2
 467 914 484 923 503 923 c 0
 532 923 551 905 551 879 c 0
 551 856 543 846 511 826 c 2
 369 738 l 1
 313 738 l 1
699 676 m 1
 699 651 l 1
 665 646 646 635 631 612 c 1
 440 301 l 1
 440 117 l 2
 440 43 450 33 532 25 c 1
 532 0 l 1
 185 0 l 1
 185 25 l 1
 267 33 278 44 278 117 c 2
 278 264 l 1
 95 596 l 1
 75 630 49 649 15 651 c 1
 15 676 l 1
 350 676 l 1
 350 651 l 1
 325 650 l 2
 284 650 269 642 269 620 c 0
 269 609 273 598 287 573 c 2
 287 573 292 564 293 561 c 1
 413 329 l 1
 524 514 l 2
 549 555 563 590 563 609 c 0
 563 638 546 646 479 651 c 1
 479 676 l 1
 699 676 l 1
EndSplineSet
Ligature: 0 0 'liga' Y acutecomb
EndChar
StartChar: Zacute
Encoding: 305 377 199
Width: 667
Flags: W
HStem: 0 35<225 608> 470 21G<59 87> 638 38<80 327>
DStem: 410 641 604 660 28 16 225 35
Fore
253 738 m 1
 390 895 l 2
 407 914 424 923 443 923 c 0
 472 923 491 905 491 879 c 0
 491 856 483 846 451 826 c 2
 309 738 l 1
 253 738 l 1
634 241 m 1
 608 0 l 1
 28 0 l 1
 28 16 l 1
 410 641 l 1
 373 640 339 639 327 638 c 1
 179 640 135 609 87 470 c 1
 59 470 l 1
 80 676 l 1
 604 676 l 1
 604 660 l 1
 225 35 l 1
 299 35 l 2
 395 35 477 50 511 74 c 0
 558 107 581 147 608 241 c 1
 634 241 l 1
EndSplineSet
Ligature: 0 0 'liga' Z acutecomb
EndChar
StartChar: Zcaron
Encoding: 306 381 200
Width: 667
Flags: W
HStem: 0 35<225 608> 470 21G<59 87> 638 38<80 327>
DStem: 410 641 604 660 28 16 225 35
Fore
503 914 m 1
 380 738 l 1
 288 738 l 1
 166 914 l 1
 222 914 l 1
 334 815 l 1
 446 914 l 1
 503 914 l 1
634 241 m 1
 608 0 l 1
 28 0 l 1
 28 16 l 1
 410 641 l 1
 373 640 339 639 327 638 c 1
 179 640 135 609 87 470 c 1
 59 470 l 1
 80 676 l 1
 604 676 l 1
 604 660 l 1
 225 35 l 1
 299 35 l 2
 395 35 477 50 511 74 c 0
 558 107 581 147 608 241 c 1
 634 241 l 1
EndSplineSet
Ligature: 0 0 'liga' Z uni030C
EndChar
StartChar: Zdotaccent
Encoding: 307 379 201
Width: 667
Flags: W
HStem: 0 35<225 608> 470 21G<59 87> 638 38<80 327> 747 129<333 335>
VStem: 270 129<808 817>
DStem: 410 641 604 660 28 16 225 35
Fore
333 876 m 0
 369 876 399 846 399 810 c 0
 399 775 370 747 333 747 c 0
 298 747 270 776 270 813 c 0
 270 846 300 876 333 876 c 0
634 241 m 1
 608 0 l 1
 28 0 l 1
 28 16 l 1
 410 641 l 1
 373 640 339 639 327 638 c 1
 179 640 135 609 87 470 c 1
 59 470 l 1
 80 676 l 1
 604 676 l 1
 604 660 l 1
 225 35 l 1
 299 35 l 2
 395 35 477 50 511 74 c 0
 558 107 581 147 608 241 c 1
 634 241 l 1
EndSplineSet
Ligature: 0 0 'liga' Z uni0307
EndChar
StartChar: Amacron
Encoding: 308 256 202
Width: 722
Flags: W
HStem: 0 25<197.25 212 680 689> 197 39<189 399> 670 20G<329 357> 773 72<196 526>
DStem: 283 479 357 690 384 236 580 164 329 690 283 479 107 142 189 236 329 690 174 197 107 142 159 158
Fore
526 845 m 1
 526 773 l 1
 196 773 l 1
 196 845 l 1
 526 845 l 1
689 25 m 1
 689 0 l 1
 365 0 l 1
 365 25 l 1
 379 27 392 28 397 28 c 0
 432 30 445 40 445 61 c 0
 445 83 433 119 399 197 c 1
 174 197 l 1
 159 158 l 2
 138 104 130 79 130 66 c 0
 130 40 153 29 212 25 c 1
 212 0 l 1
 9 0 l 1
 9 25 l 1
 57 34 69 49 107 142 c 2
 329 690 l 1
 357 690 l 1
 580 164 l 2
 630 46 646 25 685 25 c 2
 689 25 l 1
189 236 m 1
 384 236 l 1
 283 479 l 1
 189 236 l 1
EndSplineSet
Ligature: 0 0 'liga' A uni0304
EndChar
StartChar: Tcommaaccent
Encoding: 309 354 203
Width: 667
Flags: W
HStem: -185 145<316 340> 0 25<156 168.286 498.5 513> 475 201<33 60 34 636>
VStem: 251 165<-145 -114 117 644>
Fore
253 117 m 2
 253 644 l 1
 129 640 77 594 60 475 c 1
 31 475 l 1
 34 676 l 1
 634 676 l 1
 636 475 l 1
 607 475 l 1
 590 594 538 640 415 644 c 1
 415 117 l 2
 415 41 426 31 513 25 c 1
 513 0 l 1
 156 0 l 1
 156 25 l 1
 242 32 253 43 253 117 c 2
267 -341 m 1
 257 -322 l 1
 325 -274 355 -237 355 -202 c 0
 355 -192 347 -183 338 -183 c 0
 337 -183 334 -183 331 -184 c 0
 327 -185 322 -185 318 -185 c 0
 277 -185 251 -157 251 -114 c 0
 251 -69 281 -40 326 -40 c 0
 380 -40 416 -82 416 -145 c 0
 416 -223 371 -282 267 -341 c 1
EndSplineSet
Ligature: 0 0 'liga' T uni0327
EndChar
StartChar: Ydieresis
Encoding: 310 376 204
Width: 722
Flags: W
HStem: 0 25<185 195.25 521.75 532> 650 26<15 326> 747 129<285 295 483.519 497>
VStem: 221 129<808 816> 278 162<117 264> 431 129<808 817>
DStem: 95 596 293 561 278 264 413 329 524 514 631 612 413 329 440 301
Fore
285 876 m 0xf0
 320 876 350 846 350 810 c 0
 350 775 321 747 285 747 c 0
 250 747 221 777 221 812 c 0
 221 846 251 876 285 876 c 0xf0
494 876 m 0
 530 876 560 846 560 810 c 0
 560 775 531 747 494 747 c 0
 459 747 431 776 431 813 c 0xe4
 431 846 461 876 494 876 c 0
699 676 m 1
 699 651 l 1
 665 646 646 635 631 612 c 1
 440 301 l 1
 440 117 l 2
 440 43 450 33 532 25 c 1
 532 0 l 1
 185 0 l 1
 185 25 l 1
 267 33 278 44 278 117 c 2
 278 264 l 1xe8
 95 596 l 1
 75 630 49 649 15 651 c 1
 15 676 l 1
 350 676 l 1
 350 651 l 1xf0
 325 650 l 2
 284 650 269 642 269 620 c 0
 269 609 273 598 287 573 c 2
 287 573 292 564 293 561 c 1
 413 329 l 1
 524 514 l 2
 549 555 563 590 563 609 c 0
 563 638 546 646 479 651 c 1
 479 676 l 1
 699 676 l 1
EndSplineSet
Ligature: 0 0 'liga' Y uni0308
EndChar
StartChar: Emacron
Encoding: 311 274 205
Width: 667
Flags: W
HStem: 0 25<16 25.25> 329 34<266 294.006> 475 201<16 593> 642 34<16 369> 651 25<16 33.25> 774 72<166 496>
VStem: 104 162<79 329 96 597>
Fore
496 846 m 1xc6
 496 774 l 1
 166 774 l 1
 166 846 l 1
 496 846 l 1xc6
593 676 m 1xe6
 593 475 l 1
 568 475 l 1xe6
 543 608 494 642 331 642 c 0xd6
 279 642 266 633 266 595 c 2
 266 363 l 1
 374 362 413 398 428 512 c 1
 454 512 l 1
 454 174 l 1
 428 174 l 1
 416 290 375 329 266 329 c 1
 266 87 l 2
 266 44 285 31 349 31 c 0
 425 31 480 47 526 84 c 0
 562 113 582 141 613 208 c 1
 641 208 l 1
 601 0 l 1
 16 0 l 1
 16 25 l 1
 90 33 104 44 104 96 c 2
 104 580 l 2
 104 631 85 647 16 651 c 1xce
 16 676 l 1
 593 676 l 1xe6
EndSplineSet
Ligature: 0 0 'liga' E uni0304
EndChar
StartChar: Imacron
Encoding: 312 298 206
Width: 389
Flags: W
HStem: 0 25<16 26.7143 350.8 366> 651 25<16 30.4 341.333 366> 774 72<26 356>
VStem: 109 162<96 593>
Fore
109 96 m 2
 109 580 l 2
 109 631 88 646 16 651 c 1
 16 676 l 1
 366 676 l 1
 366 651 l 1
 292 648 271 632 271 580 c 2
 271 96 l 2
 271 44 290 30 366 25 c 1
 366 0 l 1
 16 0 l 1
 16 25 l 1
 91 32 109 46 109 96 c 2
356 846 m 1
 356 774 l 1
 26 774 l 1
 26 846 l 1
 356 846 l 1
EndSplineSet
Ligature: 0 0 'liga' I uni0304
EndChar
StartChar: Iogonek
Encoding: 313 302 207
Width: 389
Flags: W
HStem: -173 69<382 423> 0 25<20 30.7143> 651 25<20 34.4 345.333 370>
VStem: 113 162<96 596> 276 84<-92 -40>
Fore
370 25 m 1
 370 0 l 1
 363 -11 360 -23 360 -40 c 0
 360 -81 382 -104 423 -104 c 0
 438 -104 449 -101 469 -91 c 0
 477 -87 478 -86 483 -84 c 1
 505 -98 l 1
 480 -144 432 -173 382 -173 c 0
 321 -173 276 -139 276 -92 c 0
 276 -64 285 -46 319 0 c 1
 20 0 l 1
 20 25 l 1
 95 32 113 46 113 96 c 2
 113 580 l 2
 113 631 92 646 20 651 c 1
 20 676 l 1
 370 676 l 1
 370 651 l 1
 296 648 275 632 275 580 c 2
 275 96 l 2
 275 44 294 30 370 25 c 1
EndSplineSet
Ligature: 0 0 'liga' I uni0328
EndChar
StartChar: Kcommaaccent
Encoding: 314 310 208
Width: 778
Flags: W
HStem: -185 145<366 395> 0 25<30 39 359 367 433 447 744 769> 651 25<30 47.25 353.2 368 447 464 723.875 736>
VStem: 117 162<96 292 96 582> 306 165<-145 -114>
DStem: 306 317 415 424 488 90 720 46
Fore
769 25 m 1
 769 0 l 1
 433 0 l 1
 433 25 l 1
 447 26 460 26 465 26 c 0
 498 28 512 33 512 46 c 0
 512 57 507 66 488 90 c 2
 306 317 l 1
 279 292 l 1
 279 96 l 2
 279 47 295 34 367 25 c 1
 367 0 l 1
 30 0 l 1
 30 25 l 1
 102 33 117 45 117 96 c 2
 117 580 l 2
 117 632 99 647 30 651 c 1
 30 676 l 1
 368 676 l 1
 368 651 l 1
 294 646 279 630 279 559 c 2
 279 345 l 1
 496 563 l 2
 527 594 532 602 532 618 c 0
 532 638 519 646 483 648 c 0
 478 649 464 650 447 651 c 1
 447 676 l 1
 736 676 l 1
 736 651 l 1
 639 643 603 618 415 424 c 1
 720 46 l 1
 733 31 744 26 769 25 c 1
322 -341 m 1
 312 -322 l 1
 380 -274 410 -237 410 -202 c 0
 410 -192 402 -183 393 -183 c 0
 392 -183 389 -183 386 -184 c 0
 382 -185 377 -185 373 -185 c 0
 332 -185 306 -157 306 -114 c 0
 306 -69 336 -40 381 -40 c 0
 435 -40 471 -82 471 -145 c 0
 471 -223 426 -282 322 -341 c 1
EndSplineSet
Ligature: 0 0 'liga' K uni0327
EndChar
StartChar: Lcommaaccent
Encoding: 315 315 209
Width: 667
Flags: W
HStem: -185 145<317 341> 0 25<19 27.1111> 651 25<19 36 346.25 368>
VStem: 105 162<84 588> 356 61<-202 -145>
Fore
638 227 m 1
 597 0 l 1
 19 0 l 1
 19 25 l 1
 92 34 105 45 105 96 c 2
 105 580 l 2
 105 631 87 647 19 651 c 1
 19 676 l 1
 368 676 l 1
 368 651 l 1
 281 647 267 634 267 559 c 2
 267 87 l 2
 267 44 286 31 347 31 c 0
 424 31 480 49 521 86 c 0
 556 118 576 149 609 227 c 1
 638 227 l 1
268 -341 m 1
 258 -322 l 1
 326 -274 356 -237 356 -202 c 0
 356 -192 348 -183 339 -183 c 0
 338 -183 335 -183 332 -184 c 0
 328 -185 323 -185 319 -185 c 0
 278 -185 252 -157 252 -114 c 0
 252 -69 282 -40 327 -40 c 0
 381 -40 417 -82 417 -145 c 0
 417 -223 372 -282 268 -341 c 1
EndSplineSet
Ligature: 0 0 'liga' L uni0327
EndChar
StartChar: Ncommaaccent
Encoding: 316 325 210
Width: 722
Flags: W
HStem: -185 145<343 367> 0 25<16 24.1111 234.444 243> 651 25<19 19 486 496.571>
VStem: 104 44<103 526> 278 165<-145 -114> 579 44<247 573>
DStem: 148 526 230 676 595 -18 579 247
Fore
230 676 m 1
 579 247 l 1
 579 552 l 2
 579 623 560 644 486 651 c 1
 486 676 l 1
 701 676 l 1
 701 651 l 1
 636 641 623 628 623 571 c 2
 623 -18 l 1
 595 -18 l 1
 148 526 l 1
 148 124 l 2
 148 53 166 34 243 25 c 1
 243 0 l 1
 16 0 l 1
 16 25 l 1
 89 34 104 48 104 105 c 2
 104 579 l 1
 56 636 39 651 19 651 c 1
 19 676 l 1
 230 676 l 1
294 -341 m 1
 284 -322 l 1
 352 -274 382 -237 382 -202 c 0
 382 -192 374 -183 365 -183 c 0
 364 -183 361 -183 358 -184 c 0
 354 -185 349 -185 345 -185 c 0
 304 -185 278 -157 278 -114 c 0
 278 -69 308 -40 353 -40 c 0
 407 -40 443 -82 443 -145 c 0
 443 -223 398 -282 294 -341 c 1
EndSplineSet
Ligature: 0 0 'liga' N uni0327
EndChar
StartChar: Omacron
Encoding: 317 332 211
Width: 778
Flags: W
HStem: -19 33<389 404> 658 33<386 404> 774 72<224 554>
VStem: 35 177<316 350> 566 177<316 350>
Fore
554 846 m 1
 554 774 l 1
 224 774 l 1
 224 846 l 1
 554 846 l 1
393 691 m 0
 594 691 743 540 743 336 c 0
 743 129 596 -19 389 -19 c 0
 182 -19 35 128 35 335 c 0
 35 543 184 691 393 691 c 0
392 658 m 0
 275 658 212 542 212 326 c 0
 212 124 274 14 389 14 c 0
 504 14 566 124 566 329 c 0
 566 537 502 658 392 658 c 0
EndSplineSet
Ligature: 0 0 'liga' O uni0304
EndChar
StartChar: Rcommaaccent
Encoding: 318 342 212
Width: 722
Flags: W
HStem: -185 145<343 367> 0 25<26 34.6667 356.2 364 703.125 714.984> 313 32<276 303> 642 34<26 353> 651 25<26 40.8>
VStem: 114 162<117 313 117 600> 278 165<-145 -114> 459 171<490 508>
Fore
715 25 m 1xf7
 715 0 l 1
 510 0 l 1
 303 313 l 1
 276 313 l 1
 276 117 l 2
 276 46 286 35 364 25 c 1
 364 0 l 1
 26 0 l 1
 26 25 l 1
 104 34 114 44 114 117 c 2
 114 559 l 2
 114 631 100 646 26 651 c 1xef
 26 676 l 1
 348 676 l 2
 531 676 630 613 630 498 c 0
 630 453 614 413 585 386 c 0
 557 361 532 348 473 329 c 1
 674 44 l 1
 684 31 697 25 715 25 c 1xf7
276 600 m 2
 276 345 l 1
 352 346 386 353 412 370 c 0
 444 391 459 430 459 494 c 0
 459 599 422 642 330 642 c 0xf7
 305 642 289 637 283 627 c 0
 280 621 276 606 276 600 c 2
294 -341 m 1
 284 -322 l 1
 352 -274 382 -237 382 -202 c 0
 382 -192 374 -183 365 -183 c 0
 364 -183 361 -183 358 -184 c 0
 354 -185 349 -185 345 -185 c 0
 304 -185 278 -157 278 -114 c 0
 278 -69 308 -40 353 -40 c 0
 407 -40 443 -82 443 -145 c 0
 443 -223 398 -282 294 -341 c 1
EndSplineSet
Ligature: 0 0 'liga' R uni0327
EndChar
StartChar: Gcommaaccent
Encoding: 319 290 213
Width: 778
Flags: W
HStem: -185 145<370 394> -19 33<393 422> 262 25<412 429.2 745.625 755> 658 33<378 409>
VStem: 37 177<314 348> 305 165<-145 -114> 513 156<74 194>
Fore
755 287 m 1
 755 262 l 1
 680 254 669 242 669 170 c 2
 669 43 l 1
 605 5 496 -19 393 -19 c 0
 183 -19 37 125 37 331 c 0
 37 537 186 691 385 691 c 0
 433 691 481 680 540 656 c 0
 562 646 577 642 586 642 c 0
 605 642 616 653 630 688 c 1
 657 688 l 1
 657 454 l 1
 632 454 l 1
 597 530 574 564 531 602 c 0
 487 640 444 658 398 658 c 0
 277 658 214 547 214 338 c 0
 214 218 235 132 279 76 c 0
 312 33 354 14 417 14 c 0
 484 14 513 36 513 87 c 2
 513 192 l 2
 513 246 498 257 412 262 c 1
 412 287 l 1
 755 287 l 1
321 -341 m 1
 311 -322 l 1
 379 -274 409 -237 409 -202 c 0
 409 -192 401 -183 392 -183 c 0
 391 -183 388 -183 385 -184 c 0
 381 -185 376 -185 372 -185 c 0
 331 -185 305 -157 305 -114 c 0
 305 -69 335 -40 380 -40 c 0
 434 -40 470 -82 470 -145 c 0
 470 -223 425 -282 321 -341 c 1
EndSplineSet
Ligature: 0 0 'liga' G uni0327
EndChar
StartChar: Umacron
Encoding: 320 362 214
Width: 722
Flags: W
HStem: -19 49<365 404> 651 25<16 26 330 354 481 494> 774 72<194 524>
VStem: 98 159<225 574> 579 44<247 574>
Fore
524 846 m 1
 524 774 l 1
 194 774 l 1
 194 846 l 1
 524 846 l 1
623 566 m 2
 623 247 l 2
 623 154 597 78 552 40 c 0
 509 3 439 -19 365 -19 c 0
 292 -19 228 -1 180 34 c 0
 119 78 98 127 98 225 c 2
 98 559 l 2
 98 631 86 644 16 651 c 1
 16 676 l 1
 354 676 l 1
 354 651 l 1
 306 649 290 645 278 635 c 0
 263 621 257 599 257 559 c 2
 257 225 l 2
 257 89 302 30 404 30 c 0
 523 30 579 99 579 247 c 2
 579 552 l 2
 579 625 559 645 481 651 c 1
 481 676 l 1
 701 676 l 1
 701 651 l 1
 637 641 623 625 623 566 c 2
EndSplineSet
Ligature: 0 0 'liga' U uni0304
EndChar
StartChar: Uogonek
Encoding: 321 370 215
Width: 722
Flags: W
HStem: -173 69<571 612> -19 49<366 404> 651 25<16 26 330 354 481 494>
VStem: 98 159<225 580> 464 84<-92 -29> 579 44<247 568>
Fore
672 -84 m 1
 694 -98 l 1
 669 -144 621 -173 571 -173 c 0
 509 -173 464 -139 464 -92 c 0
 464 -61 477 -37 522 19 c 1
 475 -7 424 -19 366 -19 c 0
 292 -19 228 -1 180 34 c 0
 119 78 98 127 98 225 c 2
 98 559 l 2
 98 631 86 644 16 651 c 1
 16 676 l 1
 354 676 l 1
 354 651 l 1
 306 649 290 645 278 635 c 0
 263 621 257 599 257 559 c 2
 257 225 l 2
 257 89 302 30 404 30 c 0
 523 30 579 99 579 247 c 2
 579 552 l 2
 579 625 559 645 481 651 c 1
 481 676 l 1
 701 676 l 1
 701 651 l 1
 637 641 623 625 623 566 c 2
 623 247 l 2
 623 199 615 152 600 112 c 0
 594 95 594 95 567 46 c 0
 558 29 548 -10 548 -29 c 0
 548 -81 568 -104 612 -104 c 0
 627 -104 638 -101 657 -91 c 0
 666 -87 667 -86 672 -84 c 1
EndSplineSet
Ligature: 0 0 'liga' U uni0328
EndChar
StartChar: adieresis
Encoding: 322 228 216
Width: 500
Flags: W
HStem: -14 64<376 452> 441 32<206 233> 537 129<140 149 349 351>
VStem: 25 146<92 124> 44 133<334 349> 76 129<593 611> 286 129<593 611> 293 138<99 353>
Fore
140 666 m 0xe4
 175 666 205 636 205 600 c 0
 205 565 176 537 140 537 c 0
 105 537 76 567 76 602 c 0
 76 636 106 666 140 666 c 0xe4
349 666 m 0
 385 666 415 636 415 600 c 0
 415 565 386 537 349 537 c 0
 314 537 286 566 286 603 c 0xe2
 286 636 316 666 349 666 c 0
473 64 m 1
 488 43 l 1
 450 2 419 -14 376 -14 c 0
 327 -14 305 5 294 56 c 1
 239 6 193 -14 136 -14 c 0
 72 -14 25 31 25 92 c 0xf1
 25 135 46 169 89 199 c 0
 126 224 175 244 294 280 c 1
 294 353 l 2
 294 414 268 441 210 441 c 0
 175 441 147 425 147 404 c 0
 147 398 150 392 159 382 c 0
 171 366 177 353 177 339 c 0
 177 305 149 281 109 281 c 0
 68 281 44 306 44 347 c 0
 44 422 120 473 233 473 c 0
 355 473 431 420 431 336 c 2
 431 75 l 2xe9
 431 59 438 50 452 50 c 0
 457 50 460 51 463 54 c 2
 473 64 l 1
293 100 m 1
 293 245 l 1
 213 224 171 182 171 124 c 0
 171 84 192 57 222 57 c 0
 246 57 266 69 293 100 c 1
EndSplineSet
KernsSLIF: 121 -44 0 0 119 -40 0 0 118 -39 0 0
Ligature: 0 0 'liga' a uni0308
EndChar
StartChar: aacute
Encoding: 323 225 217
Width: 500
Flags: W
HStem: -14 64<376 452> 441 32<208 233>
VStem: 25 146<92 124> 44 133<334 349> 293 138<99 353>
Fore
155 528 m 1xc8
 292 685 l 2
 309 704 326 713 345 713 c 0
 374 713 393 695 393 669 c 0
 393 646 385 636 353 616 c 2
 211 528 l 1
 155 528 l 1xc8
473 64 m 1
 488 43 l 1
 450 2 419 -14 376 -14 c 0
 327 -14 305 5 294 56 c 1
 239 6 193 -14 136 -14 c 0
 72 -14 25 31 25 92 c 0xe8
 25 135 46 169 89 199 c 0
 126 224 175 244 294 280 c 1
 294 353 l 2
 294 414 268 441 210 441 c 0
 175 441 147 425 147 404 c 0
 147 398 150 392 159 382 c 0
 171 366 177 353 177 339 c 0
 177 305 149 281 109 281 c 0
 68 281 44 306 44 347 c 0xd8
 44 422 120 473 233 473 c 0
 355 473 431 420 431 336 c 2
 431 75 l 2
 431 59 438 50 452 50 c 0
 457 50 460 51 463 54 c 2
 473 64 l 1
293 100 m 1
 293 245 l 1
 213 224 171 182 171 124 c 0
 171 84 192 57 222 57 c 0
 246 57 266 69 293 100 c 1
EndSplineSet
KernsSLIF: 121 -44 0 0 119 -40 0 0 118 -39 0 0
Ligature: 0 0 'liga' a acutecomb
EndChar
StartChar: agrave
Encoding: 324 224 218
Width: 500
Flags: W
HStem: -14 64<376 452> 441 32<208 233>
VStem: 25 146<92 124> 44 133<334 349> 293 138<99 353>
Fore
329 528 m 1xc8
 273 528 l 1
 131 616 l 2
 102 634 91 648 91 668 c 0
 91 693 112 713 138 713 c 0
 157 713 176 703 192 685 c 2
 329 528 l 1xc8
473 64 m 1
 488 43 l 1
 450 2 419 -14 376 -14 c 0
 327 -14 305 5 294 56 c 1
 239 6 193 -14 136 -14 c 0
 72 -14 25 31 25 92 c 0xe8
 25 135 46 169 89 199 c 0
 126 224 175 244 294 280 c 1
 294 353 l 2
 294 414 268 441 210 441 c 0
 175 441 147 425 147 404 c 0
 147 398 150 392 159 382 c 0
 171 366 177 353 177 339 c 0
 177 305 149 281 109 281 c 0
 68 281 44 306 44 347 c 0xd8
 44 422 120 473 233 473 c 0
 355 473 431 420 431 336 c 2
 431 75 l 2
 431 59 438 50 452 50 c 0
 457 50 460 51 463 54 c 2
 473 64 l 1
293 100 m 1
 293 245 l 1
 213 224 171 182 171 124 c 0
 171 84 192 57 222 57 c 0
 246 57 266 69 293 100 c 1
EndSplineSet
KernsSLIF: 121 -44 0 0 119 -40 0 0 118 -39 0 0
Ligature: 0 0 'liga' a gravecomb
EndChar
StartChar: acircumflex
Encoding: 325 226 219
Width: 500
Flags: W
HStem: -14 64<376 452> 441 32<208 233>
VStem: 25 146<92 124> 44 133<334 349> 293 138<99 353>
Fore
362 528 m 1xc8
 250 626 l 1
 138 528 l 1
 82 528 l 1
 204 704 l 1
 296 704 l 1
 419 528 l 1
 362 528 l 1xc8
473 64 m 1
 488 43 l 1
 450 2 419 -14 376 -14 c 0
 327 -14 305 5 294 56 c 1
 239 6 193 -14 136 -14 c 0
 72 -14 25 31 25 92 c 0xe8
 25 135 46 169 89 199 c 0
 126 224 175 244 294 280 c 1
 294 353 l 2
 294 414 268 441 210 441 c 0
 175 441 147 425 147 404 c 0
 147 398 150 392 159 382 c 0
 171 366 177 353 177 339 c 0
 177 305 149 281 109 281 c 0
 68 281 44 306 44 347 c 0xd8
 44 422 120 473 233 473 c 0
 355 473 431 420 431 336 c 2
 431 75 l 2
 431 59 438 50 452 50 c 0
 457 50 460 51 463 54 c 2
 473 64 l 1
293 100 m 1
 293 245 l 1
 213 224 171 182 171 124 c 0
 171 84 192 57 222 57 c 0
 246 57 266 69 293 100 c 1
EndSplineSet
Ligature: 0 0 'liga' a uni0302
EndChar
StartChar: abreve
Encoding: 326 259 220
Width: 500
Flags: W
HStem: -14 64<376 452> 441 32<208 233> 528 76<250 266> 671 20G<99 143 358 402>
VStem: 25 146<92 124> 44 133<334 349> 293 138<99 353>
Fore
358 691 m 1xf2
 402 691 l 1
 396 640 389 615 372 589 c 0
 346 548 305 528 250 528 c 0
 197 528 155 547 130 583 c 0
 109 611 102 636 99 691 c 1
 143 691 l 1
 154 630 186 604 250 604 c 0
 312 604 341 628 358 691 c 1xf2
473 64 m 1
 488 43 l 1
 450 2 419 -14 376 -14 c 0
 327 -14 305 5 294 56 c 1
 239 6 193 -14 136 -14 c 0
 72 -14 25 31 25 92 c 0xfa
 25 135 46 169 89 199 c 0
 126 224 175 244 294 280 c 1
 294 353 l 2
 294 414 268 441 210 441 c 0
 175 441 147 425 147 404 c 0
 147 398 150 392 159 382 c 0
 171 366 177 353 177 339 c 0
 177 305 149 281 109 281 c 0
 68 281 44 306 44 347 c 0xf6
 44 422 120 473 233 473 c 0
 355 473 431 420 431 336 c 2
 431 75 l 2
 431 59 438 50 452 50 c 0
 457 50 460 51 463 54 c 2
 473 64 l 1
293 100 m 1
 293 245 l 1
 213 224 171 182 171 124 c 0
 171 84 192 57 222 57 c 0
 246 57 266 69 293 100 c 1
EndSplineSet
Ligature: 0 0 'liga' a uni0306
EndChar
StartChar: atilde
Encoding: 327 227 221
Width: 500
Flags: W
HStem: -14 64<376 452> 441 32<208 233> 547 78<316 336> 596 78<159 184>
VStem: 25 146<92 124> 44 133<334 349> 293 138<99 353>
Fore
110 549 m 1xd2
 68 549 l 1
 86 635 122 674 184 674 c 0xd2
 205 674 229 668 257 655 c 2
 297 637 l 2
 321 626 325 625 336 625 c 0xe2
 363 625 377 638 390 674 c 1
 433 674 l 1xd2
 410 587 373 547 316 547 c 0xe2
 296 547 271 553 252 561 c 2
 223 574 l 2
 180 593 172 596 159 596 c 0
 133 596 114 577 110 549 c 1xd2
473 64 m 1
 488 43 l 1
 450 2 419 -14 376 -14 c 0
 327 -14 305 5 294 56 c 1
 239 6 193 -14 136 -14 c 0
 72 -14 25 31 25 92 c 0xca
 25 135 46 169 89 199 c 0
 126 224 175 244 294 280 c 1
 294 353 l 2
 294 414 268 441 210 441 c 0
 175 441 147 425 147 404 c 0
 147 398 150 392 159 382 c 0
 171 366 177 353 177 339 c 0
 177 305 149 281 109 281 c 0
 68 281 44 306 44 347 c 0xc6
 44 422 120 473 233 473 c 0
 355 473 431 420 431 336 c 2
 431 75 l 2
 431 59 438 50 452 50 c 0
 457 50 460 51 463 54 c 2
 473 64 l 1
293 100 m 1
 293 245 l 1
 213 224 171 182 171 124 c 0
 171 84 192 57 222 57 c 0
 246 57 266 69 293 100 c 1
EndSplineSet
Ligature: 0 0 'liga' a tildecomb
EndChar
StartChar: aring
Encoding: 328 229 222
Width: 500
Flags: W
HStem: -14 64<376 452> 441 32<208 233> 537 48<231 250> 702 48<231 250>
VStem: 25 146<92 124> 44 133<334 349> 133 48<640 647> 293 138<99 353> 298 48<631.697 647>
Fore
240 750 m 0xf280
 298 750 346 701 346 643 c 0
 346 584 298 537 239 537 c 0
 180 537 133 585 133 645 c 0
 133 701 182 750 240 750 c 0xf280
239 702 m 0
 208 702 181 674 181 643 c 0
 181 611 207 585 238 585 c 0
 271 585 298 611 298 642 c 0
 298 674 271 702 239 702 c 0
473 64 m 1
 488 43 l 1
 450 2 419 -14 376 -14 c 0
 327 -14 305 5 294 56 c 1
 239 6 193 -14 136 -14 c 0
 72 -14 25 31 25 92 c 0xf9
 25 135 46 169 89 199 c 0
 126 224 175 244 294 280 c 1
 294 353 l 2
 294 414 268 441 210 441 c 0
 175 441 147 425 147 404 c 0
 147 398 150 392 159 382 c 0
 171 366 177 353 177 339 c 0
 177 305 149 281 109 281 c 0
 68 281 44 306 44 347 c 0
 44 422 120 473 233 473 c 0
 355 473 431 420 431 336 c 2
 431 75 l 2xf5
 431 59 438 50 452 50 c 0
 457 50 460 51 463 54 c 2
 473 64 l 1
293 100 m 1
 293 245 l 1
 213 224 171 182 171 124 c 0
 171 84 192 57 222 57 c 0
 246 57 266 69 293 100 c 1
EndSplineSet
KernsSLIF: 121 -44 0 0 119 -40 0 0 118 -39 0 0
Ligature: 0 0 'liga' a uni030A
EndChar
StartChar: aogonek
Encoding: 329 261 223
Width: 500
Flags: W
HStem: -173 69<377 419> -14 71<136 222> 441 32<208 233>
VStem: 25 146<92 124> 44 133<334 349> 271 83<-92 -60> 293 138<99 353>
Fore
473 64 m 1xea
 488 43 l 1
 452 4 447 2 389 -16 c 0
 369 -23 354 -41 354 -60 c 0
 354 -84 383 -104 419 -104 c 0
 433 -104 444 -101 464 -91 c 0
 472 -87 473 -86 478 -84 c 1
 500 -98 l 1
 475 -144 427 -173 377 -173 c 0
 316 -173 271 -139 271 -92 c 0
 271 -64 281 -43 317 5 c 1
 305 17 300 29 294 56 c 1
 239 6 193 -14 136 -14 c 0
 72 -14 25 31 25 92 c 0xf4
 25 135 46 169 89 199 c 0
 126 224 175 244 294 280 c 1
 294 353 l 2
 294 414 268 441 210 441 c 0
 175 441 147 425 147 404 c 0
 147 398 150 392 159 382 c 0
 171 366 177 353 177 339 c 0
 177 305 149 281 109 281 c 0
 68 281 44 306 44 347 c 0
 44 422 120 473 233 473 c 0
 355 473 431 420 431 336 c 2
 431 75 l 2
 431 59 438 50 452 50 c 0
 457 50 460 51 463 54 c 2
 473 64 l 1xea
293 100 m 1xf2
 293 245 l 1
 213 224 171 182 171 124 c 0
 171 84 192 57 222 57 c 0
 246 57 266 69 293 100 c 1xf2
EndSplineSet
Ligature: 0 0 'liga' a uni0328
EndChar
StartChar: cacute
Encoding: 330 263 224
Width: 444
Flags: W
HStem: -14 67<239 308> 442 31<238 261>
VStem: 25 141<223 276> 292 124<361 374>
Fore
183 528 m 1
 320 685 l 2
 337 704 354 713 373 713 c 0
 402 713 421 695 421 669 c 0
 421 646 413 636 381 616 c 2
 239 528 l 1
 183 528 l 1
412 109 m 1
 430 91 l 1
 372 17 316 -14 239 -14 c 0
 115 -14 25 85 25 223 c 0
 25 367 125 473 261 473 c 0
 349 473 416 425 416 363 c 0
 416 324 390 300 348 300 c 0
 311 300 293 323 292 372 c 0
 292 414 292 414 287 423 c 0
 281 434 266 442 250 442 c 0
 198 442 166 379 166 276 c 0
 166 140 221 53 308 53 c 0
 349 53 375 67 412 109 c 1
EndSplineSet
Ligature: 0 0 'liga' c acutecomb
EndChar
StartChar: ccaron
Encoding: 331 269 225
Width: 444
Flags: W
HStem: -14 67<239 308> 442 31<238 261>
VStem: 25 141<223 276> 292 124<361 374>
Fore
421 703 m 1
 298 527 l 1
 206 527 l 1
 84 703 l 1
 140 703 l 1
 252 604 l 1
 364 703 l 1
 421 703 l 1
412 109 m 1
 430 91 l 1
 372 17 316 -14 239 -14 c 0
 115 -14 25 85 25 223 c 0
 25 367 125 473 261 473 c 0
 349 473 416 425 416 363 c 0
 416 324 390 300 348 300 c 0
 311 300 293 323 292 372 c 0
 292 414 292 414 287 423 c 0
 281 434 266 442 250 442 c 0
 198 442 166 379 166 276 c 0
 166 140 221 53 308 53 c 0
 349 53 375 67 412 109 c 1
EndSplineSet
Ligature: 0 0 'liga' c uni030C
EndChar
StartChar: ccedilla
Encoding: 332 231 226
Width: 444
Flags: W
HStem: -218 41<210 233> -100 41<224 275> 442 31<240 261>
VStem: 25 141<222 276> 270 93<-139 -127> 292 124<357 374>
DStem: 153 -163 153 -163 137 -200 159 -165 222 -13 265 -13 185 -96 242 -64
Fore
265 -13 m 1xf4
 242 -64 l 1
 254 -60 262 -59 275 -59 c 0
 330 -59 363 -85 363 -129 c 0
 363 -184 313 -218 233 -218 c 0
 200 -218 173 -213 137 -200 c 1
 153 -163 l 1
 159 -165 l 2
 184 -174 196 -177 212 -177 c 0
 249 -177 270 -162 270 -136 c 0xf8
 270 -114 253 -100 224 -100 c 0
 215 -100 207 -101 196 -104 c 1
 185 -96 l 1
 222 -13 l 1
 103 -2 25 91 25 222 c 0
 25 367 125 473 261 473 c 0
 349 473 416 425 416 363 c 0
 416 324 390 300 348 300 c 0
 311 300 293 323 292 372 c 0
 292 414 292 414 287 423 c 0
 281 434 266 442 250 442 c 0
 198 442 166 379 166 276 c 0
 166 140 221 53 308 53 c 0
 349 53 375 67 412 109 c 1
 430 91 l 1
 383 28 334 -3 265 -13 c 1xf4
EndSplineSet
Ligature: 0 0 'liga' c uni0327
EndChar
StartChar: dcaron
Encoding: 333 271 227
Width: 556
Flags: W
HStem: -14 56<206 251> 417 56<217 258> 546 145<565 590> 652 24<260 273.4>
VStem: 25 148<209 243> 336 139<110 676> 500 165<586 617>
Fore
339 -13 m 1xde
 339 52 l 1
 292 2 259 -14 206 -14 c 0
 101 -14 25 85 25 221 c 0
 25 366 107 473 217 473 c 0
 263 473 293 457 336 411 c 1
 336 594 l 2
 336 640 327 647 260 652 c 1
 260 676 l 1
 475 676 l 1
 475 101 l 2
 475 59 488 46 534 43 c 1
 534 20 l 1
 472 12 l 2
 410 5 385 0 339 -13 c 1xde
336 112 m 2
 336 355 l 1
 322 393 291 417 258 417 c 0
 200 417 173 358 173 229 c 0
 173 102 198 42 251 42 c 0
 273 42 294 53 314 76 c 0
 326 89 336 106 336 112 c 2
516 390 m 1
 506 409 l 1
 574 457 604 494 604 529 c 0
 604 539 596 548 587 548 c 0
 586 548 583 548 580 547 c 0
 576 546 571 546 567 546 c 0
 526 546 500 574 500 617 c 0
 500 662 530 691 575 691 c 0xee
 629 691 665 649 665 586 c 0
 665 508 620 449 516 390 c 1
EndSplineSet
Ligature: 0 0 'liga' d uni030C
EndChar
StartChar: edieresis
Encoding: 334 235 228
Width: 444
Flags: W
HStem: -14 72<231 288> 245 37<164 421> 442 31<234 236> 537 129<124 126 333 335>
VStem: 60 129<593 611> 270 129<593 611>
Fore
124 666 m 0
 159 666 189 636 189 600 c 0
 189 565 160 537 124 537 c 0
 89 537 60 567 60 602 c 0
 60 636 90 666 124 666 c 0
333 666 m 0
 369 666 399 636 399 600 c 0
 399 565 370 537 333 537 c 0
 298 537 270 566 270 603 c 0
 270 636 300 666 333 666 c 0
402 125 m 1
 426 111 l 1
 361 18 312 -14 231 -14 c 0
 107 -14 25 82 25 228 c 0
 25 374 109 473 234 473 c 0
 289 473 335 453 368 414 c 0
 400 376 415 329 421 245 c 1
 169 245 l 1
 173 176 181 143 199 111 c 0
 220 76 249 58 288 58 c 0
 331 58 362 76 402 125 c 1
164 282 m 1
 298 282 l 1
 298 297 l 1
 296 348 294 376 289 395 c 0
 281 426 262 442 234 442 c 0
 185 442 167 402 164 282 c 1
EndSplineSet
Ligature: 0 0 'liga' e uni0308
EndChar
StartChar: eacute
Encoding: 335 233 229
Width: 444
Flags: W
HStem: -14 72<231 288> 245 37<164 421> 442 31<234 236>
Fore
159 527 m 1
 296 684 l 2
 313 703 330 712 349 712 c 0
 378 712 397 694 397 668 c 0
 397 645 389 635 357 615 c 2
 215 527 l 1
 159 527 l 1
402 125 m 1
 426 111 l 1
 361 18 312 -14 231 -14 c 0
 107 -14 25 82 25 228 c 0
 25 374 109 473 234 473 c 0
 289 473 335 453 368 414 c 0
 400 376 415 329 421 245 c 1
 169 245 l 1
 173 176 181 143 199 111 c 0
 220 76 249 58 288 58 c 0
 331 58 362 76 402 125 c 1
164 282 m 1
 298 282 l 1
 298 297 l 1
 296 348 294 376 289 395 c 0
 281 426 262 442 234 442 c 0
 185 442 167 402 164 282 c 1
EndSplineSet
KernsSLIF: 121 -31 0 0 119 -30 0 0 118 -29 0 0
Ligature: 0 0 'liga' e acutecomb
EndChar
StartChar: egrave
Encoding: 336 232 230
Width: 444
Flags: W
HStem: -14 72<231 288> 245 37<164 421> 442 31<234 236>
Fore
313 528 m 1
 257 528 l 1
 115 616 l 2
 86 634 75 648 75 668 c 0
 75 693 96 713 122 713 c 0
 141 713 160 703 176 685 c 2
 313 528 l 1
402 125 m 1
 426 111 l 1
 361 18 312 -14 231 -14 c 0
 107 -14 25 82 25 228 c 0
 25 374 109 473 234 473 c 0
 289 473 335 453 368 414 c 0
 400 376 415 329 421 245 c 1
 169 245 l 1
 173 176 181 143 199 111 c 0
 220 76 249 58 288 58 c 0
 331 58 362 76 402 125 c 1
164 282 m 1
 298 282 l 1
 298 297 l 1
 296 348 294 376 289 395 c 0
 281 426 262 442 234 442 c 0
 185 442 167 402 164 282 c 1
EndSplineSet
Ligature: 0 0 'liga' e gravecomb
EndChar
StartChar: ecircumflex
Encoding: 337 234 231
Width: 444
Flags: W
HStem: -14 72<231 288> 245 37<164 421> 442 31<234 238>
Fore
348 528 m 1
 236 626 l 1
 124 528 l 1
 68 528 l 1
 190 704 l 1
 282 704 l 1
 405 528 l 1
 348 528 l 1
402 125 m 1
 426 111 l 1
 361 18 312 -14 231 -14 c 0
 107 -14 25 82 25 228 c 0
 25 374 109 473 234 473 c 0
 289 473 335 453 368 414 c 0
 400 376 415 329 421 245 c 1
 169 245 l 1
 173 176 181 143 199 111 c 0
 220 76 249 58 288 58 c 0
 331 58 362 76 402 125 c 1
164 282 m 1
 298 282 l 1
 298 297 l 1
 296 348 294 376 289 395 c 0
 281 426 262 442 234 442 c 0
 185 442 167 402 164 282 c 1
EndSplineSet
KernsSLIF: 121 -31 0 0 119 -30 0 0 118 -29 0 0
Ligature: 0 0 'liga' e uni0302
EndChar
StartChar: ecaron
Encoding: 338 283 232
Width: 444
Flags: W
HStem: -14 72<231 288> 245 37<164 421> 442 31<234 236>
Fore
391 703 m 1
 268 527 l 1
 176 527 l 1
 54 703 l 1
 110 703 l 1
 222 604 l 1
 334 703 l 1
 391 703 l 1
402 125 m 1
 426 111 l 1
 361 18 312 -14 231 -14 c 0
 107 -14 25 82 25 228 c 0
 25 374 109 473 234 473 c 0
 289 473 335 453 368 414 c 0
 400 376 415 329 421 245 c 1
 169 245 l 1
 173 176 181 143 199 111 c 0
 220 76 249 58 288 58 c 0
 331 58 362 76 402 125 c 1
164 282 m 1
 298 282 l 1
 298 297 l 1
 296 348 294 376 289 395 c 0
 281 426 262 442 234 442 c 0
 185 442 167 402 164 282 c 1
EndSplineSet
Ligature: 0 0 'liga' e uni030C
EndChar
StartChar: edotaccent
Encoding: 339 279 233
Width: 444
Flags: W
HStem: -14 72<231 288> 245 37<164 421> 442 31<234 236> 537 129<221 233>
VStem: 158 129<593 611>
Fore
221 666 m 0
 257 666 287 636 287 600 c 0
 287 565 258 537 221 537 c 0
 186 537 158 566 158 603 c 0
 158 636 188 666 221 666 c 0
402 125 m 1
 426 111 l 1
 361 18 312 -14 231 -14 c 0
 107 -14 25 82 25 228 c 0
 25 374 109 473 234 473 c 0
 289 473 335 453 368 414 c 0
 400 376 415 329 421 245 c 1
 169 245 l 1
 173 176 181 143 199 111 c 0
 220 76 249 58 288 58 c 0
 331 58 362 76 402 125 c 1
164 282 m 1
 298 282 l 1
 298 297 l 1
 296 348 294 376 289 395 c 0
 281 426 262 442 234 442 c 0
 185 442 167 402 164 282 c 1
EndSplineSet
Ligature: 0 0 'liga' e uni0307
EndChar
StartChar: eogonek
Encoding: 340 281 234
Width: 444
Flags: W
HStem: -173 69<321 362> -173 231<288 321> 245 37<164 421> 442 31<234 236>
VStem: 215 84<-92 -37>
Fore
421 245 m 1xb8
 169 245 l 1
 173 176 181 143 199 111 c 0
 220 76 249 58 288 58 c 0x78
 331 58 362 76 402 125 c 1
 426 111 l 1
 390 58 368 36 323 4 c 0
 304 -9 299 -17 299 -37 c 0
 299 -81 320 -104 362 -104 c 0
 377 -104 388 -101 408 -91 c 0
 416 -87 417 -86 422 -84 c 1
 444 -98 l 1
 419 -144 371 -173 321 -173 c 0
 260 -173 215 -139 215 -92 c 0
 215 -67 222 -49 248 -13 c 1
 240 -14 233 -14 229 -14 c 0
 107 -14 25 83 25 228 c 0
 25 374 109 473 234 473 c 0
 289 473 335 453 368 414 c 0
 400 376 415 329 421 245 c 1xb8
164 282 m 1
 298 282 l 1
 298 297 l 1
 296 348 294 376 289 395 c 0
 281 426 262 442 234 442 c 0
 185 442 167 402 164 282 c 1
EndSplineSet
Ligature: 0 0 'liga' e uni0328
EndChar
StartChar: gbreve
Encoding: 341 287 235
Width: 500
Flags: W
HStem: -206 32<220 267> -52 120<219 333> 154 28<227 267> 398 53<352 482> 442 31<240 252> 528 76<250 269> 671 20G<99 143 358 402>
VStem: 28 88<-116 -102> 37 137<298 323> 306 135<289 315> 404 79<-102 -55>
Fore
358 691 m 1xe6
 402 691 l 1
 396 640 389 615 372 589 c 0
 346 548 305 528 250 528 c 0
 197 528 155 547 130 583 c 0
 109 611 102 636 99 691 c 1
 143 691 l 1
 154 630 186 604 250 604 c 0
 312 604 341 628 358 691 c 1xe6
482 398 m 1xf680
 401 398 l 1
 429 370 441 340 441 300 c 0xf6c0
 441 247 418 206 373 180 c 0
 339 160 314 154 267 154 c 2
 222 155 l 2
 182 155 154 133 154 103 c 0
 154 75 174 68 254 68 c 2
 319 68 l 2
 421 68 483 22 483 -55 c 0
 483 -154 395 -206 229 -206 c 0
 103 -206 28 -172 28 -114 c 0xf720
 28 -73 61 -48 124 -39 c 1
 60 -16 42 2 42 43 c 0
 42 95 82 133 161 160 c 1
 114 180 95 193 73 217 c 1
 50 245 37 278 37 312 c 0
 37 407 121 473 240 473 c 0xee80
 280 473 308 467 352 451 c 1
 482 451 l 1
 482 398 l 1xf680
324 -52 m 2
 151 -52 l 1
 123 -75 116 -86 116 -107 c 0
 116 -151 162 -174 250 -174 c 0
 349 -174 404 -148 404 -102 c 0xe720
 404 -69 378 -52 324 -52 c 2
240 442 m 0xeec0
 193 442 174 405 174 311 c 0
 174 218 192 182 240 182 c 0
 287 182 306 218 306 311 c 0
 306 404 287 442 240 442 c 0xeec0
EndSplineSet
Ligature: 0 0 'liga' g uni0306
EndChar
StartChar: idieresis
Encoding: 342 239 236
Width: 278
Flags: W
HStem: 0 21G<16 255> 441 20G<16 208> 537 129<17.2083 31 226.519 240>
VStem: -36 129<591 609> 69 139<64.2914 385> 174 129<591 609>
Fore
28 666 m 0xf0
 63 666 93 636 93 600 c 0
 93 565 64 537 28 537 c 0
 -7 537 -36 567 -36 602 c 0
 -36 636 -6 666 28 666 c 0xf0
237 666 m 0
 273 666 303 636 303 600 c 0
 303 565 274 537 237 537 c 0
 202 537 174 566 174 603 c 0xe4
 174 636 204 666 237 666 c 0
208 461 m 1xe8
 208 81 l 2
 208 43 220 29 255 24 c 1
 255 0 l 1
 16 0 l 1
 16 24 l 1
 62 35 69 43 69 84 c 2
 69 378 l 2
 69 419 60 428 16 437 c 1
 16 461 l 1
 208 461 l 1xe8
EndSplineSet
Ligature: 0 0 'liga' i uni0308
EndChar
StartChar: iacute
Encoding: 343 237 237
Width: 278
Flags: W
HStem: 0 21G<16 255> 441 20G<16 208>
VStem: 69 139<64.2914 385>
Fore
52 528 m 1
 189 685 l 2
 206 704 223 713 242 713 c 0
 271 713 290 695 290 669 c 0
 290 646 282 636 250 616 c 2
 108 528 l 1
 52 528 l 1
208 461 m 1
 208 81 l 2
 208 43 220 29 255 24 c 1
 255 0 l 1
 16 0 l 1
 16 24 l 1
 62 35 69 43 69 84 c 2
 69 378 l 2
 69 419 60 428 16 437 c 1
 16 461 l 1
 208 461 l 1
EndSplineSet
Ligature: 0 0 'liga' i acutecomb
EndChar
StartChar: igrave
Encoding: 344 236 238
Width: 278
Flags: W
HStem: 0 21G<16 255> 441 20G<16 208>
VStem: 69 139<64.2914 385>
Fore
212 528 m 1
 156 528 l 1
 14 616 l 2
 -15 634 -26 648 -26 668 c 0
 -26 693 -5 713 21 713 c 0
 40 713 59 703 75 685 c 2
 212 528 l 1
208 461 m 1
 208 81 l 2
 208 43 220 29 255 24 c 1
 255 0 l 1
 16 0 l 1
 16 24 l 1
 62 35 69 43 69 84 c 2
 69 378 l 2
 69 419 60 428 16 437 c 1
 16 461 l 1
 208 461 l 1
EndSplineSet
Ligature: 0 0 'liga' i gravecomb
EndChar
StartChar: icircumflex
Encoding: 345 238 239
Width: 278
Flags: W
HStem: 0 21G<16 255> 441 20G<16 208>
VStem: 69 139<64.2914 385>
Fore
244 528 m 1
 132 626 l 1
 20 528 l 1
 -36 528 l 1
 86 704 l 1
 178 704 l 1
 301 528 l 1
 244 528 l 1
208 461 m 1
 208 81 l 2
 208 43 220 29 255 24 c 1
 255 0 l 1
 16 0 l 1
 16 24 l 1
 62 35 69 43 69 84 c 2
 69 378 l 2
 69 419 60 428 16 437 c 1
 16 461 l 1
 208 461 l 1
EndSplineSet
Ligature: 0 0 'liga' i uni0302
EndChar
StartChar: lacute
Encoding: 346 314 240
Width: 278
Flags: W
HStem: 0 24<16 27.3333 222 255> 652 24<16 27.6667>
VStem: 67 139<84 609>
Fore
58 738 m 1
 195 895 l 2
 212 914 229 923 248 923 c 0
 277 923 296 905 296 879 c 0
 296 856 288 846 256 826 c 2
 114 738 l 1
 58 738 l 1
206 676 m 1
 206 84 l 2
 206 44 222 25 255 24 c 1
 255 0 l 1
 16 0 l 1
 16 24 l 1
 50 27 67 47 67 84 c 2
 67 594 l 2
 67 631 51 649 16 652 c 1
 16 676 l 1
 206 676 l 1
EndSplineSet
Ligature: 0 0 'liga' l acutecomb
EndChar
StartChar: lcaron
Encoding: 347 318 241
Width: 278
Flags: W
HStem: 0 24<16 27.3333 222 255> 546 145<296 320> 652 24<16 27.6667>
VStem: 67 139<84 609>
Fore
206 676 m 1xb0
 206 84 l 2
 206 44 222 25 255 24 c 1
 255 0 l 1
 16 0 l 1
 16 24 l 1
 50 27 67 47 67 84 c 2
 67 594 l 2
 67 631 51 649 16 652 c 1
 16 676 l 1
 206 676 l 1xb0
247 390 m 1
 237 409 l 1
 305 457 335 494 335 529 c 0
 335 539 327 548 318 548 c 0
 317 548 314 548 311 547 c 0
 307 546 302 546 298 546 c 0
 257 546 231 574 231 617 c 0
 231 662 261 691 306 691 c 0xd0
 360 691 396 649 396 586 c 0
 396 508 351 449 247 390 c 1
EndSplineSet
Ligature: 0 0 'liga' l uni030C
EndChar
StartChar: nacute
Encoding: 348 324 242
Width: 556
Flags: W
HStem: 0 24<254.6 262 304 312.5 526 539> 406 67<299 355>
VStem: 74 139<64.7025 350 378 461> 351 139<65.0353 337>
Fore
198 528 m 1
 335 685 l 2
 352 704 369 713 388 713 c 0
 417 713 436 695 436 669 c 0
 436 646 428 636 396 616 c 2
 254 528 l 1
 198 528 l 1
212 461 m 1
 212 386 l 1
 249 445 295 473 355 473 c 0
 437 473 490 418 490 332 c 2
 490 81 l 2
 490 39 500 27 539 24 c 1
 539 0 l 1
 304 0 l 1
 304 24 l 1
 338 28 351 44 351 81 c 2
 351 323 l 2
 351 379 334 406 299 406 c 0
 276 406 252 394 230 371 c 1
 220 362 213 352 213 348 c 2
 213 81 l 2
 213 44 225 29 262 24 c 1
 262 0 l 1
 21 0 l 1
 21 24 l 1
 66 33 74 42 74 84 c 2
 74 378 l 2
 74 420 65 430 21 437 c 1
 21 461 l 1
 212 461 l 1
EndSplineSet
Ligature: 0 0 'liga' n acutecomb
EndChar
StartChar: ncaron
Encoding: 349 328 243
Width: 556
Flags: W
HStem: 0 24<254.6 262 304 312.5 526 539> 406 67<299 355>
VStem: 74 139<64.7025 350 378 461> 351 139<65.0353 337>
Fore
448 704 m 1
 325 528 l 1
 233 528 l 1
 111 704 l 1
 167 704 l 1
 279 605 l 1
 391 704 l 1
 448 704 l 1
212 461 m 1
 212 386 l 1
 249 445 295 473 355 473 c 0
 437 473 490 418 490 332 c 2
 490 81 l 2
 490 39 500 27 539 24 c 1
 539 0 l 1
 304 0 l 1
 304 24 l 1
 338 28 351 44 351 81 c 2
 351 323 l 2
 351 379 334 406 299 406 c 0
 276 406 252 394 230 371 c 1
 220 362 213 352 213 348 c 2
 213 81 l 2
 213 44 225 29 262 24 c 1
 262 0 l 1
 21 0 l 1
 21 24 l 1
 66 33 74 42 74 84 c 2
 74 378 l 2
 74 420 65 430 21 437 c 1
 21 461 l 1
 212 461 l 1
EndSplineSet
Ligature: 0 0 'liga' n uni030C
EndChar
StartChar: ntilde
Encoding: 350 241 244
Width: 556
Flags: W
HStem: 0 24<254.6 262 304 312.5 526 539> 406 67<299 355> 547 78<343 363> 596 78<186 211>
VStem: 74 139<64.7025 350 378 461> 351 139<65.0353 337>
Fore
137 549 m 1xdc
 95 549 l 1
 113 635 149 674 211 674 c 0xdc
 232 674 256 668 284 655 c 2
 324 637 l 2
 348 626 352 625 363 625 c 0xec
 390 625 404 638 417 674 c 1
 460 674 l 1xdc
 437 587 400 547 343 547 c 0xec
 323 547 298 553 279 561 c 2
 250 574 l 2
 207 593 199 596 186 596 c 0
 160 596 141 577 137 549 c 1xdc
212 461 m 1
 212 386 l 1
 249 445 295 473 355 473 c 0
 437 473 490 418 490 332 c 2
 490 81 l 2
 490 39 500 27 539 24 c 1
 539 0 l 1
 304 0 l 1
 304 24 l 1
 338 28 351 44 351 81 c 2
 351 323 l 2
 351 379 334 406 299 406 c 0
 276 406 252 394 230 371 c 1
 220 362 213 352 213 348 c 2
 213 81 l 2
 213 44 225 29 262 24 c 1
 262 0 l 1
 21 0 l 1
 21 24 l 1
 66 33 74 42 74 84 c 2
 74 378 l 2
 74 420 65 430 21 437 c 1
 21 461 l 1
 212 461 l 1
EndSplineSet
Ligature: 0 0 'liga' n tildecomb
EndChar
StartChar: odieresis
Encoding: 351 246 245
Width: 500
Flags: W
HStem: -14 31<237.514 254> 442 31<248 254> 537 129<145 154 354 362>
VStem: 25 147<209 243> 81 129<593 611> 291 129<593 611> 329 147<209 243>
Fore
145 666 m 0xe8
 180 666 210 636 210 600 c 0
 210 565 181 537 145 537 c 0
 110 537 81 567 81 602 c 0
 81 636 111 666 145 666 c 0xe8
354 666 m 0
 390 666 420 636 420 600 c 0
 420 565 391 537 354 537 c 0
 319 537 291 566 291 603 c 0xe4
 291 636 321 666 354 666 c 0
251 473 m 0
 380 473 476 369 476 229 c 0
 476 90 380 -14 251 -14 c 0
 120 -14 25 89 25 232 c 0xf2
 25 368 124 473 251 473 c 0
252 442 m 0
 190 442 172 390 172 214 c 0
 172 68 192 17 251 17 c 0
 309 17 329 69 329 223 c 0
 329 387 310 442 252 442 c 0
EndSplineSet
KernsSLIF: 121 -42 0 0 120 -29 0 0 119 -38 0 0 118 -42 0 0 116 -10 0 0
Ligature: 0 0 'liga' o uni0308
EndChar
StartChar: oacute
Encoding: 352 243 246
Width: 500
Flags: W
HStem: -14 31<237.514 254> 442 31<248 254>
VStem: 25 147<209 243> 329 147<209 243>
Fore
171 528 m 1
 308 685 l 2
 325 704 342 713 361 713 c 0
 390 713 409 695 409 669 c 0
 409 646 401 636 369 616 c 2
 227 528 l 1
 171 528 l 1
251 473 m 0
 380 473 476 369 476 229 c 0
 476 90 380 -14 251 -14 c 0
 120 -14 25 89 25 232 c 0
 25 368 124 473 251 473 c 0
252 442 m 0
 190 442 172 390 172 214 c 0
 172 68 192 17 251 17 c 0
 309 17 329 69 329 223 c 0
 329 387 310 442 252 442 c 0
EndSplineSet
KernsSLIF: 121 -42 0 0 119 -38 0 0 118 -42 0 0
Ligature: 0 0 'liga' o acutecomb
EndChar
StartChar: ograve
Encoding: 353 242 247
Width: 500
Flags: W
HStem: -14 31<237.514 254> 442 31<248 254>
VStem: 25 147<209 243> 329 147<209 243>
Fore
329 528 m 1
 273 528 l 1
 131 616 l 2
 102 634 91 648 91 668 c 0
 91 693 112 713 138 713 c 0
 157 713 176 703 192 685 c 2
 329 528 l 1
251 473 m 0
 380 473 476 369 476 229 c 0
 476 90 380 -14 251 -14 c 0
 120 -14 25 89 25 232 c 0
 25 368 124 473 251 473 c 0
252 442 m 0
 190 442 172 390 172 214 c 0
 172 68 192 17 251 17 c 0
 309 17 329 69 329 223 c 0
 329 387 310 442 252 442 c 0
EndSplineSet
KernsSLIF: 121 -42 0 0 119 -38 0 0 118 -42 0 0
Ligature: 0 0 'liga' o gravecomb
EndChar
StartChar: ocircumflex
Encoding: 354 244 248
Width: 500
Flags: W
HStem: -14 31<237.514 254> 442 31<248 254>
VStem: 25 147<209 243> 329 147<209 243>
Fore
362 528 m 1
 250 626 l 1
 138 528 l 1
 82 528 l 1
 204 704 l 1
 296 704 l 1
 419 528 l 1
 362 528 l 1
251 473 m 0
 380 473 476 369 476 229 c 0
 476 90 380 -14 251 -14 c 0
 120 -14 25 89 25 232 c 0
 25 368 124 473 251 473 c 0
252 442 m 0
 190 442 172 390 172 214 c 0
 172 68 192 17 251 17 c 0
 309 17 329 69 329 223 c 0
 329 387 310 442 252 442 c 0
EndSplineSet
KernsSLIF: 116 -10 0 0
Ligature: 0 0 'liga' o uni0302
EndChar
StartChar: otilde
Encoding: 355 245 249
Width: 500
Flags: W
HStem: -14 31<237.514 259> 442 31<248 259> 547 78<316 336> 596 78<159 184>
VStem: 25 147<209 243> 329 147<209 243>
Fore
110 549 m 1xdc
 68 549 l 1
 86 635 122 674 184 674 c 0xdc
 205 674 229 668 257 655 c 2
 297 637 l 2
 321 626 325 625 336 625 c 0xec
 363 625 377 638 390 674 c 1
 433 674 l 1xdc
 410 587 373 547 316 547 c 0xec
 296 547 271 553 252 561 c 2
 223 574 l 2
 180 593 172 596 159 596 c 0
 133 596 114 577 110 549 c 1xdc
251 473 m 0
 380 473 476 369 476 229 c 0
 476 90 380 -14 251 -14 c 0
 120 -14 25 89 25 232 c 0
 25 368 124 473 251 473 c 0
252 442 m 0
 190 442 172 390 172 214 c 0
 172 68 192 17 251 17 c 0
 309 17 329 69 329 223 c 0
 329 387 310 442 252 442 c 0
EndSplineSet
Ligature: 0 0 'liga' o tildecomb
EndChar
StartChar: ohungarumlaut
Encoding: 356 337 250
Width: 500
Flags: W
HStem: -14 31<237.514 263> 442 31<248 263>
VStem: 25 147<209 243> 329 147<209 243>
Fore
71 528 m 1
 208 685 l 2
 225 704 242 713 261 713 c 0
 290 713 309 695 309 669 c 0
 309 646 301 636 269 616 c 2
 127 528 l 1
 71 528 l 1
271 528 m 1
 408 685 l 2
 425 704 442 713 461 713 c 0
 490 713 509 695 509 669 c 0
 509 646 501 636 469 616 c 2
 327 528 l 1
 271 528 l 1
251 473 m 0
 380 473 476 369 476 229 c 0
 476 90 380 -14 251 -14 c 0
 120 -14 25 89 25 232 c 0
 25 368 124 473 251 473 c 0
252 442 m 0
 190 442 172 390 172 214 c 0
 172 68 192 17 251 17 c 0
 309 17 329 69 329 223 c 0
 329 387 310 442 252 442 c 0
EndSplineSet
Ligature: 0 0 'liga' o uni030B
EndChar
StartChar: racute
Encoding: 357 341 251
Width: 444
Flags: W
HStem: 0 24<279.75 295> 328 145<353 371> 437 24<29 36.1667>
VStem: 83 135<378 395.794>
Fore
143 528 m 1x90
 280 685 l 2
 297 704 314 713 333 713 c 0
 362 713 381 695 381 669 c 0
 381 646 373 636 341 616 c 2
 199 528 l 1
 143 528 l 1x90
218 461 m 1xb0
 218 379 l 1
 265 446 303 473 353 473 c 0
 400 473 434 440 434 395 c 0
 434 356 408 328 371 328 c 0xd0
 345 328 330 337 311 364 c 0
 300 380 291 387 283 387 c 0
 250 387 222 344 222 292 c 2
 222 103 l 2
 222 41 234 28 295 24 c 1
 295 0 l 1
 29 0 l 1
 29 24 l 1
 73 32 83 43 83 84 c 2
 83 378 l 2
 83 418 72 431 29 437 c 1
 29 461 l 1
 218 461 l 1xb0
EndSplineSet
Ligature: 0 0 'liga' r acutecomb
EndChar
StartChar: sacute
Encoding: 358 347 252
Width: 389
Flags: W
HStem: -14 34<189 207> 440 33<182 202>
VStem: 27 100<327 382> 265 96<85 138>
Fore
114 528 m 1
 251 685 l 2
 268 704 285 713 304 713 c 0
 333 713 352 695 352 669 c 0
 352 646 344 636 312 616 c 2
 170 528 l 1
 114 528 l 1
340 326 m 1
 315 326 l 1
 300 370 289 388 268 408 c 0
 246 429 219 440 193 440 c 0
 155 440 127 415 127 382 c 0
 127 348 155 323 223 294 c 0
 322 252 361 209 361 138 c 0
 361 48 298 -14 207 -14 c 0
 179 -14 126 -3 99 9 c 0
 89 13 81 15 76 15 c 0
 67 15 61 8 50 -13 c 1
 25 -13 l 1
 25 152 l 1
 53 152 l 1
 74 65 120 20 190 20 c 0
 235 20 265 46 265 85 c 0
 265 117 237 142 169 172 c 0
 68 215 27 261 27 327 c 0
 27 411 93 473 184 473 c 0
 206 473 229 469 262 458 c 0
 278 453 288 451 294 451 c 0
 306 451 312 456 318 471 c 1
 340 471 l 1
 340 326 l 1
EndSplineSet
Ligature: 0 0 'liga' s acutecomb
EndChar
StartChar: scaron
Encoding: 359 353 253
Width: 389
Flags: W
HStem: -14 34<189 207> 440 33<182 202>
VStem: 27 100<327 382> 265 96<85 138>
Fore
364 703 m 1
 241 527 l 1
 149 527 l 1
 27 703 l 1
 83 703 l 1
 195 604 l 1
 307 703 l 1
 364 703 l 1
340 326 m 1
 315 326 l 1
 300 370 289 388 268 408 c 0
 246 429 219 440 193 440 c 0
 155 440 127 415 127 382 c 0
 127 348 155 323 223 294 c 0
 322 252 361 209 361 138 c 0
 361 48 298 -14 207 -14 c 0
 179 -14 126 -3 99 9 c 0
 89 13 81 15 76 15 c 0
 67 15 61 8 50 -13 c 1
 25 -13 l 1
 25 152 l 1
 53 152 l 1
 74 65 120 20 190 20 c 0
 235 20 265 46 265 85 c 0
 265 117 237 142 169 172 c 0
 68 215 27 261 27 327 c 0
 27 411 93 473 184 473 c 0
 206 473 229 469 262 458 c 0
 278 453 288 451 294 451 c 0
 306 451 312 456 318 471 c 1
 340 471 l 1
 340 326 l 1
EndSplineSet
Ligature: 0 0 'liga' s uni030C
EndChar
StartChar: scommaaccent
Encoding: 360 537 254
Width: 389
Flags: W
HStem: -185 145<177 201> -14 34<189 207> 440 33<180 201>
VStem: 27 100<327 382> 265 96<85 138>
Fore
340 326 m 1
 315 326 l 1
 300 370 289 388 268 408 c 0
 246 429 219 440 193 440 c 0
 155 440 127 415 127 382 c 0
 127 348 155 323 223 294 c 0
 322 252 361 209 361 138 c 0
 361 48 298 -14 207 -14 c 0
 179 -14 126 -3 99 9 c 0
 89 13 81 15 76 15 c 0
 67 15 61 8 50 -13 c 1
 25 -13 l 1
 25 152 l 1
 53 152 l 1
 74 65 120 20 190 20 c 0
 235 20 265 46 265 85 c 0
 265 117 237 142 169 172 c 0
 68 215 27 261 27 327 c 0
 27 411 93 473 184 473 c 0
 206 473 229 469 262 458 c 0
 278 453 288 451 294 451 c 0
 306 451 312 456 318 471 c 1
 340 471 l 1
 340 326 l 1
128 -341 m 1
 118 -322 l 1
 186 -274 216 -237 216 -202 c 0
 216 -192 208 -183 199 -183 c 0
 198 -183 195 -183 192 -184 c 0
 188 -185 183 -185 179 -185 c 0
 138 -185 112 -157 112 -114 c 0
 112 -69 142 -40 187 -40 c 0
 241 -40 277 -82 277 -145 c 0
 277 -223 232 -282 128 -341 c 1
EndSplineSet
Ligature: 0 0 'liga' s uni0326
EndChar
StartChar: tcaron
Encoding: 361 357 255
Width: 333
Flags: W
HStem: -12 71<184 250> 461 21G<211 304> 546 145<300 324>
VStem: 72 139<93 417>
Fore
72 417 m 1
 20 417 l 1
 20 444 l 1
 85 499 125 544 186 630 c 1
 211 630 l 1
 211 461 l 1
 304 461 l 1
 328 487 339 508 339 529 c 0
 339 539 331 548 322 548 c 0
 321 548 318 548 315 547 c 0
 311 546 306 546 302 546 c 0
 261 546 235 574 235 617 c 0
 235 662 265 691 310 691 c 0
 364 691 400 649 400 586 c 0
 400 508 356 449 251 390 c 1
 241 409 l 1
 252 417 l 1
 211 417 l 1
 211 116 l 2
 211 76 222 59 250 59 c 0
 271 59 287 73 307 111 c 1
 332 100 l 1
 291 18 251 -12 184 -12 c 0
 115 -12 72 28 72 93 c 2
 72 417 l 1
EndSplineSet
Ligature: 0 0 'liga' t uni030C
EndChar
StartChar: udieresis
Encoding: 362 252 256
Width: 556
Flags: W
HStem: -14 65<198 260> 437 24<280 292.5> 537 129<148.208 162 357.519 371>
VStem: 65 139<113 387> 95 129<593 611> 305 129<593 611> 342 139<94 387>
Fore
159 666 m 0xe8
 194 666 224 636 224 600 c 0
 224 565 195 537 159 537 c 0
 124 537 95 567 95 602 c 0
 95 636 125 666 159 666 c 0xe8
368 666 m 0
 404 666 434 636 434 600 c 0
 434 565 405 537 368 537 c 0
 333 537 305 566 305 603 c 0xe4
 305 636 335 666 368 666 c 0
343 -13 m 1
 343 52 l 1
 285 2 250 -14 198 -14 c 0
 115 -14 65 38 65 126 c 2
 65 378 l 2
 65 420 57 429 16 437 c 1
 16 461 l 1
 204 461 l 1
 204 122 l 2
 204 71 219 51 260 51 c 0
 288 51 309 62 342 95 c 1
 342 378 l 2
 342 421 330 433 280 437 c 1
 280 461 l 1
 481 461 l 1
 481 101 l 2xf2
 481 58 493 45 537 43 c 1
 537 20 l 1
 475 13 l 2
 410 6 386 2 343 -13 c 1
EndSplineSet
Ligature: 0 0 'liga' u uni0308
EndChar
StartChar: uacute
Encoding: 363 250 257
Width: 556
Flags: W
HStem: -14 65<198 260> 437 24<280 292.5>
VStem: 65 139<113 387> 342 139<94 387>
Fore
184 528 m 1
 321 685 l 2
 338 704 355 713 374 713 c 0
 403 713 422 695 422 669 c 0
 422 646 414 636 382 616 c 2
 240 528 l 1
 184 528 l 1
343 -13 m 1
 343 52 l 1
 285 2 250 -14 198 -14 c 0
 115 -14 65 38 65 126 c 2
 65 378 l 2
 65 420 57 429 16 437 c 1
 16 461 l 1
 204 461 l 1
 204 122 l 2
 204 71 219 51 260 51 c 0
 288 51 309 62 342 95 c 1
 342 378 l 2
 342 421 330 433 280 437 c 1
 280 461 l 1
 481 461 l 1
 481 101 l 2
 481 58 493 45 537 43 c 1
 537 20 l 1
 475 13 l 2
 410 6 386 2 343 -13 c 1
EndSplineSet
Ligature: 0 0 'liga' u acutecomb
EndChar
StartChar: ugrave
Encoding: 364 249 258
Width: 556
Flags: W
HStem: -14 65<198 260> 437 24<280 292.5>
VStem: 65 139<113 387> 342 139<94 387>
Fore
358 528 m 1
 302 528 l 1
 160 616 l 2
 131 634 120 648 120 668 c 0
 120 693 141 713 167 713 c 0
 186 713 205 703 221 685 c 2
 358 528 l 1
343 -13 m 1
 343 52 l 1
 285 2 250 -14 198 -14 c 0
 115 -14 65 38 65 126 c 2
 65 378 l 2
 65 420 57 429 16 437 c 1
 16 461 l 1
 204 461 l 1
 204 122 l 2
 204 71 219 51 260 51 c 0
 288 51 309 62 342 95 c 1
 342 378 l 2
 342 421 330 433 280 437 c 1
 280 461 l 1
 481 461 l 1
 481 101 l 2
 481 58 493 45 537 43 c 1
 537 20 l 1
 475 13 l 2
 410 6 386 2 343 -13 c 1
EndSplineSet
Ligature: 0 0 'liga' u gravecomb
EndChar
StartChar: ucircumflex
Encoding: 365 251 259
Width: 556
Flags: W
HStem: -14 65<198 260> 437 24<280 292.5>
VStem: 65 139<113 387> 342 139<94 387>
Fore
386 528 m 1
 274 626 l 1
 162 528 l 1
 106 528 l 1
 228 704 l 1
 320 704 l 1
 443 528 l 1
 386 528 l 1
343 -13 m 1
 343 52 l 1
 285 2 250 -14 198 -14 c 0
 115 -14 65 38 65 126 c 2
 65 378 l 2
 65 420 57 429 16 437 c 1
 16 461 l 1
 204 461 l 1
 204 122 l 2
 204 71 219 51 260 51 c 0
 288 51 309 62 342 95 c 1
 342 378 l 2
 342 421 330 433 280 437 c 1
 280 461 l 1
 481 461 l 1
 481 101 l 2
 481 58 493 45 537 43 c 1
 537 20 l 1
 475 13 l 2
 410 6 386 2 343 -13 c 1
EndSplineSet
Ligature: 0 0 'liga' u uni0302
EndChar
StartChar: uring
Encoding: 366 367 260
Width: 556
Flags: W
HStem: -14 65<198 260> 437 24<280 292.5> 537 48<271 281> 702 48<271 282>
VStem: 65 139<113 387> 171 48<640 647> 336 48<631.697 647> 342 139<94 387>
Fore
278 750 m 0xf6
 336 750 384 701 384 643 c 0
 384 584 336 537 277 537 c 0
 218 537 171 585 171 645 c 0
 171 701 220 750 278 750 c 0xf6
277 702 m 0
 246 702 219 674 219 643 c 0
 219 611 245 585 276 585 c 0
 309 585 336 611 336 642 c 0
 336 674 309 702 277 702 c 0
343 -13 m 1
 343 52 l 1
 285 2 250 -14 198 -14 c 0
 115 -14 65 38 65 126 c 2
 65 378 l 2
 65 420 57 429 16 437 c 1
 16 461 l 1
 204 461 l 1
 204 122 l 2
 204 71 219 51 260 51 c 0
 288 51 309 62 342 95 c 1
 342 378 l 2
 342 421 330 433 280 437 c 1
 280 461 l 1
 481 461 l 1
 481 101 l 2xf9
 481 58 493 45 537 43 c 1
 537 20 l 1
 475 13 l 2
 410 6 386 2 343 -13 c 1
EndSplineSet
Ligature: 0 0 'liga' u uni030A
EndChar
StartChar: uhungarumlaut
Encoding: 367 369 261
Width: 556
Flags: W
HStem: -14 65<198 260> 437 24<280 292.5>
VStem: 65 139<113 387> 342 139<94 387>
Fore
100 528 m 1
 237 685 l 2
 254 704 271 713 290 713 c 0
 319 713 338 695 338 669 c 0
 338 646 330 636 298 616 c 2
 156 528 l 1
 100 528 l 1
300 528 m 1
 437 685 l 2
 454 704 471 713 490 713 c 0
 519 713 538 695 538 669 c 0
 538 646 530 636 498 616 c 2
 356 528 l 1
 300 528 l 1
343 -13 m 1
 343 52 l 1
 285 2 250 -14 198 -14 c 0
 115 -14 65 38 65 126 c 2
 65 378 l 2
 65 420 57 429 16 437 c 1
 16 461 l 1
 204 461 l 1
 204 122 l 2
 204 71 219 51 260 51 c 0
 288 51 309 62 342 95 c 1
 342 378 l 2
 342 421 330 433 280 437 c 1
 280 461 l 1
 481 461 l 1
 481 101 l 2
 481 58 493 45 537 43 c 1
 537 20 l 1
 475 13 l 2
 410 6 386 2 343 -13 c 1
EndSplineSet
Ligature: 0 0 'liga' u uni030B
EndChar
StartChar: yacute
Encoding: 368 253 262
Width: 500
Flags: W
HStem: -205 143<80 113> 437 24<16 23.6667 250 266 329 350.5 469.667 480>
VStem: 16 119<-133 -124>
DStem: 116 282 233 352 236 -13 305 167 373 359 422 382 305 167 273 -15
Fore
170 528 m 1
 307 685 l 2
 324 704 341 713 360 713 c 0
 389 713 408 695 408 669 c 0
 408 646 400 636 368 616 c 2
 226 528 l 1
 170 528 l 1
480 461 m 1
 480 437 l 1
 449 434 439 424 422 382 c 1
 273 -15 l 2
 238 -109 218 -149 197 -172 c 0
 176 -193 147 -205 113 -205 c 0
 56 -205 16 -172 16 -126 c 0
 16 -88 43 -62 80 -62 c 0
 114 -62 138 -82 138 -111 c 0
 138 -115 137 -120 136 -125 c 0
 135 -128 135 -130 135 -131 c 0
 135 -140 143 -148 152 -148 c 0
 175 -148 201 -116 218 -66 c 2
 236 -13 l 1
 116 282 l 2
 99 324 54 422 51 422 c 1
 45 431 39 434 16 437 c 1
 16 461 l 1
 266 461 l 1
 266 437 l 1
 250 436 l 2
 225 434 213 425 213 411 c 0
 213 403 213 403 233 352 c 2
 305 167 l 1
 373 359 l 2
 382 384 384 393 384 404 c 0
 384 428 372 435 329 437 c 1
 329 461 l 1
 480 461 l 1
EndSplineSet
Ligature: 0 0 'liga' y acutecomb
EndChar
StartChar: zacute
Encoding: 369 378 263
Width: 444
Flags: W
HStem: 0 32<185 404> 429 32<45 255>
DStem: 255 429 416 435 21 25 185 32
Fore
143 528 m 1
 280 685 l 2
 297 704 314 713 333 713 c 0
 362 713 381 695 381 669 c 0
 381 646 373 636 341 616 c 2
 199 528 l 1
 143 528 l 1
420 160 m 1
 404 0 l 1
 21 0 l 1
 21 25 l 1
 255 429 l 1
 115 430 89 414 64 319 c 1
 38 319 l 1
 45 461 l 1
 416 461 l 1
 416 435 l 1
 185 32 l 1
 214 32 l 2
 294 32 327 45 359 89 c 0
 375 110 383 128 392 160 c 1
 420 160 l 1
EndSplineSet
Ligature: 0 0 'liga' z acutecomb
EndChar
StartChar: zcaron
Encoding: 370 382 264
Width: 444
Flags: W
HStem: 0 32<185 404> 429 32<45 255>
DStem: 255 429 416 435 21 25 185 32
Fore
401 704 m 1
 278 528 l 1
 186 528 l 1
 64 704 l 1
 120 704 l 1
 232 605 l 1
 344 704 l 1
 401 704 l 1
420 160 m 1
 404 0 l 1
 21 0 l 1
 21 25 l 1
 255 429 l 1
 115 430 89 414 64 319 c 1
 38 319 l 1
 45 461 l 1
 416 461 l 1
 416 435 l 1
 185 32 l 1
 214 32 l 2
 294 32 327 45 359 89 c 0
 375 110 383 128 392 160 c 1
 420 160 l 1
EndSplineSet
Ligature: 0 0 'liga' z uni030C
EndChar
StartChar: zdotaccent
Encoding: 371 380 265
Width: 444
Flags: W
HStem: 0 32<185 404> 429 32<45 255> 537 129<221 230>
VStem: 158 129<591 609>
DStem: 255 429 416 435 21 25 185 32
Fore
221 666 m 0
 257 666 287 636 287 600 c 0
 287 565 258 537 221 537 c 0
 186 537 158 566 158 603 c 0
 158 636 188 666 221 666 c 0
420 160 m 1
 404 0 l 1
 21 0 l 1
 21 25 l 1
 255 429 l 1
 115 430 89 414 64 319 c 1
 38 319 l 1
 45 461 l 1
 416 461 l 1
 416 435 l 1
 185 32 l 1
 214 32 l 2
 294 32 327 45 359 89 c 0
 375 110 383 128 392 160 c 1
 420 160 l 1
EndSplineSet
Ligature: 0 0 'liga' z uni0307
EndChar
StartChar: ydieresis
Encoding: 372 255 266
Width: 500
Flags: W
HStem: -205 143<80 113> 437 24<16 23.6667 250 266 329 350.5 469.667 480> 536 129<160 162 358.519 376>
VStem: 16 119<-133 -124> 96 129<594 605> 306 129<594 604>
DStem: 116 282 233 352 236 -13 305 167 373 359 422 382 305 167 273 -15
Fore
160 665 m 0xec
 195 665 225 635 225 599 c 0
 225 564 196 536 160 536 c 0
 125 536 96 566 96 601 c 0
 96 635 126 665 160 665 c 0xec
369 665 m 0
 405 665 435 635 435 599 c 0
 435 564 406 536 369 536 c 0
 334 536 306 565 306 602 c 0
 306 635 336 665 369 665 c 0
480 461 m 1
 480 437 l 1
 449 434 439 424 422 382 c 1
 273 -15 l 2
 238 -109 218 -149 197 -172 c 0
 176 -193 147 -205 113 -205 c 0
 56 -205 16 -172 16 -126 c 0
 16 -88 43 -62 80 -62 c 0
 114 -62 138 -82 138 -111 c 0
 138 -115 137 -120 136 -125 c 0
 135 -128 135 -130 135 -131 c 0
 135 -140 143 -148 152 -148 c 0
 175 -148 201 -116 218 -66 c 2
 236 -13 l 1
 116 282 l 2
 99 324 54 422 51 422 c 1
 45 431 39 434 16 437 c 1
 16 461 l 1xf4
 266 461 l 1
 266 437 l 1
 250 436 l 2
 225 434 213 425 213 411 c 0
 213 403 213 403 233 352 c 2
 305 167 l 1
 373 359 l 2
 382 384 384 393 384 404 c 0
 384 428 372 435 329 437 c 1
 329 461 l 1
 480 461 l 1
EndSplineSet
Ligature: 0 0 'liga' y uni0308
EndChar
StartChar: tcommaaccent
Encoding: 373 355 267
Width: 333
Flags: W
HStem: -185 145<147 173> -12 71<184 250> 417 44<211 305>
VStem: 72 139<93 417>
Fore
305 461 m 1
 305 417 l 1
 211 417 l 1
 211 116 l 2
 211 76 222 59 250 59 c 0
 271 59 287 73 307 111 c 1
 332 100 l 1
 291 18 251 -12 184 -12 c 0
 115 -12 72 28 72 93 c 2
 72 417 l 1
 20 417 l 1
 20 444 l 1
 85 499 125 544 186 630 c 1
 211 630 l 1
 211 461 l 1
 305 461 l 1
100 -341 m 1
 90 -322 l 1
 158 -274 188 -237 188 -202 c 0
 188 -192 180 -183 171 -183 c 0
 170 -183 167 -183 164 -184 c 0
 160 -185 155 -185 151 -185 c 0
 110 -185 84 -157 84 -114 c 0
 84 -69 114 -40 159 -40 c 0
 213 -40 249 -82 249 -145 c 0
 249 -223 204 -282 100 -341 c 1
EndSplineSet
Ligature: 0 0 'liga' t uni0327
EndChar
StartChar: amacron
Encoding: 374 257 268
Width: 500
Flags: W
HStem: -14 64<376 452> 441 32<208 233> 563 72<85 415>
VStem: 25 146<92 124> 44 133<334 349> 293 138<99 353>
Fore
415 635 m 1xe4
 415 563 l 1
 85 563 l 1
 85 635 l 1
 415 635 l 1xe4
473 64 m 1
 488 43 l 1
 450 2 419 -14 376 -14 c 0
 327 -14 305 5 294 56 c 1
 239 6 193 -14 136 -14 c 0
 72 -14 25 31 25 92 c 0xf4
 25 135 46 169 89 199 c 0
 126 224 175 244 294 280 c 1
 294 353 l 2
 294 414 268 441 210 441 c 0
 175 441 147 425 147 404 c 0
 147 398 150 392 159 382 c 0
 171 366 177 353 177 339 c 0
 177 305 149 281 109 281 c 0
 68 281 44 306 44 347 c 0xec
 44 422 120 473 233 473 c 0
 355 473 431 420 431 336 c 2
 431 75 l 2
 431 59 438 50 452 50 c 0
 457 50 460 51 463 54 c 2
 473 64 l 1
293 100 m 1
 293 245 l 1
 213 224 171 182 171 124 c 0
 171 84 192 57 222 57 c 0
 246 57 266 69 293 100 c 1
EndSplineSet
Ligature: 0 0 'liga' a uni0304
EndChar
StartChar: emacron
Encoding: 375 275 269
Width: 444
Flags: W
HStem: -14 72<231 288> 245 37<164 421> 442 31<234 236> 565 72<57 387>
Fore
387 637 m 1
 387 565 l 1
 57 565 l 1
 57 637 l 1
 387 637 l 1
402 125 m 1
 426 111 l 1
 361 18 312 -14 231 -14 c 0
 107 -14 25 82 25 228 c 0
 25 374 109 473 234 473 c 0
 289 473 335 453 368 414 c 0
 400 376 415 329 421 245 c 1
 169 245 l 1
 173 176 181 143 199 111 c 0
 220 76 249 58 288 58 c 0
 331 58 362 76 402 125 c 1
164 282 m 1
 298 282 l 1
 298 297 l 1
 296 348 294 376 289 395 c 0
 281 426 262 442 234 442 c 0
 185 442 167 402 164 282 c 1
EndSplineSet
Ligature: 0 0 'liga' e uni0304
EndChar
StartChar: imacron
Encoding: 376 299 270
Width: 278
Flags: W
HStem: 0 21G<16 255> 441 20G<16 208> 565 72<-28 302>
VStem: 69 139<64.2914 385>
Fore
302 637 m 1
 302 565 l 1
 -28 565 l 1
 -28 637 l 1
 302 637 l 1
208 461 m 1
 208 81 l 2
 208 43 220 29 255 24 c 1
 255 0 l 1
 16 0 l 1
 16 24 l 1
 62 35 69 43 69 84 c 2
 69 378 l 2
 69 419 60 428 16 437 c 1
 16 461 l 1
 208 461 l 1
EndSplineSet
Ligature: 0 0 'liga' i uni0304
EndChar
StartChar: kcommaaccent
Encoding: 377 311 271
Width: 556
Flags: W
HStem: -185 145<259 284> 0 24<22 33 309 337 534.33 542.984> 438 23<505.125 513> 652 24<22 33.3333>
VStem: 70 139<84 198 84 676> 195 165<-145 -114>
DStem: 232 222 324 307 327 88 518 39
Fore
513 461 m 1xf8
 513 438 l 1
 450 430 424 412 324 307 c 1
 518 39 l 2
 527 27 532 24 543 24 c 1
 543 0 l 1
 309 0 l 1
 309 24 l 1
 337 25 351 31 351 43 c 0
 351 51 344 63 327 88 c 2
 232 222 l 1
 209 198 l 1
 209 84 l 2
 209 37 214 31 261 24 c 1
 261 0 l 1
 22 0 l 1
 22 24 l 1
 55 27 70 45 70 84 c 2
 70 594 l 2
 70 632 56 649 22 652 c 1
 22 676 l 1
 209 676 l 1
 209 245 l 1
 337 373 l 2
 348 384 358 402 358 411 c 0
 358 424 347 431 323 434 c 0
 320 435 310 436 299 438 c 1
 299 461 l 1
 513 461 l 1xf8
211 -341 m 1
 201 -322 l 1
 269 -274 299 -237 299 -202 c 0
 299 -192 291 -183 282 -183 c 0
 281 -183 278 -183 275 -184 c 0
 271 -185 266 -185 262 -185 c 0
 221 -185 195 -157 195 -114 c 0
 195 -69 225 -40 270 -40 c 0
 324 -40 360 -82 360 -145 c 0xf4
 360 -223 315 -282 211 -341 c 1
EndSplineSet
Ligature: 0 0 'liga' k uni0327
EndChar
StartChar: lcommaaccent
Encoding: 378 316 272
Width: 278
Flags: W
HStem: -185 145<120 144> 0 24<16 27.3333 222 255> 652 24<16 27.6667>
VStem: 67 139<84 604>
Fore
206 676 m 1
 206 84 l 2
 206 44 222 25 255 24 c 1
 255 0 l 1
 16 0 l 1
 16 24 l 1
 50 27 67 47 67 84 c 2
 67 594 l 2
 67 631 51 649 16 652 c 1
 16 676 l 1
 206 676 l 1
71 -341 m 1
 61 -322 l 1
 129 -274 159 -237 159 -202 c 0
 159 -192 151 -183 142 -183 c 0
 141 -183 138 -183 135 -184 c 0
 131 -185 126 -185 122 -185 c 0
 81 -185 55 -157 55 -114 c 0
 55 -69 85 -40 130 -40 c 0
 184 -40 220 -82 220 -145 c 0
 220 -223 175 -282 71 -341 c 1
EndSplineSet
Ligature: 0 0 'liga' l uni0327
EndChar
StartChar: ncommaaccent
Encoding: 379 326 273
Width: 556
Flags: W
HStem: -185 145<260 284> 0 24<254.6 262 304 312.5 526 539> 406 67<299 355>
VStem: 74 139<74 350 378 461> 195 165<-145 -114> 351 139<81 334>
Fore
212 461 m 1xf4
 212 386 l 1
 249 445 295 473 355 473 c 0
 437 473 490 418 490 332 c 2
 490 81 l 2
 490 39 500 27 539 24 c 1
 539 0 l 1
 304 0 l 1
 304 24 l 1
 338 28 351 44 351 81 c 2
 351 323 l 2
 351 379 334 406 299 406 c 0
 276 406 252 394 230 371 c 1
 220 362 213 352 213 348 c 2
 213 81 l 2
 213 44 225 29 262 24 c 1
 262 0 l 1
 21 0 l 1
 21 24 l 1
 66 33 74 42 74 84 c 2
 74 378 l 2
 74 420 65 430 21 437 c 1
 21 461 l 1
 212 461 l 1xf4
211 -341 m 1
 201 -322 l 1
 269 -274 299 -237 299 -202 c 0
 299 -192 291 -183 282 -183 c 0
 281 -183 278 -183 275 -184 c 0
 271 -185 266 -185 262 -185 c 0
 221 -185 195 -157 195 -114 c 0
 195 -69 225 -40 270 -40 c 0
 324 -40 360 -82 360 -145 c 0xe8
 360 -223 315 -282 211 -341 c 1
EndSplineSet
Ligature: 0 0 'liga' n uni0327
EndChar
StartChar: omacron
Encoding: 380 333 274
Width: 500
Flags: W
HStem: -14 31<237.514 254> 442 31<248 254> 565 72<85 415>
VStem: 25 147<209 243> 329 147<209 243>
Fore
415 637 m 1
 415 565 l 1
 85 565 l 1
 85 637 l 1
 415 637 l 1
251 473 m 0
 380 473 476 369 476 229 c 0
 476 90 380 -14 251 -14 c 0
 120 -14 25 89 25 232 c 0
 25 368 124 473 251 473 c 0
252 442 m 0
 190 442 172 390 172 214 c 0
 172 68 192 17 251 17 c 0
 309 17 329 69 329 223 c 0
 329 387 310 442 252 442 c 0
EndSplineSet
Ligature: 0 0 'liga' o uni0304
EndChar
